G04 #@! TF.FileFunction,Legend,Top*
%FSLAX46Y46*%
G04 Gerber Fmt 4.6, Leading zero omitted, Abs format (unit mm)*
G04 Created by KiCad (PCBNEW 4.0.1-stable) date 12/12/2017 1:59:10 PM*
%MOMM*%
G01*
G04 APERTURE LIST*
%ADD10C,0.150000*%
%ADD11C,0.304800*%
%ADD12C,0.203200*%
%ADD13C,0.254000*%
%ADD14C,0.152400*%
%ADD15C,0.002540*%
G04 APERTURE END LIST*
D10*
D11*
X58728429Y-117638285D02*
X59744429Y-117347999D01*
X59018714Y-117057713D01*
X59744429Y-116767428D01*
X58728429Y-116477142D01*
X58728429Y-116041714D02*
X59744429Y-115751428D01*
X59018714Y-115461142D01*
X59744429Y-115170857D01*
X58728429Y-114880571D01*
X58728429Y-114445143D02*
X59744429Y-114154857D01*
X59018714Y-113864571D01*
X59744429Y-113574286D01*
X58728429Y-113284000D01*
X59599286Y-112703429D02*
X59671857Y-112630857D01*
X59744429Y-112703429D01*
X59671857Y-112776000D01*
X59599286Y-112703429D01*
X59744429Y-112703429D01*
X59744429Y-111977715D02*
X58728429Y-111977715D01*
X58873571Y-111977715D02*
X58801000Y-111905143D01*
X58728429Y-111760001D01*
X58728429Y-111542286D01*
X58801000Y-111397143D01*
X58946143Y-111324572D01*
X59744429Y-111324572D01*
X58946143Y-111324572D02*
X58801000Y-111252001D01*
X58728429Y-111106858D01*
X58728429Y-110889143D01*
X58801000Y-110744001D01*
X58946143Y-110671429D01*
X59744429Y-110671429D01*
X59744429Y-109292572D02*
X58946143Y-109292572D01*
X58801000Y-109365143D01*
X58728429Y-109510286D01*
X58728429Y-109800572D01*
X58801000Y-109945715D01*
X59671857Y-109292572D02*
X59744429Y-109437715D01*
X59744429Y-109800572D01*
X59671857Y-109945715D01*
X59526714Y-110018286D01*
X59381571Y-110018286D01*
X59236429Y-109945715D01*
X59163857Y-109800572D01*
X59163857Y-109437715D01*
X59091286Y-109292572D01*
X59744429Y-108349144D02*
X59671857Y-108494286D01*
X59526714Y-108566858D01*
X58220429Y-108566858D01*
X59744429Y-107768572D02*
X58728429Y-107768572D01*
X58220429Y-107768572D02*
X58293000Y-107841143D01*
X58365571Y-107768572D01*
X58293000Y-107696000D01*
X58220429Y-107768572D01*
X58365571Y-107768572D01*
X58728429Y-107042858D02*
X59744429Y-107042858D01*
X58873571Y-107042858D02*
X58801000Y-106970286D01*
X58728429Y-106825144D01*
X58728429Y-106607429D01*
X58801000Y-106462286D01*
X58946143Y-106389715D01*
X59744429Y-106389715D01*
X59744429Y-105446287D02*
X59671857Y-105591429D01*
X59599286Y-105664001D01*
X59454143Y-105736572D01*
X59018714Y-105736572D01*
X58873571Y-105664001D01*
X58801000Y-105591429D01*
X58728429Y-105446287D01*
X58728429Y-105228572D01*
X58801000Y-105083429D01*
X58873571Y-105010858D01*
X59018714Y-104938287D01*
X59454143Y-104938287D01*
X59599286Y-105010858D01*
X59671857Y-105083429D01*
X59744429Y-105228572D01*
X59744429Y-105446287D01*
X58728429Y-104430287D02*
X59744429Y-104067430D01*
X58728429Y-103704572D01*
X59599286Y-103124001D02*
X59671857Y-103051429D01*
X59744429Y-103124001D01*
X59671857Y-103196572D01*
X59599286Y-103124001D01*
X59744429Y-103124001D01*
X59671857Y-101745144D02*
X59744429Y-101890287D01*
X59744429Y-102180573D01*
X59671857Y-102325715D01*
X59599286Y-102398287D01*
X59454143Y-102470858D01*
X59018714Y-102470858D01*
X58873571Y-102398287D01*
X58801000Y-102325715D01*
X58728429Y-102180573D01*
X58728429Y-101890287D01*
X58801000Y-101745144D01*
X59744429Y-100874287D02*
X59671857Y-101019429D01*
X59599286Y-101092001D01*
X59454143Y-101164572D01*
X59018714Y-101164572D01*
X58873571Y-101092001D01*
X58801000Y-101019429D01*
X58728429Y-100874287D01*
X58728429Y-100656572D01*
X58801000Y-100511429D01*
X58873571Y-100438858D01*
X59018714Y-100366287D01*
X59454143Y-100366287D01*
X59599286Y-100438858D01*
X59671857Y-100511429D01*
X59744429Y-100656572D01*
X59744429Y-100874287D01*
X59744429Y-99713144D02*
X58728429Y-99713144D01*
X58873571Y-99713144D02*
X58801000Y-99640572D01*
X58728429Y-99495430D01*
X58728429Y-99277715D01*
X58801000Y-99132572D01*
X58946143Y-99060001D01*
X59744429Y-99060001D01*
X58946143Y-99060001D02*
X58801000Y-98987430D01*
X58728429Y-98842287D01*
X58728429Y-98624572D01*
X58801000Y-98479430D01*
X58946143Y-98406858D01*
X59744429Y-98406858D01*
D12*
X60481029Y-165462857D02*
X58957029Y-165462857D01*
X60408457Y-164918571D02*
X60481029Y-164737143D01*
X60481029Y-164434762D01*
X60408457Y-164313809D01*
X60335886Y-164253333D01*
X60190743Y-164192857D01*
X60045600Y-164192857D01*
X59900457Y-164253333D01*
X59827886Y-164313809D01*
X59755314Y-164434762D01*
X59682743Y-164676666D01*
X59610171Y-164797619D01*
X59537600Y-164858095D01*
X59392457Y-164918571D01*
X59247314Y-164918571D01*
X59102171Y-164858095D01*
X59029600Y-164797619D01*
X58957029Y-164676666D01*
X58957029Y-164374286D01*
X59029600Y-164192857D01*
X60045600Y-163709047D02*
X60045600Y-163104285D01*
X60481029Y-163830000D02*
X58957029Y-163406666D01*
X60481029Y-162983333D01*
X59610171Y-161410952D02*
X59537600Y-161531905D01*
X59465029Y-161592381D01*
X59319886Y-161652857D01*
X59247314Y-161652857D01*
X59102171Y-161592381D01*
X59029600Y-161531905D01*
X58957029Y-161410952D01*
X58957029Y-161169048D01*
X59029600Y-161048095D01*
X59102171Y-160987619D01*
X59247314Y-160927143D01*
X59319886Y-160927143D01*
X59465029Y-160987619D01*
X59537600Y-161048095D01*
X59610171Y-161169048D01*
X59610171Y-161410952D01*
X59682743Y-161531905D01*
X59755314Y-161592381D01*
X59900457Y-161652857D01*
X60190743Y-161652857D01*
X60335886Y-161592381D01*
X60408457Y-161531905D01*
X60481029Y-161410952D01*
X60481029Y-161169048D01*
X60408457Y-161048095D01*
X60335886Y-160987619D01*
X60190743Y-160927143D01*
X59900457Y-160927143D01*
X59755314Y-160987619D01*
X59682743Y-161048095D01*
X59610171Y-161169048D01*
X59900457Y-160382857D02*
X59900457Y-159415238D01*
X59682743Y-158387143D02*
X59755314Y-158205714D01*
X59827886Y-158145238D01*
X59973029Y-158084762D01*
X60190743Y-158084762D01*
X60335886Y-158145238D01*
X60408457Y-158205714D01*
X60481029Y-158326667D01*
X60481029Y-158810476D01*
X58957029Y-158810476D01*
X58957029Y-158387143D01*
X59029600Y-158266190D01*
X59102171Y-158205714D01*
X59247314Y-158145238D01*
X59392457Y-158145238D01*
X59537600Y-158205714D01*
X59610171Y-158266190D01*
X59682743Y-158387143D01*
X59682743Y-158810476D01*
X60481029Y-157540476D02*
X59465029Y-157540476D01*
X58957029Y-157540476D02*
X59029600Y-157600952D01*
X59102171Y-157540476D01*
X59029600Y-157480000D01*
X58957029Y-157540476D01*
X59102171Y-157540476D01*
X59465029Y-157117143D02*
X59465029Y-156633333D01*
X58957029Y-156935714D02*
X60263314Y-156935714D01*
X60408457Y-156875238D01*
X60481029Y-156754285D01*
X60481029Y-156633333D01*
X59682743Y-154819048D02*
X59755314Y-154637619D01*
X59827886Y-154577143D01*
X59973029Y-154516667D01*
X60190743Y-154516667D01*
X60335886Y-154577143D01*
X60408457Y-154637619D01*
X60481029Y-154758572D01*
X60481029Y-155242381D01*
X58957029Y-155242381D01*
X58957029Y-154819048D01*
X59029600Y-154698095D01*
X59102171Y-154637619D01*
X59247314Y-154577143D01*
X59392457Y-154577143D01*
X59537600Y-154637619D01*
X59610171Y-154698095D01*
X59682743Y-154819048D01*
X59682743Y-155242381D01*
X60481029Y-153428095D02*
X59682743Y-153428095D01*
X59537600Y-153488572D01*
X59465029Y-153609524D01*
X59465029Y-153851429D01*
X59537600Y-153972381D01*
X60408457Y-153428095D02*
X60481029Y-153549048D01*
X60481029Y-153851429D01*
X60408457Y-153972381D01*
X60263314Y-154032857D01*
X60118171Y-154032857D01*
X59973029Y-153972381D01*
X59900457Y-153851429D01*
X59900457Y-153549048D01*
X59827886Y-153428095D01*
X60408457Y-152279047D02*
X60481029Y-152400000D01*
X60481029Y-152641904D01*
X60408457Y-152762857D01*
X60335886Y-152823333D01*
X60190743Y-152883809D01*
X59755314Y-152883809D01*
X59610171Y-152823333D01*
X59537600Y-152762857D01*
X59465029Y-152641904D01*
X59465029Y-152400000D01*
X59537600Y-152279047D01*
X60481029Y-151734762D02*
X58957029Y-151734762D01*
X59900457Y-151613810D02*
X60481029Y-151250953D01*
X59465029Y-151250953D02*
X60045600Y-151734762D01*
X59465029Y-150706667D02*
X60989029Y-150706667D01*
X59537600Y-150706667D02*
X59465029Y-150585715D01*
X59465029Y-150343810D01*
X59537600Y-150222858D01*
X59610171Y-150162381D01*
X59755314Y-150101905D01*
X60190743Y-150101905D01*
X60335886Y-150162381D01*
X60408457Y-150222858D01*
X60481029Y-150343810D01*
X60481029Y-150585715D01*
X60408457Y-150706667D01*
X60481029Y-149376190D02*
X60408457Y-149497143D01*
X60263314Y-149557619D01*
X58957029Y-149557619D01*
X60481029Y-148348095D02*
X59682743Y-148348095D01*
X59537600Y-148408572D01*
X59465029Y-148529524D01*
X59465029Y-148771429D01*
X59537600Y-148892381D01*
X60408457Y-148348095D02*
X60481029Y-148469048D01*
X60481029Y-148771429D01*
X60408457Y-148892381D01*
X60263314Y-148952857D01*
X60118171Y-148952857D01*
X59973029Y-148892381D01*
X59900457Y-148771429D01*
X59900457Y-148469048D01*
X59827886Y-148348095D01*
X59465029Y-147743333D02*
X60481029Y-147743333D01*
X59610171Y-147743333D02*
X59537600Y-147682857D01*
X59465029Y-147561904D01*
X59465029Y-147380476D01*
X59537600Y-147259524D01*
X59682743Y-147199047D01*
X60481029Y-147199047D01*
X60408457Y-146110476D02*
X60481029Y-146231428D01*
X60481029Y-146473333D01*
X60408457Y-146594285D01*
X60263314Y-146654761D01*
X59682743Y-146654761D01*
X59537600Y-146594285D01*
X59465029Y-146473333D01*
X59465029Y-146231428D01*
X59537600Y-146110476D01*
X59682743Y-146049999D01*
X59827886Y-146049999D01*
X59973029Y-146654761D01*
X59900457Y-144538095D02*
X59900457Y-143570476D01*
X58957029Y-142179524D02*
X60481029Y-141756190D01*
X58957029Y-141332857D01*
X60408457Y-140425715D02*
X60481029Y-140546667D01*
X60481029Y-140788572D01*
X60408457Y-140909524D01*
X60263314Y-140970000D01*
X59682743Y-140970000D01*
X59537600Y-140909524D01*
X59465029Y-140788572D01*
X59465029Y-140546667D01*
X59537600Y-140425715D01*
X59682743Y-140365238D01*
X59827886Y-140365238D01*
X59973029Y-140970000D01*
X60481029Y-139820953D02*
X59465029Y-139820953D01*
X59755314Y-139820953D02*
X59610171Y-139760477D01*
X59537600Y-139700001D01*
X59465029Y-139579048D01*
X59465029Y-139458096D01*
X60408457Y-139095239D02*
X60481029Y-138974287D01*
X60481029Y-138732382D01*
X60408457Y-138611430D01*
X60263314Y-138550954D01*
X60190743Y-138550954D01*
X60045600Y-138611430D01*
X59973029Y-138732382D01*
X59973029Y-138913811D01*
X59900457Y-139034763D01*
X59755314Y-139095239D01*
X59682743Y-139095239D01*
X59537600Y-139034763D01*
X59465029Y-138913811D01*
X59465029Y-138732382D01*
X59537600Y-138611430D01*
X60481029Y-138006668D02*
X59465029Y-138006668D01*
X58957029Y-138006668D02*
X59029600Y-138067144D01*
X59102171Y-138006668D01*
X59029600Y-137946192D01*
X58957029Y-138006668D01*
X59102171Y-138006668D01*
X60481029Y-137220477D02*
X60408457Y-137341430D01*
X60335886Y-137401906D01*
X60190743Y-137462382D01*
X59755314Y-137462382D01*
X59610171Y-137401906D01*
X59537600Y-137341430D01*
X59465029Y-137220477D01*
X59465029Y-137039049D01*
X59537600Y-136918097D01*
X59610171Y-136857620D01*
X59755314Y-136797144D01*
X60190743Y-136797144D01*
X60335886Y-136857620D01*
X60408457Y-136918097D01*
X60481029Y-137039049D01*
X60481029Y-137220477D01*
X59465029Y-136252858D02*
X60481029Y-136252858D01*
X59610171Y-136252858D02*
X59537600Y-136192382D01*
X59465029Y-136071429D01*
X59465029Y-135890001D01*
X59537600Y-135769049D01*
X59682743Y-135708572D01*
X60481029Y-135708572D01*
X60481029Y-133470953D02*
X60481029Y-134196667D01*
X60481029Y-133833810D02*
X58957029Y-133833810D01*
X59174743Y-133954762D01*
X59319886Y-134075715D01*
X59392457Y-134196667D01*
X60335886Y-132926667D02*
X60408457Y-132866191D01*
X60481029Y-132926667D01*
X60408457Y-132987143D01*
X60335886Y-132926667D01*
X60481029Y-132926667D01*
X58957029Y-132080000D02*
X58957029Y-131959048D01*
X59029600Y-131838096D01*
X59102171Y-131777619D01*
X59247314Y-131717143D01*
X59537600Y-131656667D01*
X59900457Y-131656667D01*
X60190743Y-131717143D01*
X60335886Y-131777619D01*
X60408457Y-131838096D01*
X60481029Y-131959048D01*
X60481029Y-132080000D01*
X60408457Y-132200953D01*
X60335886Y-132261429D01*
X60190743Y-132321905D01*
X59900457Y-132382381D01*
X59537600Y-132382381D01*
X59247314Y-132321905D01*
X59102171Y-132261429D01*
X59029600Y-132200953D01*
X58957029Y-132080000D01*
X62672686Y-164374286D02*
X62745257Y-164434762D01*
X62817829Y-164616191D01*
X62817829Y-164737143D01*
X62745257Y-164918571D01*
X62600114Y-165039524D01*
X62454971Y-165100000D01*
X62164686Y-165160476D01*
X61946971Y-165160476D01*
X61656686Y-165100000D01*
X61511543Y-165039524D01*
X61366400Y-164918571D01*
X61293829Y-164737143D01*
X61293829Y-164616191D01*
X61366400Y-164434762D01*
X61438971Y-164374286D01*
X62817829Y-163648571D02*
X62745257Y-163769524D01*
X62672686Y-163830000D01*
X62527543Y-163890476D01*
X62092114Y-163890476D01*
X61946971Y-163830000D01*
X61874400Y-163769524D01*
X61801829Y-163648571D01*
X61801829Y-163467143D01*
X61874400Y-163346191D01*
X61946971Y-163285714D01*
X62092114Y-163225238D01*
X62527543Y-163225238D01*
X62672686Y-163285714D01*
X62745257Y-163346191D01*
X62817829Y-163467143D01*
X62817829Y-163648571D01*
X61801829Y-162680952D02*
X63325829Y-162680952D01*
X61874400Y-162680952D02*
X61801829Y-162560000D01*
X61801829Y-162318095D01*
X61874400Y-162197143D01*
X61946971Y-162136666D01*
X62092114Y-162076190D01*
X62527543Y-162076190D01*
X62672686Y-162136666D01*
X62745257Y-162197143D01*
X62817829Y-162318095D01*
X62817829Y-162560000D01*
X62745257Y-162680952D01*
X61801829Y-161652856D02*
X62817829Y-161350475D01*
X61801829Y-161048095D02*
X62817829Y-161350475D01*
X63180686Y-161471428D01*
X63253257Y-161531904D01*
X63325829Y-161652856D01*
X62817829Y-160564285D02*
X61801829Y-160564285D01*
X62092114Y-160564285D02*
X61946971Y-160503809D01*
X61874400Y-160443333D01*
X61801829Y-160322380D01*
X61801829Y-160201428D01*
X62817829Y-159778095D02*
X61801829Y-159778095D01*
X61293829Y-159778095D02*
X61366400Y-159838571D01*
X61438971Y-159778095D01*
X61366400Y-159717619D01*
X61293829Y-159778095D01*
X61438971Y-159778095D01*
X61801829Y-158629047D02*
X63035543Y-158629047D01*
X63180686Y-158689524D01*
X63253257Y-158750000D01*
X63325829Y-158870952D01*
X63325829Y-159052381D01*
X63253257Y-159173333D01*
X62745257Y-158629047D02*
X62817829Y-158750000D01*
X62817829Y-158991904D01*
X62745257Y-159112857D01*
X62672686Y-159173333D01*
X62527543Y-159233809D01*
X62092114Y-159233809D01*
X61946971Y-159173333D01*
X61874400Y-159112857D01*
X61801829Y-158991904D01*
X61801829Y-158750000D01*
X61874400Y-158629047D01*
X62817829Y-158024285D02*
X61293829Y-158024285D01*
X62817829Y-157479999D02*
X62019543Y-157479999D01*
X61874400Y-157540476D01*
X61801829Y-157661428D01*
X61801829Y-157842856D01*
X61874400Y-157963809D01*
X61946971Y-158024285D01*
X61801829Y-157056666D02*
X61801829Y-156572856D01*
X61293829Y-156875237D02*
X62600114Y-156875237D01*
X62745257Y-156814761D01*
X62817829Y-156693808D01*
X62817829Y-156572856D01*
X63398400Y-154819047D02*
X63325829Y-154879523D01*
X63108114Y-155000475D01*
X62962971Y-155060952D01*
X62745257Y-155121428D01*
X62382400Y-155181904D01*
X62092114Y-155181904D01*
X61729257Y-155121428D01*
X61511543Y-155060952D01*
X61366400Y-155000475D01*
X61148686Y-154879523D01*
X61076114Y-154819047D01*
X62672686Y-153609523D02*
X62745257Y-153669999D01*
X62817829Y-153851428D01*
X62817829Y-153972380D01*
X62745257Y-154153808D01*
X62600114Y-154274761D01*
X62454971Y-154335237D01*
X62164686Y-154395713D01*
X61946971Y-154395713D01*
X61656686Y-154335237D01*
X61511543Y-154274761D01*
X61366400Y-154153808D01*
X61293829Y-153972380D01*
X61293829Y-153851428D01*
X61366400Y-153669999D01*
X61438971Y-153609523D01*
X63398400Y-153186189D02*
X63325829Y-153125713D01*
X63108114Y-153004761D01*
X62962971Y-152944285D01*
X62745257Y-152883808D01*
X62382400Y-152823332D01*
X62092114Y-152823332D01*
X61729257Y-152883808D01*
X61511543Y-152944285D01*
X61366400Y-153004761D01*
X61148686Y-153125713D01*
X61076114Y-153186189D01*
X61438971Y-151311427D02*
X61366400Y-151250951D01*
X61293829Y-151129999D01*
X61293829Y-150827618D01*
X61366400Y-150706665D01*
X61438971Y-150646189D01*
X61584114Y-150585713D01*
X61729257Y-150585713D01*
X61946971Y-150646189D01*
X62817829Y-151371903D01*
X62817829Y-150585713D01*
X61293829Y-149799522D02*
X61293829Y-149678570D01*
X61366400Y-149557618D01*
X61438971Y-149497141D01*
X61584114Y-149436665D01*
X61874400Y-149376189D01*
X62237257Y-149376189D01*
X62527543Y-149436665D01*
X62672686Y-149497141D01*
X62745257Y-149557618D01*
X62817829Y-149678570D01*
X62817829Y-149799522D01*
X62745257Y-149920475D01*
X62672686Y-149980951D01*
X62527543Y-150041427D01*
X62237257Y-150101903D01*
X61874400Y-150101903D01*
X61584114Y-150041427D01*
X61438971Y-149980951D01*
X61366400Y-149920475D01*
X61293829Y-149799522D01*
X62817829Y-148166665D02*
X62817829Y-148892379D01*
X62817829Y-148529522D02*
X61293829Y-148529522D01*
X61511543Y-148650474D01*
X61656686Y-148771427D01*
X61729257Y-148892379D01*
X61293829Y-147743331D02*
X61293829Y-146896665D01*
X62817829Y-147440950D01*
X62745257Y-145505712D02*
X62817829Y-145324284D01*
X62817829Y-145021903D01*
X62745257Y-144900950D01*
X62672686Y-144840474D01*
X62527543Y-144779998D01*
X62382400Y-144779998D01*
X62237257Y-144840474D01*
X62164686Y-144900950D01*
X62092114Y-145021903D01*
X62019543Y-145263807D01*
X61946971Y-145384760D01*
X61874400Y-145445236D01*
X61729257Y-145505712D01*
X61584114Y-145505712D01*
X61438971Y-145445236D01*
X61366400Y-145384760D01*
X61293829Y-145263807D01*
X61293829Y-144961427D01*
X61366400Y-144779998D01*
X62745257Y-143751903D02*
X62817829Y-143872855D01*
X62817829Y-144114760D01*
X62745257Y-144235712D01*
X62600114Y-144296188D01*
X62019543Y-144296188D01*
X61874400Y-144235712D01*
X61801829Y-144114760D01*
X61801829Y-143872855D01*
X61874400Y-143751903D01*
X62019543Y-143691426D01*
X62164686Y-143691426D01*
X62309829Y-144296188D01*
X62817829Y-143147141D02*
X61801829Y-143147141D01*
X62092114Y-143147141D02*
X61946971Y-143086665D01*
X61874400Y-143026189D01*
X61801829Y-142905236D01*
X61801829Y-142784284D01*
X61801829Y-141816665D02*
X63035543Y-141816665D01*
X63180686Y-141877142D01*
X63253257Y-141937618D01*
X63325829Y-142058570D01*
X63325829Y-142239999D01*
X63253257Y-142360951D01*
X62745257Y-141816665D02*
X62817829Y-141937618D01*
X62817829Y-142179522D01*
X62745257Y-142300475D01*
X62672686Y-142360951D01*
X62527543Y-142421427D01*
X62092114Y-142421427D01*
X61946971Y-142360951D01*
X61874400Y-142300475D01*
X61801829Y-142179522D01*
X61801829Y-141937618D01*
X61874400Y-141816665D01*
X62745257Y-140728094D02*
X62817829Y-140849046D01*
X62817829Y-141090951D01*
X62745257Y-141211903D01*
X62600114Y-141272379D01*
X62019543Y-141272379D01*
X61874400Y-141211903D01*
X61801829Y-141090951D01*
X61801829Y-140849046D01*
X61874400Y-140728094D01*
X62019543Y-140667617D01*
X62164686Y-140667617D01*
X62309829Y-141272379D01*
X61801829Y-140244284D02*
X62817829Y-139941903D01*
X61801829Y-139639523D02*
X62817829Y-139941903D01*
X63180686Y-140062856D01*
X63253257Y-140123332D01*
X63325829Y-140244284D01*
X62817829Y-138188094D02*
X61293829Y-138188094D01*
X62817829Y-137462380D02*
X61946971Y-138006665D01*
X61293829Y-137462380D02*
X62164686Y-138188094D01*
X62817829Y-136918094D02*
X61801829Y-136918094D01*
X61293829Y-136918094D02*
X61366400Y-136978570D01*
X61438971Y-136918094D01*
X61366400Y-136857618D01*
X61293829Y-136918094D01*
X61438971Y-136918094D01*
X62745257Y-136373808D02*
X62817829Y-136252856D01*
X62817829Y-136010951D01*
X62745257Y-135889999D01*
X62600114Y-135829523D01*
X62527543Y-135829523D01*
X62382400Y-135889999D01*
X62309829Y-136010951D01*
X62309829Y-136192380D01*
X62237257Y-136313332D01*
X62092114Y-136373808D01*
X62019543Y-136373808D01*
X61874400Y-136313332D01*
X61801829Y-136192380D01*
X61801829Y-136010951D01*
X61874400Y-135889999D01*
X62745257Y-134801428D02*
X62817829Y-134922380D01*
X62817829Y-135164285D01*
X62745257Y-135285237D01*
X62600114Y-135345713D01*
X62019543Y-135345713D01*
X61874400Y-135285237D01*
X61801829Y-135164285D01*
X61801829Y-134922380D01*
X61874400Y-134801428D01*
X62019543Y-134740951D01*
X62164686Y-134740951D01*
X62309829Y-135345713D01*
X62817829Y-134015237D02*
X62745257Y-134136190D01*
X62600114Y-134196666D01*
X61293829Y-134196666D01*
X62745257Y-133047619D02*
X62817829Y-133168571D01*
X62817829Y-133410476D01*
X62745257Y-133531428D01*
X62600114Y-133591904D01*
X62019543Y-133591904D01*
X61874400Y-133531428D01*
X61801829Y-133410476D01*
X61801829Y-133168571D01*
X61874400Y-133047619D01*
X62019543Y-132987142D01*
X62164686Y-132987142D01*
X62309829Y-133591904D01*
X61801829Y-132563809D02*
X62817829Y-132261428D01*
X61801829Y-131959048D01*
D13*
X55880000Y-106680000D02*
X57150000Y-105410000D01*
X55245000Y-108585000D02*
X56515000Y-107315000D01*
X55245000Y-106680000D02*
X56515000Y-106680000D01*
X55880000Y-107315000D02*
X57150000Y-107315000D01*
X54610000Y-108585000D02*
X55880000Y-108585000D01*
X57150000Y-109855000D02*
X57150000Y-111125000D01*
X55880000Y-108585000D02*
X57150000Y-109855000D01*
X57150000Y-107315000D02*
X55880000Y-108585000D01*
X56515000Y-106680000D02*
X57150000Y-107315000D01*
X57150000Y-106045000D02*
X56515000Y-106680000D01*
X57150000Y-104775000D02*
X57150000Y-106045000D01*
X55245000Y-106680000D02*
X57150000Y-104775000D01*
X55880000Y-107315000D02*
X55245000Y-106680000D01*
X54610000Y-108585000D02*
X55880000Y-107315000D01*
X57150000Y-111125000D02*
X54610000Y-108585000D01*
X114300000Y-68326000D02*
G75*
G03X115316000Y-67310000I0J1016000D01*
G01*
X115316000Y-67310000D02*
G75*
G03X114300000Y-66294000I-1016000J0D01*
G01*
X134620000Y-64770000D02*
X114300000Y-64770000D01*
X114300000Y-64770000D02*
X114300000Y-69850000D01*
X114300000Y-69850000D02*
X134620000Y-69850000D01*
X134620000Y-69850000D02*
X134620000Y-64770000D01*
X71628000Y-72898000D02*
X156972000Y-72898000D01*
X156972000Y-72898000D02*
X156972000Y-82042000D01*
X156972000Y-82042000D02*
X71628000Y-82042000D01*
X71628000Y-82042000D02*
X71628000Y-72898000D01*
X71628000Y-93218000D02*
X156972000Y-93218000D01*
X156972000Y-93218000D02*
X156972000Y-102362000D01*
X156972000Y-102362000D02*
X71628000Y-102362000D01*
X71628000Y-102362000D02*
X71628000Y-93218000D01*
X71628000Y-113538000D02*
X156972000Y-113538000D01*
X156972000Y-113538000D02*
X156972000Y-122682000D01*
X156972000Y-122682000D02*
X71628000Y-122682000D01*
X71628000Y-122682000D02*
X71628000Y-113538000D01*
X71628000Y-133858000D02*
X156972000Y-133858000D01*
X156972000Y-133858000D02*
X156972000Y-143002000D01*
X156972000Y-143002000D02*
X71628000Y-143002000D01*
X71628000Y-143002000D02*
X71628000Y-133858000D01*
X71628000Y-154178000D02*
X156972000Y-154178000D01*
X156972000Y-154178000D02*
X156972000Y-163322000D01*
X156972000Y-163322000D02*
X71628000Y-163322000D01*
X71628000Y-163322000D02*
X71628000Y-154178000D01*
X71628000Y-174498000D02*
X156972000Y-174498000D01*
X156972000Y-174498000D02*
X156972000Y-183642000D01*
X156972000Y-183642000D02*
X71628000Y-183642000D01*
X71628000Y-183642000D02*
X71628000Y-174498000D01*
X78950820Y-68580000D02*
G75*
G03X78950820Y-68580000I-2750820J0D01*
G01*
X152610820Y-87312500D02*
G75*
G03X152610820Y-87312500I-2750820J0D01*
G01*
X86570820Y-107950000D02*
G75*
G03X86570820Y-107950000I-2750820J0D01*
G01*
X152610820Y-107950000D02*
G75*
G03X152610820Y-107950000I-2750820J0D01*
G01*
X86570820Y-148590000D02*
G75*
G03X86570820Y-148590000I-2750820J0D01*
G01*
X152610820Y-148590000D02*
G75*
G03X152610820Y-148590000I-2750820J0D01*
G01*
X84030820Y-186690000D02*
G75*
G03X84030820Y-186690000I-2750820J0D01*
G01*
X152610820Y-186690000D02*
G75*
G03X152610820Y-186690000I-2750820J0D01*
G01*
X101810820Y-87630000D02*
G75*
G03X101810820Y-87630000I-2750820J0D01*
G01*
X101810820Y-128270000D02*
G75*
G03X101810820Y-128270000I-2750820J0D01*
G01*
X101810820Y-168910000D02*
G75*
G03X101810820Y-168910000I-2750820J0D01*
G01*
X94190820Y-107950000D02*
G75*
G03X94190820Y-107950000I-2750820J0D01*
G01*
X94190820Y-148590000D02*
G75*
G03X94190820Y-148590000I-2750820J0D01*
G01*
X86570820Y-87630000D02*
G75*
G03X86570820Y-87630000I-2750820J0D01*
G01*
X86570820Y-128270000D02*
G75*
G03X86570820Y-128270000I-2750820J0D01*
G01*
X86570820Y-168910000D02*
G75*
G03X86570820Y-168910000I-2750820J0D01*
G01*
X109430820Y-68580000D02*
G75*
G03X109430820Y-68580000I-2750820J0D01*
G01*
X94190820Y-68580000D02*
G75*
G03X94190820Y-68580000I-2750820J0D01*
G01*
X101810820Y-68580000D02*
G75*
G03X101810820Y-68580000I-2750820J0D01*
G01*
X154381200Y-54610000D02*
X154381200Y-57150000D01*
D14*
X157126864Y-56855527D02*
G75*
G03X157480000Y-55880000I-1170864J975527D01*
G01*
X157478111Y-55879531D02*
G75*
G03X157093920Y-54869080I-1522111J-469D01*
G01*
X154433853Y-55880034D02*
G75*
G03X154800300Y-56870600I1522147J34D01*
G01*
X154785136Y-54904473D02*
G75*
G03X154432000Y-55880000I1170864J-975527D01*
G01*
X154716834Y-56767155D02*
G75*
G03X155956000Y-57404000I1239166J887155D01*
G01*
X155956801Y-57404000D02*
G75*
G03X157175200Y-56794400I-801J1524000D01*
G01*
X155955558Y-54357794D02*
G75*
G03X154754580Y-54945280I442J-1522206D01*
G01*
X157158564Y-54943829D02*
G75*
G03X155956000Y-54356000I-1202564J-936171D01*
G01*
X155956000Y-56515000D02*
G75*
G03X156591000Y-55880000I0J635000D01*
G01*
X155956000Y-56896000D02*
G75*
G03X156972000Y-55880000I0J1016000D01*
G01*
X155956000Y-55245000D02*
G75*
G03X155321000Y-55880000I0J-635000D01*
G01*
X155956000Y-54864000D02*
G75*
G03X154940000Y-55880000I0J-1016000D01*
G01*
D13*
X154397120Y-57183426D02*
G75*
G03X155956000Y-57912000I1558880J1303426D01*
G01*
X155956975Y-57909460D02*
G75*
G03X157746700Y-56835040I-975J2029460D01*
G01*
X155953448Y-53850614D02*
G75*
G03X154406600Y-54569360I2552J-2029386D01*
G01*
X157719299Y-54870149D02*
G75*
G03X155956000Y-53848000I-1763299J-1009851D01*
G01*
X157745130Y-56843347D02*
G75*
G03X157988000Y-55880000I-1789130J963347D01*
G01*
X157986923Y-55879900D02*
G75*
G03X157685740Y-54815740I-2030923J-100D01*
G01*
X160731200Y-54610000D02*
X160731200Y-57150000D01*
D14*
X163476864Y-56855527D02*
G75*
G03X163830000Y-55880000I-1170864J975527D01*
G01*
X163828111Y-55879531D02*
G75*
G03X163443920Y-54869080I-1522111J-469D01*
G01*
X160783853Y-55880034D02*
G75*
G03X161150300Y-56870600I1522147J34D01*
G01*
X161135136Y-54904473D02*
G75*
G03X160782000Y-55880000I1170864J-975527D01*
G01*
X161066834Y-56767155D02*
G75*
G03X162306000Y-57404000I1239166J887155D01*
G01*
X162306801Y-57404000D02*
G75*
G03X163525200Y-56794400I-801J1524000D01*
G01*
X162305558Y-54357794D02*
G75*
G03X161104580Y-54945280I442J-1522206D01*
G01*
X163508564Y-54943829D02*
G75*
G03X162306000Y-54356000I-1202564J-936171D01*
G01*
X162306000Y-56515000D02*
G75*
G03X162941000Y-55880000I0J635000D01*
G01*
X162306000Y-56896000D02*
G75*
G03X163322000Y-55880000I0J1016000D01*
G01*
X162306000Y-55245000D02*
G75*
G03X161671000Y-55880000I0J-635000D01*
G01*
X162306000Y-54864000D02*
G75*
G03X161290000Y-55880000I0J-1016000D01*
G01*
D13*
X160747120Y-57183426D02*
G75*
G03X162306000Y-57912000I1558880J1303426D01*
G01*
X162306975Y-57909460D02*
G75*
G03X164096700Y-56835040I-975J2029460D01*
G01*
X162303448Y-53850614D02*
G75*
G03X160756600Y-54569360I2552J-2029386D01*
G01*
X164069299Y-54870149D02*
G75*
G03X162306000Y-53848000I-1763299J-1009851D01*
G01*
X164095130Y-56843347D02*
G75*
G03X164338000Y-55880000I-1789130J963347D01*
G01*
X164336923Y-55879900D02*
G75*
G03X164035740Y-54815740I-2030923J-100D01*
G01*
X138684000Y-68326000D02*
X140716000Y-68326000D01*
X138684000Y-68580000D02*
X140716000Y-68580000D01*
X138684000Y-69088000D02*
G75*
G03X138938000Y-69342000I254000J0D01*
G01*
X140462000Y-69342000D02*
G75*
G03X140716000Y-69088000I0J254000D01*
G01*
X138938000Y-65278000D02*
G75*
G03X138684000Y-65532000I0J-254000D01*
G01*
X140716000Y-65532000D02*
G75*
G03X140462000Y-65278000I-254000J0D01*
G01*
X140462000Y-69342000D02*
X138938000Y-69342000D01*
X138938000Y-65278000D02*
X140462000Y-65278000D01*
X140716000Y-65532000D02*
X140716000Y-69088000D01*
X138684000Y-69088000D02*
X138684000Y-65532000D01*
X139700000Y-69342000D02*
X139700000Y-71120000D01*
X139700000Y-63754000D02*
X139700000Y-65278000D01*
X141224000Y-68326000D02*
X143256000Y-68326000D01*
X141224000Y-68580000D02*
X143256000Y-68580000D01*
X141224000Y-69088000D02*
G75*
G03X141478000Y-69342000I254000J0D01*
G01*
X143002000Y-69342000D02*
G75*
G03X143256000Y-69088000I0J254000D01*
G01*
X141478000Y-65278000D02*
G75*
G03X141224000Y-65532000I0J-254000D01*
G01*
X143256000Y-65532000D02*
G75*
G03X143002000Y-65278000I-254000J0D01*
G01*
X143002000Y-69342000D02*
X141478000Y-69342000D01*
X141478000Y-65278000D02*
X143002000Y-65278000D01*
X143256000Y-65532000D02*
X143256000Y-69088000D01*
X141224000Y-69088000D02*
X141224000Y-65532000D01*
X142240000Y-69342000D02*
X142240000Y-71120000D01*
X142240000Y-63754000D02*
X142240000Y-65278000D01*
X63799806Y-171450000D02*
G75*
G03X63799806Y-171450000I-2839806J0D01*
G01*
X63799806Y-125730000D02*
G75*
G03X63799806Y-125730000I-2839806J0D01*
G01*
X165399806Y-64770000D02*
G75*
G03X165399806Y-64770000I-2839806J0D01*
G01*
X165399806Y-191770000D02*
G75*
G03X165399806Y-191770000I-2839806J0D01*
G01*
X165399806Y-171450000D02*
G75*
G03X165399806Y-171450000I-2839806J0D01*
G01*
X165399806Y-125730000D02*
G75*
G03X165399806Y-125730000I-2839806J0D01*
G01*
X63799806Y-191770000D02*
G75*
G03X63799806Y-191770000I-2839806J0D01*
G01*
X63799806Y-64770000D02*
G75*
G03X63799806Y-64770000I-2839806J0D01*
G01*
X163830000Y-85090000D02*
X161290000Y-85090000D01*
X163830000Y-87630000D02*
X161290000Y-87630000D01*
X161290000Y-87630000D02*
X161290000Y-85090000D01*
X161925000Y-85090000D02*
X161290000Y-84455000D01*
X161290000Y-84455000D02*
X161290000Y-83185000D01*
X161290000Y-83185000D02*
X161925000Y-82550000D01*
X161925000Y-82550000D02*
X163195000Y-82550000D01*
X163195000Y-82550000D02*
X163830000Y-83185000D01*
X163830000Y-83185000D02*
X163830000Y-84455000D01*
X163830000Y-84455000D02*
X163195000Y-85090000D01*
X163830000Y-85090000D02*
X163830000Y-87630000D01*
X108361480Y-59550300D02*
G75*
G03X107960160Y-59148980I-401320J0D01*
G01*
X107960160Y-59949080D02*
G75*
G03X108358940Y-59550300I0J398780D01*
G01*
X88160860Y-52349400D02*
X88160860Y-51351180D01*
X88160860Y-51351180D02*
X84559140Y-51351180D01*
X84559140Y-51351180D02*
X84559140Y-52349400D01*
X64759840Y-61950600D02*
X107960160Y-61950600D01*
X107960160Y-52349400D02*
X64759840Y-52349400D01*
X107960160Y-52349400D02*
X107960160Y-61950600D01*
X64759840Y-52349400D02*
X64759840Y-61950600D01*
X148336000Y-64770000D02*
X148336000Y-69850000D01*
X146558000Y-64516000D02*
X148082000Y-64516000D01*
X146304000Y-69850000D02*
X146304000Y-64770000D01*
X148082000Y-70104000D02*
X146558000Y-70104000D01*
X148336000Y-64770000D02*
G75*
G03X148082000Y-64516000I-254000J0D01*
G01*
X146558000Y-64516000D02*
G75*
G03X146304000Y-64770000I0J-254000D01*
G01*
X148082000Y-70104000D02*
G75*
G03X148336000Y-69850000I0J254000D01*
G01*
X146304000Y-69850000D02*
G75*
G03X146558000Y-70104000I254000J0D01*
G01*
X147320000Y-64516000D02*
X147320000Y-63500000D01*
X147320000Y-71120000D02*
X147320000Y-70104000D01*
X145796000Y-64770000D02*
X145796000Y-69850000D01*
X144018000Y-64516000D02*
X145542000Y-64516000D01*
X143764000Y-69850000D02*
X143764000Y-64770000D01*
X145542000Y-70104000D02*
X144018000Y-70104000D01*
X145796000Y-64770000D02*
G75*
G03X145542000Y-64516000I-254000J0D01*
G01*
X144018000Y-64516000D02*
G75*
G03X143764000Y-64770000I0J-254000D01*
G01*
X145542000Y-70104000D02*
G75*
G03X145796000Y-69850000I0J254000D01*
G01*
X143764000Y-69850000D02*
G75*
G03X144018000Y-70104000I254000J0D01*
G01*
X144780000Y-64516000D02*
X144780000Y-63500000D01*
X144780000Y-71120000D02*
X144780000Y-70104000D01*
X138176000Y-64770000D02*
X138176000Y-69850000D01*
X136398000Y-64516000D02*
X137922000Y-64516000D01*
X136144000Y-69850000D02*
X136144000Y-64770000D01*
X137922000Y-70104000D02*
X136398000Y-70104000D01*
X138176000Y-64770000D02*
G75*
G03X137922000Y-64516000I-254000J0D01*
G01*
X136398000Y-64516000D02*
G75*
G03X136144000Y-64770000I0J-254000D01*
G01*
X137922000Y-70104000D02*
G75*
G03X138176000Y-69850000I0J254000D01*
G01*
X136144000Y-69850000D02*
G75*
G03X136398000Y-70104000I254000J0D01*
G01*
X137160000Y-64516000D02*
X137160000Y-63500000D01*
X137160000Y-71120000D02*
X137160000Y-70104000D01*
X150876000Y-64770000D02*
X150876000Y-69850000D01*
X149098000Y-64516000D02*
X150622000Y-64516000D01*
X148844000Y-69850000D02*
X148844000Y-64770000D01*
X150622000Y-70104000D02*
X149098000Y-70104000D01*
X150876000Y-64770000D02*
G75*
G03X150622000Y-64516000I-254000J0D01*
G01*
X149098000Y-64516000D02*
G75*
G03X148844000Y-64770000I0J-254000D01*
G01*
X150622000Y-70104000D02*
G75*
G03X150876000Y-69850000I0J254000D01*
G01*
X148844000Y-69850000D02*
G75*
G03X149098000Y-70104000I254000J0D01*
G01*
X149860000Y-64516000D02*
X149860000Y-63500000D01*
X149860000Y-71120000D02*
X149860000Y-70104000D01*
X136144000Y-59690000D02*
X136144000Y-54610000D01*
X137922000Y-59944000D02*
X136398000Y-59944000D01*
X138176000Y-54610000D02*
X138176000Y-59690000D01*
X136398000Y-54356000D02*
X137922000Y-54356000D01*
X136144000Y-59690000D02*
G75*
G03X136398000Y-59944000I254000J0D01*
G01*
X137922000Y-59944000D02*
G75*
G03X138176000Y-59690000I0J254000D01*
G01*
X136398000Y-54356000D02*
G75*
G03X136144000Y-54610000I0J-254000D01*
G01*
X138176000Y-54610000D02*
G75*
G03X137922000Y-54356000I-254000J0D01*
G01*
X137160000Y-59944000D02*
X137160000Y-60960000D01*
X137160000Y-53340000D02*
X137160000Y-54356000D01*
X138684000Y-59690000D02*
X138684000Y-54610000D01*
X140462000Y-59944000D02*
X138938000Y-59944000D01*
X140716000Y-54610000D02*
X140716000Y-59690000D01*
X138938000Y-54356000D02*
X140462000Y-54356000D01*
X138684000Y-59690000D02*
G75*
G03X138938000Y-59944000I254000J0D01*
G01*
X140462000Y-59944000D02*
G75*
G03X140716000Y-59690000I0J254000D01*
G01*
X138938000Y-54356000D02*
G75*
G03X138684000Y-54610000I0J-254000D01*
G01*
X140716000Y-54610000D02*
G75*
G03X140462000Y-54356000I-254000J0D01*
G01*
X139700000Y-59944000D02*
X139700000Y-60960000D01*
X139700000Y-53340000D02*
X139700000Y-54356000D01*
X151384000Y-69850000D02*
X151384000Y-64770000D01*
X153162000Y-70104000D02*
X151638000Y-70104000D01*
X153416000Y-64770000D02*
X153416000Y-69850000D01*
X151638000Y-64516000D02*
X153162000Y-64516000D01*
X151384000Y-69850000D02*
G75*
G03X151638000Y-70104000I254000J0D01*
G01*
X153162000Y-70104000D02*
G75*
G03X153416000Y-69850000I0J254000D01*
G01*
X151638000Y-64516000D02*
G75*
G03X151384000Y-64770000I0J-254000D01*
G01*
X153416000Y-64770000D02*
G75*
G03X153162000Y-64516000I-254000J0D01*
G01*
X152400000Y-70104000D02*
X152400000Y-71120000D01*
X152400000Y-63500000D02*
X152400000Y-64516000D01*
X130810000Y-193040000D02*
X130810000Y-190500000D01*
X130810000Y-190500000D02*
X156210000Y-190500000D01*
X156210000Y-190500000D02*
X156210000Y-193040000D01*
X156210000Y-193040000D02*
X130810000Y-193040000D01*
X133350000Y-193040000D02*
X133350000Y-190500000D01*
X110490000Y-187960000D02*
X110490000Y-185420000D01*
X110490000Y-185420000D02*
X135890000Y-185420000D01*
X135890000Y-185420000D02*
X135890000Y-187960000D01*
X135890000Y-187960000D02*
X110490000Y-187960000D01*
X113030000Y-187960000D02*
X113030000Y-185420000D01*
X72390000Y-193040000D02*
X72390000Y-190500000D01*
X72390000Y-190500000D02*
X97790000Y-190500000D01*
X97790000Y-190500000D02*
X97790000Y-193040000D01*
X97790000Y-193040000D02*
X72390000Y-193040000D01*
X74930000Y-193040000D02*
X74930000Y-190500000D01*
X145590260Y-58630820D02*
X145590260Y-53129180D01*
X151340820Y-58879740D02*
X145839180Y-58879740D01*
X151589740Y-53129180D02*
X151589740Y-58630820D01*
X145839180Y-52880260D02*
X151340820Y-52880260D01*
X151340820Y-58879740D02*
G75*
G03X151589740Y-58630820I0J248920D01*
G01*
X145590260Y-58630820D02*
G75*
G03X145839180Y-58879740I248920J0D01*
G01*
X151589740Y-53129180D02*
G75*
G03X151340820Y-52880260I-248920J0D01*
G01*
X145839180Y-52880260D02*
G75*
G03X145590260Y-53129180I0J-248920D01*
G01*
X150340060Y-55880000D02*
G75*
G03X150340060Y-55880000I-1750060J0D01*
G01*
X71628000Y-194818000D02*
X156972000Y-194818000D01*
X156972000Y-194818000D02*
X156972000Y-203962000D01*
X156972000Y-203962000D02*
X71628000Y-203962000D01*
X71628000Y-203962000D02*
X71628000Y-194818000D01*
X163830000Y-90170000D02*
X161290000Y-90170000D01*
X163830000Y-92710000D02*
X161290000Y-92710000D01*
X161290000Y-92710000D02*
X161290000Y-90170000D01*
X161925000Y-90170000D02*
X161290000Y-89535000D01*
X161290000Y-89535000D02*
X161290000Y-88265000D01*
X161290000Y-88265000D02*
X161925000Y-87630000D01*
X161925000Y-87630000D02*
X163195000Y-87630000D01*
X163195000Y-87630000D02*
X163830000Y-88265000D01*
X163830000Y-88265000D02*
X163830000Y-89535000D01*
X163830000Y-89535000D02*
X163195000Y-90170000D01*
X163830000Y-90170000D02*
X163830000Y-92710000D01*
X100330000Y-193040000D02*
X100330000Y-190500000D01*
X100330000Y-190500000D02*
X115570000Y-190500000D01*
X115570000Y-190500000D02*
X115570000Y-193040000D01*
X115570000Y-193040000D02*
X100330000Y-193040000D01*
X102870000Y-193040000D02*
X102870000Y-190500000D01*
X92710000Y-187960000D02*
X92710000Y-185420000D01*
X92710000Y-185420000D02*
X107950000Y-185420000D01*
X107950000Y-185420000D02*
X107950000Y-187960000D01*
X107950000Y-187960000D02*
X92710000Y-187960000D01*
X95250000Y-187960000D02*
X95250000Y-185420000D01*
X114300000Y-58166000D02*
G75*
G03X115316000Y-57150000I0J1016000D01*
G01*
X115316000Y-57150000D02*
G75*
G03X114300000Y-56134000I-1016000J0D01*
G01*
X134620000Y-54610000D02*
X114300000Y-54610000D01*
X114300000Y-54610000D02*
X114300000Y-59690000D01*
X114300000Y-59690000D02*
X134620000Y-59690000D01*
X134620000Y-59690000D02*
X134620000Y-54610000D01*
X111252000Y-70866000D02*
X112268000Y-70866000D01*
X110744000Y-64262000D02*
X110744000Y-70358000D01*
X112776000Y-64262000D02*
X112776000Y-70358000D01*
X110744000Y-70358000D02*
G75*
G03X111252000Y-70866000I508000J0D01*
G01*
X112268000Y-70866000D02*
G75*
G03X112776000Y-70358000I0J508000D01*
G01*
X111252000Y-63754000D02*
G75*
G03X110744000Y-64262000I0J-508000D01*
G01*
X112776000Y-64262000D02*
G75*
G03X112268000Y-63754000I-508000J0D01*
G01*
X111252000Y-63754000D02*
X112268000Y-63754000D01*
X86570820Y-68580000D02*
G75*
G03X86570820Y-68580000I-2750820J0D01*
G01*
X111252000Y-60706000D02*
X112268000Y-60706000D01*
X110744000Y-54102000D02*
X110744000Y-60198000D01*
X112776000Y-54102000D02*
X112776000Y-60198000D01*
X110744000Y-60198000D02*
G75*
G03X111252000Y-60706000I508000J0D01*
G01*
X112268000Y-60706000D02*
G75*
G03X112776000Y-60198000I0J508000D01*
G01*
X111252000Y-53594000D02*
G75*
G03X110744000Y-54102000I0J-508000D01*
G01*
X112776000Y-54102000D02*
G75*
G03X112268000Y-53594000I-508000J0D01*
G01*
X111252000Y-53594000D02*
X112268000Y-53594000D01*
X63487300Y-72390000D02*
X63487300Y-77470000D01*
X60947300Y-72390000D02*
X60947300Y-77470000D01*
X58407300Y-72390000D02*
X58407300Y-77470000D01*
X55867300Y-77470000D02*
X55867300Y-92710000D01*
X55867300Y-92710000D02*
X66027300Y-92710000D01*
X66027300Y-92710000D02*
X66027300Y-77470000D01*
X66027300Y-77470000D02*
X55867300Y-77470000D01*
X57137300Y-85090000D02*
X66027300Y-85090000D01*
X57137300Y-85090000D02*
X55867300Y-85090000D01*
D15*
G36*
X69631560Y-110373160D02*
X69611240Y-110332520D01*
X69552820Y-110238540D01*
X69463920Y-110103920D01*
X69359780Y-109946440D01*
X69250560Y-109788960D01*
X69164200Y-109659420D01*
X69105780Y-109567980D01*
X69085460Y-109529880D01*
X69090540Y-109509560D01*
X69128640Y-109433360D01*
X69184520Y-109324140D01*
X69217540Y-109260640D01*
X69260720Y-109161580D01*
X69270880Y-109110780D01*
X69255640Y-109103160D01*
X69179440Y-109065060D01*
X69047360Y-109009180D01*
X68874640Y-108932980D01*
X68671440Y-108846620D01*
X68453000Y-108752640D01*
X68229480Y-108661200D01*
X68016120Y-108572300D01*
X67825620Y-108493560D01*
X67670680Y-108430060D01*
X67561460Y-108389420D01*
X67515740Y-108374180D01*
X67505580Y-108379260D01*
X67457320Y-108430060D01*
X67391280Y-108516420D01*
X67236340Y-108706920D01*
X67002660Y-108892340D01*
X66738500Y-109006640D01*
X66443860Y-109044740D01*
X66172080Y-109011720D01*
X65910460Y-108905040D01*
X65674240Y-108722160D01*
X65498980Y-108501180D01*
X65387220Y-108242100D01*
X65351660Y-107950000D01*
X65382140Y-107670600D01*
X65488820Y-107403900D01*
X65669160Y-107167680D01*
X65783460Y-107068620D01*
X66022220Y-106931460D01*
X66278760Y-106852720D01*
X66342260Y-106845100D01*
X66624200Y-106855260D01*
X66893440Y-106939080D01*
X67134740Y-107086400D01*
X67330320Y-107292140D01*
X67350640Y-107320080D01*
X67421760Y-107414060D01*
X67470020Y-107477560D01*
X67510660Y-107528360D01*
X68371720Y-107170220D01*
X68508880Y-107114340D01*
X68745100Y-107015280D01*
X68948300Y-106928920D01*
X69108320Y-106860340D01*
X69217540Y-106812080D01*
X69260720Y-106791760D01*
X69263260Y-106789220D01*
X69268340Y-106758740D01*
X69242940Y-106692700D01*
X69184520Y-106573320D01*
X69143880Y-106492040D01*
X69100700Y-106400600D01*
X69085460Y-106359960D01*
X69103240Y-106324400D01*
X69161660Y-106238040D01*
X69245480Y-106108500D01*
X69349620Y-105956100D01*
X69451220Y-105808780D01*
X69540120Y-105674160D01*
X69601080Y-105575100D01*
X69629020Y-105526840D01*
X69629020Y-105519220D01*
X69603620Y-105478580D01*
X69540120Y-105399840D01*
X69428360Y-105283000D01*
X69265800Y-105117900D01*
X69240400Y-105092500D01*
X69100700Y-104955340D01*
X68983860Y-104843580D01*
X68902580Y-104769920D01*
X68864480Y-104744520D01*
X68864480Y-104744520D01*
X68816220Y-104767380D01*
X68719700Y-104830880D01*
X68582540Y-104919780D01*
X68422520Y-105029000D01*
X68008500Y-105313480D01*
X67617340Y-105156000D01*
X67497960Y-105107740D01*
X67353180Y-105046780D01*
X67249040Y-105003600D01*
X67203320Y-104978200D01*
X67188080Y-104937560D01*
X67162680Y-104828340D01*
X67129660Y-104673400D01*
X67096640Y-104490520D01*
X67063620Y-104312720D01*
X67033140Y-104152700D01*
X67010280Y-104038400D01*
X67000120Y-103987600D01*
X66992500Y-103974900D01*
X66967100Y-103964740D01*
X66913760Y-103957120D01*
X66817240Y-103954580D01*
X66664840Y-103952040D01*
X66443860Y-103952040D01*
X66421000Y-103952040D01*
X66210180Y-103954580D01*
X66042540Y-103957120D01*
X65933320Y-103962200D01*
X65890140Y-103969820D01*
X65890140Y-103969820D01*
X65877440Y-104020620D01*
X65854580Y-104132380D01*
X65821560Y-104292400D01*
X65786000Y-104482900D01*
X65783460Y-104493060D01*
X65747900Y-104683560D01*
X65714880Y-104841040D01*
X65689480Y-104952800D01*
X65674240Y-104998520D01*
X65661540Y-105008680D01*
X65587880Y-105046780D01*
X65471040Y-105102660D01*
X65326260Y-105163620D01*
X65178940Y-105227120D01*
X65044320Y-105280460D01*
X64945260Y-105316020D01*
X64899540Y-105326180D01*
X64899540Y-105326180D01*
X64853820Y-105298240D01*
X64754760Y-105232200D01*
X64620140Y-105140760D01*
X64457580Y-105029000D01*
X64444880Y-105021380D01*
X64284860Y-104912160D01*
X64150240Y-104823260D01*
X64053720Y-104764840D01*
X64010540Y-104744520D01*
X64008000Y-104744520D01*
X63959740Y-104780080D01*
X63870840Y-104861360D01*
X63748920Y-104978200D01*
X63606680Y-105117900D01*
X63563500Y-105163620D01*
X63411100Y-105318560D01*
X63312040Y-105425240D01*
X63258700Y-105493820D01*
X63246000Y-105526840D01*
X63248540Y-105526840D01*
X63276480Y-105575100D01*
X63342520Y-105676700D01*
X63436500Y-105813860D01*
X63545720Y-105976420D01*
X63553340Y-105986580D01*
X63662560Y-106146600D01*
X63751460Y-106278680D01*
X63814960Y-106375200D01*
X63840360Y-106415840D01*
X63840360Y-106423460D01*
X63820040Y-106486960D01*
X63781940Y-106601260D01*
X63726060Y-106740960D01*
X63667640Y-106888280D01*
X63611760Y-107022900D01*
X63563500Y-107124500D01*
X63538100Y-107172760D01*
X63535560Y-107172760D01*
X63477140Y-107190540D01*
X63357760Y-107218480D01*
X63192660Y-107251500D01*
X62997080Y-107289600D01*
X62966600Y-107294680D01*
X62776100Y-107330240D01*
X62618620Y-107360720D01*
X62509400Y-107383580D01*
X62463680Y-107396280D01*
X62458600Y-107421680D01*
X62450980Y-107515660D01*
X62448440Y-107657900D01*
X62445900Y-107830620D01*
X62448440Y-108010960D01*
X62450980Y-108186220D01*
X62456060Y-108338620D01*
X62463680Y-108445300D01*
X62473840Y-108491020D01*
X62476380Y-108493560D01*
X62534800Y-108508800D01*
X62654180Y-108534200D01*
X62819280Y-108569760D01*
X63017400Y-108607860D01*
X63050420Y-108612940D01*
X63240920Y-108648500D01*
X63395860Y-108681520D01*
X63505080Y-108704380D01*
X63545720Y-108717080D01*
X63555880Y-108732320D01*
X63588900Y-108811060D01*
X63642240Y-108938060D01*
X63705740Y-109098080D01*
X63855600Y-109463840D01*
X63545720Y-109910880D01*
X63517780Y-109954060D01*
X63408560Y-110114080D01*
X63319660Y-110248700D01*
X63261240Y-110340140D01*
X63238380Y-110378240D01*
X63240920Y-110380780D01*
X63279020Y-110426500D01*
X63362840Y-110515400D01*
X63482220Y-110637320D01*
X63621920Y-110777020D01*
X63726060Y-110881160D01*
X63853060Y-111005620D01*
X63936880Y-111084360D01*
X63992760Y-111127540D01*
X64025780Y-111142780D01*
X64046100Y-111137700D01*
X64091820Y-111109760D01*
X64190880Y-111043720D01*
X64328040Y-110952280D01*
X64485520Y-110843060D01*
X64620140Y-110751620D01*
X64770000Y-110655100D01*
X64876680Y-110591600D01*
X64930020Y-110568740D01*
X64952880Y-110573820D01*
X65039240Y-110606840D01*
X65173860Y-110660180D01*
X65331340Y-110726220D01*
X65686940Y-110883700D01*
X65730120Y-111117380D01*
X65758060Y-111257080D01*
X65796160Y-111455200D01*
X65831720Y-111643160D01*
X65890140Y-111937800D01*
X66972180Y-111947960D01*
X66992500Y-111902240D01*
X67005200Y-111859060D01*
X67028060Y-111749840D01*
X67058540Y-111594900D01*
X67094100Y-111409480D01*
X67124580Y-111254540D01*
X67152520Y-111094520D01*
X67175380Y-110982760D01*
X67185540Y-110931960D01*
X67203320Y-110919260D01*
X67279520Y-110878620D01*
X67401440Y-110822740D01*
X67548760Y-110761780D01*
X67698620Y-110698280D01*
X67838320Y-110642400D01*
X67945000Y-110601760D01*
X68000880Y-110589060D01*
X68044060Y-110609380D01*
X68135500Y-110670340D01*
X68267580Y-110756700D01*
X68425060Y-110863380D01*
X68582540Y-110972600D01*
X68717160Y-111061500D01*
X68813680Y-111125000D01*
X68856860Y-111150400D01*
X68887340Y-111137700D01*
X68963540Y-111076740D01*
X69085460Y-110957360D01*
X69260720Y-110782100D01*
X69288660Y-110751620D01*
X69423280Y-110611920D01*
X69532500Y-110492540D01*
X69606160Y-110411260D01*
X69631560Y-110373160D01*
X69631560Y-110373160D01*
G37*
X69631560Y-110373160D02*
X69611240Y-110332520D01*
X69552820Y-110238540D01*
X69463920Y-110103920D01*
X69359780Y-109946440D01*
X69250560Y-109788960D01*
X69164200Y-109659420D01*
X69105780Y-109567980D01*
X69085460Y-109529880D01*
X69090540Y-109509560D01*
X69128640Y-109433360D01*
X69184520Y-109324140D01*
X69217540Y-109260640D01*
X69260720Y-109161580D01*
X69270880Y-109110780D01*
X69255640Y-109103160D01*
X69179440Y-109065060D01*
X69047360Y-109009180D01*
X68874640Y-108932980D01*
X68671440Y-108846620D01*
X68453000Y-108752640D01*
X68229480Y-108661200D01*
X68016120Y-108572300D01*
X67825620Y-108493560D01*
X67670680Y-108430060D01*
X67561460Y-108389420D01*
X67515740Y-108374180D01*
X67505580Y-108379260D01*
X67457320Y-108430060D01*
X67391280Y-108516420D01*
X67236340Y-108706920D01*
X67002660Y-108892340D01*
X66738500Y-109006640D01*
X66443860Y-109044740D01*
X66172080Y-109011720D01*
X65910460Y-108905040D01*
X65674240Y-108722160D01*
X65498980Y-108501180D01*
X65387220Y-108242100D01*
X65351660Y-107950000D01*
X65382140Y-107670600D01*
X65488820Y-107403900D01*
X65669160Y-107167680D01*
X65783460Y-107068620D01*
X66022220Y-106931460D01*
X66278760Y-106852720D01*
X66342260Y-106845100D01*
X66624200Y-106855260D01*
X66893440Y-106939080D01*
X67134740Y-107086400D01*
X67330320Y-107292140D01*
X67350640Y-107320080D01*
X67421760Y-107414060D01*
X67470020Y-107477560D01*
X67510660Y-107528360D01*
X68371720Y-107170220D01*
X68508880Y-107114340D01*
X68745100Y-107015280D01*
X68948300Y-106928920D01*
X69108320Y-106860340D01*
X69217540Y-106812080D01*
X69260720Y-106791760D01*
X69263260Y-106789220D01*
X69268340Y-106758740D01*
X69242940Y-106692700D01*
X69184520Y-106573320D01*
X69143880Y-106492040D01*
X69100700Y-106400600D01*
X69085460Y-106359960D01*
X69103240Y-106324400D01*
X69161660Y-106238040D01*
X69245480Y-106108500D01*
X69349620Y-105956100D01*
X69451220Y-105808780D01*
X69540120Y-105674160D01*
X69601080Y-105575100D01*
X69629020Y-105526840D01*
X69629020Y-105519220D01*
X69603620Y-105478580D01*
X69540120Y-105399840D01*
X69428360Y-105283000D01*
X69265800Y-105117900D01*
X69240400Y-105092500D01*
X69100700Y-104955340D01*
X68983860Y-104843580D01*
X68902580Y-104769920D01*
X68864480Y-104744520D01*
X68864480Y-104744520D01*
X68816220Y-104767380D01*
X68719700Y-104830880D01*
X68582540Y-104919780D01*
X68422520Y-105029000D01*
X68008500Y-105313480D01*
X67617340Y-105156000D01*
X67497960Y-105107740D01*
X67353180Y-105046780D01*
X67249040Y-105003600D01*
X67203320Y-104978200D01*
X67188080Y-104937560D01*
X67162680Y-104828340D01*
X67129660Y-104673400D01*
X67096640Y-104490520D01*
X67063620Y-104312720D01*
X67033140Y-104152700D01*
X67010280Y-104038400D01*
X67000120Y-103987600D01*
X66992500Y-103974900D01*
X66967100Y-103964740D01*
X66913760Y-103957120D01*
X66817240Y-103954580D01*
X66664840Y-103952040D01*
X66443860Y-103952040D01*
X66421000Y-103952040D01*
X66210180Y-103954580D01*
X66042540Y-103957120D01*
X65933320Y-103962200D01*
X65890140Y-103969820D01*
X65890140Y-103969820D01*
X65877440Y-104020620D01*
X65854580Y-104132380D01*
X65821560Y-104292400D01*
X65786000Y-104482900D01*
X65783460Y-104493060D01*
X65747900Y-104683560D01*
X65714880Y-104841040D01*
X65689480Y-104952800D01*
X65674240Y-104998520D01*
X65661540Y-105008680D01*
X65587880Y-105046780D01*
X65471040Y-105102660D01*
X65326260Y-105163620D01*
X65178940Y-105227120D01*
X65044320Y-105280460D01*
X64945260Y-105316020D01*
X64899540Y-105326180D01*
X64899540Y-105326180D01*
X64853820Y-105298240D01*
X64754760Y-105232200D01*
X64620140Y-105140760D01*
X64457580Y-105029000D01*
X64444880Y-105021380D01*
X64284860Y-104912160D01*
X64150240Y-104823260D01*
X64053720Y-104764840D01*
X64010540Y-104744520D01*
X64008000Y-104744520D01*
X63959740Y-104780080D01*
X63870840Y-104861360D01*
X63748920Y-104978200D01*
X63606680Y-105117900D01*
X63563500Y-105163620D01*
X63411100Y-105318560D01*
X63312040Y-105425240D01*
X63258700Y-105493820D01*
X63246000Y-105526840D01*
X63248540Y-105526840D01*
X63276480Y-105575100D01*
X63342520Y-105676700D01*
X63436500Y-105813860D01*
X63545720Y-105976420D01*
X63553340Y-105986580D01*
X63662560Y-106146600D01*
X63751460Y-106278680D01*
X63814960Y-106375200D01*
X63840360Y-106415840D01*
X63840360Y-106423460D01*
X63820040Y-106486960D01*
X63781940Y-106601260D01*
X63726060Y-106740960D01*
X63667640Y-106888280D01*
X63611760Y-107022900D01*
X63563500Y-107124500D01*
X63538100Y-107172760D01*
X63535560Y-107172760D01*
X63477140Y-107190540D01*
X63357760Y-107218480D01*
X63192660Y-107251500D01*
X62997080Y-107289600D01*
X62966600Y-107294680D01*
X62776100Y-107330240D01*
X62618620Y-107360720D01*
X62509400Y-107383580D01*
X62463680Y-107396280D01*
X62458600Y-107421680D01*
X62450980Y-107515660D01*
X62448440Y-107657900D01*
X62445900Y-107830620D01*
X62448440Y-108010960D01*
X62450980Y-108186220D01*
X62456060Y-108338620D01*
X62463680Y-108445300D01*
X62473840Y-108491020D01*
X62476380Y-108493560D01*
X62534800Y-108508800D01*
X62654180Y-108534200D01*
X62819280Y-108569760D01*
X63017400Y-108607860D01*
X63050420Y-108612940D01*
X63240920Y-108648500D01*
X63395860Y-108681520D01*
X63505080Y-108704380D01*
X63545720Y-108717080D01*
X63555880Y-108732320D01*
X63588900Y-108811060D01*
X63642240Y-108938060D01*
X63705740Y-109098080D01*
X63855600Y-109463840D01*
X63545720Y-109910880D01*
X63517780Y-109954060D01*
X63408560Y-110114080D01*
X63319660Y-110248700D01*
X63261240Y-110340140D01*
X63238380Y-110378240D01*
X63240920Y-110380780D01*
X63279020Y-110426500D01*
X63362840Y-110515400D01*
X63482220Y-110637320D01*
X63621920Y-110777020D01*
X63726060Y-110881160D01*
X63853060Y-111005620D01*
X63936880Y-111084360D01*
X63992760Y-111127540D01*
X64025780Y-111142780D01*
X64046100Y-111137700D01*
X64091820Y-111109760D01*
X64190880Y-111043720D01*
X64328040Y-110952280D01*
X64485520Y-110843060D01*
X64620140Y-110751620D01*
X64770000Y-110655100D01*
X64876680Y-110591600D01*
X64930020Y-110568740D01*
X64952880Y-110573820D01*
X65039240Y-110606840D01*
X65173860Y-110660180D01*
X65331340Y-110726220D01*
X65686940Y-110883700D01*
X65730120Y-111117380D01*
X65758060Y-111257080D01*
X65796160Y-111455200D01*
X65831720Y-111643160D01*
X65890140Y-111937800D01*
X66972180Y-111947960D01*
X66992500Y-111902240D01*
X67005200Y-111859060D01*
X67028060Y-111749840D01*
X67058540Y-111594900D01*
X67094100Y-111409480D01*
X67124580Y-111254540D01*
X67152520Y-111094520D01*
X67175380Y-110982760D01*
X67185540Y-110931960D01*
X67203320Y-110919260D01*
X67279520Y-110878620D01*
X67401440Y-110822740D01*
X67548760Y-110761780D01*
X67698620Y-110698280D01*
X67838320Y-110642400D01*
X67945000Y-110601760D01*
X68000880Y-110589060D01*
X68044060Y-110609380D01*
X68135500Y-110670340D01*
X68267580Y-110756700D01*
X68425060Y-110863380D01*
X68582540Y-110972600D01*
X68717160Y-111061500D01*
X68813680Y-111125000D01*
X68856860Y-111150400D01*
X68887340Y-111137700D01*
X68963540Y-111076740D01*
X69085460Y-110957360D01*
X69260720Y-110782100D01*
X69288660Y-110751620D01*
X69423280Y-110611920D01*
X69532500Y-110492540D01*
X69606160Y-110411260D01*
X69631560Y-110373160D01*
D12*
X113045119Y-71894095D02*
X113867595Y-71894095D01*
X113964357Y-71845714D01*
X114012738Y-71797333D01*
X114061119Y-71700571D01*
X114061119Y-71507048D01*
X114012738Y-71410286D01*
X113964357Y-71361905D01*
X113867595Y-71313524D01*
X113045119Y-71313524D01*
X114061119Y-70297524D02*
X114061119Y-70878095D01*
X114061119Y-70587809D02*
X113045119Y-70587809D01*
X113190262Y-70684571D01*
X113287024Y-70781333D01*
X113335405Y-70878095D01*
X113045119Y-68859701D02*
X113045119Y-68250101D01*
X114061119Y-68768987D01*
X113383786Y-67552207D02*
X114061119Y-67636873D01*
X112996738Y-67721540D02*
X113722452Y-68029969D01*
X113722452Y-67463911D01*
X114061119Y-67157902D02*
X113045119Y-67030902D01*
X113528929Y-67091379D02*
X113528929Y-66568864D01*
X114061119Y-66635387D02*
X113045119Y-66508387D01*
X113964357Y-65665349D02*
X114012738Y-65714940D01*
X114061119Y-65851616D01*
X114061119Y-65938702D01*
X114012738Y-66063283D01*
X113915976Y-66138273D01*
X113819214Y-66169721D01*
X113625690Y-66189074D01*
X113480548Y-66170931D01*
X113287024Y-66103197D01*
X113190262Y-66047559D01*
X113093500Y-65948378D01*
X113045119Y-65811702D01*
X113045119Y-65724616D01*
X113093500Y-65600035D01*
X113141881Y-65562540D01*
X113045119Y-65289187D02*
X113045119Y-64766673D01*
X114061119Y-65154930D02*
X113045119Y-65027930D01*
X113045119Y-64548958D02*
X113045119Y-63939358D01*
X114061119Y-64458244D01*
X113383786Y-63241464D02*
X114061119Y-63326130D01*
X112996738Y-63410797D02*
X113722452Y-63719226D01*
X113722452Y-63153168D01*
X70412429Y-78262238D02*
X70460810Y-78117095D01*
X70509190Y-78068714D01*
X70605952Y-78020333D01*
X70751095Y-78020333D01*
X70847857Y-78068714D01*
X70896238Y-78117095D01*
X70944619Y-78213857D01*
X70944619Y-78600904D01*
X69928619Y-78600904D01*
X69928619Y-78262238D01*
X69977000Y-78165476D01*
X70025381Y-78117095D01*
X70122143Y-78068714D01*
X70218905Y-78068714D01*
X70315667Y-78117095D01*
X70364048Y-78165476D01*
X70412429Y-78262238D01*
X70412429Y-78600904D01*
X69928619Y-77584904D02*
X70751095Y-77584904D01*
X70847857Y-77536523D01*
X70896238Y-77488142D01*
X70944619Y-77391380D01*
X70944619Y-77197857D01*
X70896238Y-77101095D01*
X70847857Y-77052714D01*
X70751095Y-77004333D01*
X69928619Y-77004333D01*
X70896238Y-76568904D02*
X70944619Y-76423761D01*
X70944619Y-76181857D01*
X70896238Y-76085095D01*
X70847857Y-76036714D01*
X70751095Y-75988333D01*
X70654333Y-75988333D01*
X70557571Y-76036714D01*
X70509190Y-76085095D01*
X70460810Y-76181857D01*
X70412429Y-76375380D01*
X70364048Y-76472142D01*
X70315667Y-76520523D01*
X70218905Y-76568904D01*
X70122143Y-76568904D01*
X70025381Y-76520523D01*
X69977000Y-76472142D01*
X69928619Y-76375380D01*
X69928619Y-76133476D01*
X69977000Y-75988333D01*
X70944619Y-75020714D02*
X70944619Y-75601285D01*
X70944619Y-75310999D02*
X69928619Y-75310999D01*
X70073762Y-75407761D01*
X70170524Y-75504523D01*
X70218905Y-75601285D01*
X70412429Y-99217238D02*
X70460810Y-99072095D01*
X70509190Y-99023714D01*
X70605952Y-98975333D01*
X70751095Y-98975333D01*
X70847857Y-99023714D01*
X70896238Y-99072095D01*
X70944619Y-99168857D01*
X70944619Y-99555904D01*
X69928619Y-99555904D01*
X69928619Y-99217238D01*
X69977000Y-99120476D01*
X70025381Y-99072095D01*
X70122143Y-99023714D01*
X70218905Y-99023714D01*
X70315667Y-99072095D01*
X70364048Y-99120476D01*
X70412429Y-99217238D01*
X70412429Y-99555904D01*
X69928619Y-98539904D02*
X70751095Y-98539904D01*
X70847857Y-98491523D01*
X70896238Y-98443142D01*
X70944619Y-98346380D01*
X70944619Y-98152857D01*
X70896238Y-98056095D01*
X70847857Y-98007714D01*
X70751095Y-97959333D01*
X69928619Y-97959333D01*
X70896238Y-97523904D02*
X70944619Y-97378761D01*
X70944619Y-97136857D01*
X70896238Y-97040095D01*
X70847857Y-96991714D01*
X70751095Y-96943333D01*
X70654333Y-96943333D01*
X70557571Y-96991714D01*
X70509190Y-97040095D01*
X70460810Y-97136857D01*
X70412429Y-97330380D01*
X70364048Y-97427142D01*
X70315667Y-97475523D01*
X70218905Y-97523904D01*
X70122143Y-97523904D01*
X70025381Y-97475523D01*
X69977000Y-97427142D01*
X69928619Y-97330380D01*
X69928619Y-97088476D01*
X69977000Y-96943333D01*
X70025381Y-96556285D02*
X69977000Y-96507904D01*
X69928619Y-96411142D01*
X69928619Y-96169238D01*
X69977000Y-96072476D01*
X70025381Y-96024095D01*
X70122143Y-95975714D01*
X70218905Y-95975714D01*
X70364048Y-96024095D01*
X70944619Y-96604666D01*
X70944619Y-95975714D01*
X70412429Y-119537238D02*
X70460810Y-119392095D01*
X70509190Y-119343714D01*
X70605952Y-119295333D01*
X70751095Y-119295333D01*
X70847857Y-119343714D01*
X70896238Y-119392095D01*
X70944619Y-119488857D01*
X70944619Y-119875904D01*
X69928619Y-119875904D01*
X69928619Y-119537238D01*
X69977000Y-119440476D01*
X70025381Y-119392095D01*
X70122143Y-119343714D01*
X70218905Y-119343714D01*
X70315667Y-119392095D01*
X70364048Y-119440476D01*
X70412429Y-119537238D01*
X70412429Y-119875904D01*
X69928619Y-118859904D02*
X70751095Y-118859904D01*
X70847857Y-118811523D01*
X70896238Y-118763142D01*
X70944619Y-118666380D01*
X70944619Y-118472857D01*
X70896238Y-118376095D01*
X70847857Y-118327714D01*
X70751095Y-118279333D01*
X69928619Y-118279333D01*
X70896238Y-117843904D02*
X70944619Y-117698761D01*
X70944619Y-117456857D01*
X70896238Y-117360095D01*
X70847857Y-117311714D01*
X70751095Y-117263333D01*
X70654333Y-117263333D01*
X70557571Y-117311714D01*
X70509190Y-117360095D01*
X70460810Y-117456857D01*
X70412429Y-117650380D01*
X70364048Y-117747142D01*
X70315667Y-117795523D01*
X70218905Y-117843904D01*
X70122143Y-117843904D01*
X70025381Y-117795523D01*
X69977000Y-117747142D01*
X69928619Y-117650380D01*
X69928619Y-117408476D01*
X69977000Y-117263333D01*
X69928619Y-116924666D02*
X69928619Y-116295714D01*
X70315667Y-116634380D01*
X70315667Y-116489238D01*
X70364048Y-116392476D01*
X70412429Y-116344095D01*
X70509190Y-116295714D01*
X70751095Y-116295714D01*
X70847857Y-116344095D01*
X70896238Y-116392476D01*
X70944619Y-116489238D01*
X70944619Y-116779523D01*
X70896238Y-116876285D01*
X70847857Y-116924666D01*
X70412429Y-139857238D02*
X70460810Y-139712095D01*
X70509190Y-139663714D01*
X70605952Y-139615333D01*
X70751095Y-139615333D01*
X70847857Y-139663714D01*
X70896238Y-139712095D01*
X70944619Y-139808857D01*
X70944619Y-140195904D01*
X69928619Y-140195904D01*
X69928619Y-139857238D01*
X69977000Y-139760476D01*
X70025381Y-139712095D01*
X70122143Y-139663714D01*
X70218905Y-139663714D01*
X70315667Y-139712095D01*
X70364048Y-139760476D01*
X70412429Y-139857238D01*
X70412429Y-140195904D01*
X69928619Y-139179904D02*
X70751095Y-139179904D01*
X70847857Y-139131523D01*
X70896238Y-139083142D01*
X70944619Y-138986380D01*
X70944619Y-138792857D01*
X70896238Y-138696095D01*
X70847857Y-138647714D01*
X70751095Y-138599333D01*
X69928619Y-138599333D01*
X70896238Y-138163904D02*
X70944619Y-138018761D01*
X70944619Y-137776857D01*
X70896238Y-137680095D01*
X70847857Y-137631714D01*
X70751095Y-137583333D01*
X70654333Y-137583333D01*
X70557571Y-137631714D01*
X70509190Y-137680095D01*
X70460810Y-137776857D01*
X70412429Y-137970380D01*
X70364048Y-138067142D01*
X70315667Y-138115523D01*
X70218905Y-138163904D01*
X70122143Y-138163904D01*
X70025381Y-138115523D01*
X69977000Y-138067142D01*
X69928619Y-137970380D01*
X69928619Y-137728476D01*
X69977000Y-137583333D01*
X70267286Y-136712476D02*
X70944619Y-136712476D01*
X69880238Y-136954380D02*
X70605952Y-137196285D01*
X70605952Y-136567333D01*
X70412429Y-160177238D02*
X70460810Y-160032095D01*
X70509190Y-159983714D01*
X70605952Y-159935333D01*
X70751095Y-159935333D01*
X70847857Y-159983714D01*
X70896238Y-160032095D01*
X70944619Y-160128857D01*
X70944619Y-160515904D01*
X69928619Y-160515904D01*
X69928619Y-160177238D01*
X69977000Y-160080476D01*
X70025381Y-160032095D01*
X70122143Y-159983714D01*
X70218905Y-159983714D01*
X70315667Y-160032095D01*
X70364048Y-160080476D01*
X70412429Y-160177238D01*
X70412429Y-160515904D01*
X69928619Y-159499904D02*
X70751095Y-159499904D01*
X70847857Y-159451523D01*
X70896238Y-159403142D01*
X70944619Y-159306380D01*
X70944619Y-159112857D01*
X70896238Y-159016095D01*
X70847857Y-158967714D01*
X70751095Y-158919333D01*
X69928619Y-158919333D01*
X70896238Y-158483904D02*
X70944619Y-158338761D01*
X70944619Y-158096857D01*
X70896238Y-158000095D01*
X70847857Y-157951714D01*
X70751095Y-157903333D01*
X70654333Y-157903333D01*
X70557571Y-157951714D01*
X70509190Y-158000095D01*
X70460810Y-158096857D01*
X70412429Y-158290380D01*
X70364048Y-158387142D01*
X70315667Y-158435523D01*
X70218905Y-158483904D01*
X70122143Y-158483904D01*
X70025381Y-158435523D01*
X69977000Y-158387142D01*
X69928619Y-158290380D01*
X69928619Y-158048476D01*
X69977000Y-157903333D01*
X69928619Y-156984095D02*
X69928619Y-157467904D01*
X70412429Y-157516285D01*
X70364048Y-157467904D01*
X70315667Y-157371142D01*
X70315667Y-157129238D01*
X70364048Y-157032476D01*
X70412429Y-156984095D01*
X70509190Y-156935714D01*
X70751095Y-156935714D01*
X70847857Y-156984095D01*
X70896238Y-157032476D01*
X70944619Y-157129238D01*
X70944619Y-157371142D01*
X70896238Y-157467904D01*
X70847857Y-157516285D01*
X70412429Y-180497238D02*
X70460810Y-180352095D01*
X70509190Y-180303714D01*
X70605952Y-180255333D01*
X70751095Y-180255333D01*
X70847857Y-180303714D01*
X70896238Y-180352095D01*
X70944619Y-180448857D01*
X70944619Y-180835904D01*
X69928619Y-180835904D01*
X69928619Y-180497238D01*
X69977000Y-180400476D01*
X70025381Y-180352095D01*
X70122143Y-180303714D01*
X70218905Y-180303714D01*
X70315667Y-180352095D01*
X70364048Y-180400476D01*
X70412429Y-180497238D01*
X70412429Y-180835904D01*
X69928619Y-179819904D02*
X70751095Y-179819904D01*
X70847857Y-179771523D01*
X70896238Y-179723142D01*
X70944619Y-179626380D01*
X70944619Y-179432857D01*
X70896238Y-179336095D01*
X70847857Y-179287714D01*
X70751095Y-179239333D01*
X69928619Y-179239333D01*
X70896238Y-178803904D02*
X70944619Y-178658761D01*
X70944619Y-178416857D01*
X70896238Y-178320095D01*
X70847857Y-178271714D01*
X70751095Y-178223333D01*
X70654333Y-178223333D01*
X70557571Y-178271714D01*
X70509190Y-178320095D01*
X70460810Y-178416857D01*
X70412429Y-178610380D01*
X70364048Y-178707142D01*
X70315667Y-178755523D01*
X70218905Y-178803904D01*
X70122143Y-178803904D01*
X70025381Y-178755523D01*
X69977000Y-178707142D01*
X69928619Y-178610380D01*
X69928619Y-178368476D01*
X69977000Y-178223333D01*
X69928619Y-177352476D02*
X69928619Y-177545999D01*
X69977000Y-177642761D01*
X70025381Y-177691142D01*
X70170524Y-177787904D01*
X70364048Y-177836285D01*
X70751095Y-177836285D01*
X70847857Y-177787904D01*
X70896238Y-177739523D01*
X70944619Y-177642761D01*
X70944619Y-177449238D01*
X70896238Y-177352476D01*
X70847857Y-177304095D01*
X70751095Y-177255714D01*
X70509190Y-177255714D01*
X70412429Y-177304095D01*
X70364048Y-177352476D01*
X70315667Y-177449238D01*
X70315667Y-177642761D01*
X70364048Y-177739523D01*
X70412429Y-177787904D01*
X70509190Y-177836285D01*
X75713167Y-65132857D02*
X75664786Y-65181238D01*
X75519643Y-65229619D01*
X75422881Y-65229619D01*
X75277739Y-65181238D01*
X75180977Y-65084476D01*
X75132596Y-64987714D01*
X75084215Y-64794190D01*
X75084215Y-64649048D01*
X75132596Y-64455524D01*
X75180977Y-64358762D01*
X75277739Y-64262000D01*
X75422881Y-64213619D01*
X75519643Y-64213619D01*
X75664786Y-64262000D01*
X75713167Y-64310381D01*
X76680786Y-65229619D02*
X76100215Y-65229619D01*
X76390501Y-65229619D02*
X76390501Y-64213619D01*
X76293739Y-64358762D01*
X76196977Y-64455524D01*
X76100215Y-64503905D01*
X75169185Y-72595619D02*
X74646670Y-72595619D01*
X74907928Y-72595619D02*
X75034928Y-71579619D01*
X74929699Y-71724762D01*
X74830518Y-71821524D01*
X74737384Y-71869905D01*
X75862242Y-71579619D02*
X75949327Y-71579619D01*
X76030365Y-71628000D01*
X76067860Y-71676381D01*
X76099308Y-71773143D01*
X76118661Y-71966667D01*
X76088423Y-72208571D01*
X76020689Y-72402095D01*
X75965051Y-72498857D01*
X75915460Y-72547238D01*
X75822327Y-72595619D01*
X75735242Y-72595619D01*
X75654203Y-72547238D01*
X75616708Y-72498857D01*
X75585260Y-72402095D01*
X75565908Y-72208571D01*
X75596146Y-71966667D01*
X75663879Y-71773143D01*
X75719517Y-71676381D01*
X75769108Y-71628000D01*
X75862242Y-71579619D01*
X76908479Y-71918286D02*
X76823813Y-72595619D01*
X76516593Y-71918286D02*
X76450070Y-72450476D01*
X76481517Y-72547238D01*
X76562556Y-72595619D01*
X76693184Y-72595619D01*
X76786317Y-72547238D01*
X76835908Y-72498857D01*
X77630564Y-72063429D02*
X77325764Y-72063429D01*
X77259241Y-72595619D02*
X77386241Y-71579619D01*
X77821670Y-71579619D01*
X73272953Y-66112571D02*
X74047048Y-66112571D01*
X73660000Y-66499619D02*
X73660000Y-65725524D01*
X149690667Y-83865357D02*
X149642286Y-83913738D01*
X149497143Y-83962119D01*
X149400381Y-83962119D01*
X149255239Y-83913738D01*
X149158477Y-83816976D01*
X149110096Y-83720214D01*
X149061715Y-83526690D01*
X149061715Y-83381548D01*
X149110096Y-83188024D01*
X149158477Y-83091262D01*
X149255239Y-82994500D01*
X149400381Y-82946119D01*
X149497143Y-82946119D01*
X149642286Y-82994500D01*
X149690667Y-83042881D01*
X150077715Y-83042881D02*
X150126096Y-82994500D01*
X150222858Y-82946119D01*
X150464762Y-82946119D01*
X150561524Y-82994500D01*
X150609905Y-83042881D01*
X150658286Y-83139643D01*
X150658286Y-83236405D01*
X150609905Y-83381548D01*
X150029334Y-83962119D01*
X150658286Y-83962119D01*
X148829185Y-91582119D02*
X148306670Y-91582119D01*
X148567928Y-91582119D02*
X148694928Y-90566119D01*
X148589699Y-90711262D01*
X148490518Y-90808024D01*
X148397384Y-90856405D01*
X149522242Y-90566119D02*
X149609327Y-90566119D01*
X149690365Y-90614500D01*
X149727860Y-90662881D01*
X149759308Y-90759643D01*
X149778661Y-90953167D01*
X149748423Y-91195071D01*
X149680689Y-91388595D01*
X149625051Y-91485357D01*
X149575460Y-91533738D01*
X149482327Y-91582119D01*
X149395242Y-91582119D01*
X149314203Y-91533738D01*
X149276708Y-91485357D01*
X149245260Y-91388595D01*
X149225908Y-91195071D01*
X149256146Y-90953167D01*
X149323879Y-90759643D01*
X149379517Y-90662881D01*
X149429108Y-90614500D01*
X149522242Y-90566119D01*
X150568479Y-90904786D02*
X150483813Y-91582119D01*
X150176593Y-90904786D02*
X150110070Y-91436976D01*
X150141517Y-91533738D01*
X150222556Y-91582119D01*
X150353184Y-91582119D01*
X150446317Y-91533738D01*
X150495908Y-91485357D01*
X151290564Y-91049929D02*
X150985764Y-91049929D01*
X150919241Y-91582119D02*
X151046241Y-90566119D01*
X151481670Y-90566119D01*
X146932953Y-84845071D02*
X147707048Y-84845071D01*
X147320000Y-85232119D02*
X147320000Y-84458024D01*
X83650667Y-104502857D02*
X83602286Y-104551238D01*
X83457143Y-104599619D01*
X83360381Y-104599619D01*
X83215239Y-104551238D01*
X83118477Y-104454476D01*
X83070096Y-104357714D01*
X83021715Y-104164190D01*
X83021715Y-104019048D01*
X83070096Y-103825524D01*
X83118477Y-103728762D01*
X83215239Y-103632000D01*
X83360381Y-103583619D01*
X83457143Y-103583619D01*
X83602286Y-103632000D01*
X83650667Y-103680381D01*
X83989334Y-103583619D02*
X84618286Y-103583619D01*
X84279620Y-103970667D01*
X84424762Y-103970667D01*
X84521524Y-104019048D01*
X84569905Y-104067429D01*
X84618286Y-104164190D01*
X84618286Y-104406095D01*
X84569905Y-104502857D01*
X84521524Y-104551238D01*
X84424762Y-104599619D01*
X84134477Y-104599619D01*
X84037715Y-104551238D01*
X83989334Y-104502857D01*
X82789185Y-112219619D02*
X82266670Y-112219619D01*
X82527928Y-112219619D02*
X82654928Y-111203619D01*
X82549699Y-111348762D01*
X82450518Y-111445524D01*
X82357384Y-111493905D01*
X83482242Y-111203619D02*
X83569327Y-111203619D01*
X83650365Y-111252000D01*
X83687860Y-111300381D01*
X83719308Y-111397143D01*
X83738661Y-111590667D01*
X83708423Y-111832571D01*
X83640689Y-112026095D01*
X83585051Y-112122857D01*
X83535460Y-112171238D01*
X83442327Y-112219619D01*
X83355242Y-112219619D01*
X83274203Y-112171238D01*
X83236708Y-112122857D01*
X83205260Y-112026095D01*
X83185908Y-111832571D01*
X83216146Y-111590667D01*
X83283879Y-111397143D01*
X83339517Y-111300381D01*
X83389108Y-111252000D01*
X83482242Y-111203619D01*
X84528479Y-111542286D02*
X84443813Y-112219619D01*
X84136593Y-111542286D02*
X84070070Y-112074476D01*
X84101517Y-112171238D01*
X84182556Y-112219619D01*
X84313184Y-112219619D01*
X84406317Y-112171238D01*
X84455908Y-112122857D01*
X85250564Y-111687429D02*
X84945764Y-111687429D01*
X84879241Y-112219619D02*
X85006241Y-111203619D01*
X85441670Y-111203619D01*
X80892953Y-105482571D02*
X81667048Y-105482571D01*
X81280000Y-105869619D02*
X81280000Y-105095524D01*
X149690667Y-104502857D02*
X149642286Y-104551238D01*
X149497143Y-104599619D01*
X149400381Y-104599619D01*
X149255239Y-104551238D01*
X149158477Y-104454476D01*
X149110096Y-104357714D01*
X149061715Y-104164190D01*
X149061715Y-104019048D01*
X149110096Y-103825524D01*
X149158477Y-103728762D01*
X149255239Y-103632000D01*
X149400381Y-103583619D01*
X149497143Y-103583619D01*
X149642286Y-103632000D01*
X149690667Y-103680381D01*
X150561524Y-103922286D02*
X150561524Y-104599619D01*
X150319620Y-103535238D02*
X150077715Y-104260952D01*
X150706667Y-104260952D01*
X148829185Y-112219619D02*
X148306670Y-112219619D01*
X148567928Y-112219619D02*
X148694928Y-111203619D01*
X148589699Y-111348762D01*
X148490518Y-111445524D01*
X148397384Y-111493905D01*
X149522242Y-111203619D02*
X149609327Y-111203619D01*
X149690365Y-111252000D01*
X149727860Y-111300381D01*
X149759308Y-111397143D01*
X149778661Y-111590667D01*
X149748423Y-111832571D01*
X149680689Y-112026095D01*
X149625051Y-112122857D01*
X149575460Y-112171238D01*
X149482327Y-112219619D01*
X149395242Y-112219619D01*
X149314203Y-112171238D01*
X149276708Y-112122857D01*
X149245260Y-112026095D01*
X149225908Y-111832571D01*
X149256146Y-111590667D01*
X149323879Y-111397143D01*
X149379517Y-111300381D01*
X149429108Y-111252000D01*
X149522242Y-111203619D01*
X150568479Y-111542286D02*
X150483813Y-112219619D01*
X150176593Y-111542286D02*
X150110070Y-112074476D01*
X150141517Y-112171238D01*
X150222556Y-112219619D01*
X150353184Y-112219619D01*
X150446317Y-112171238D01*
X150495908Y-112122857D01*
X151290564Y-111687429D02*
X150985764Y-111687429D01*
X150919241Y-112219619D02*
X151046241Y-111203619D01*
X151481670Y-111203619D01*
X146932953Y-105482571D02*
X147707048Y-105482571D01*
X147320000Y-105869619D02*
X147320000Y-105095524D01*
X83650667Y-145142857D02*
X83602286Y-145191238D01*
X83457143Y-145239619D01*
X83360381Y-145239619D01*
X83215239Y-145191238D01*
X83118477Y-145094476D01*
X83070096Y-144997714D01*
X83021715Y-144804190D01*
X83021715Y-144659048D01*
X83070096Y-144465524D01*
X83118477Y-144368762D01*
X83215239Y-144272000D01*
X83360381Y-144223619D01*
X83457143Y-144223619D01*
X83602286Y-144272000D01*
X83650667Y-144320381D01*
X84569905Y-144223619D02*
X84086096Y-144223619D01*
X84037715Y-144707429D01*
X84086096Y-144659048D01*
X84182858Y-144610667D01*
X84424762Y-144610667D01*
X84521524Y-144659048D01*
X84569905Y-144707429D01*
X84618286Y-144804190D01*
X84618286Y-145046095D01*
X84569905Y-145142857D01*
X84521524Y-145191238D01*
X84424762Y-145239619D01*
X84182858Y-145239619D01*
X84086096Y-145191238D01*
X84037715Y-145142857D01*
X82789185Y-152859619D02*
X82266670Y-152859619D01*
X82527928Y-152859619D02*
X82654928Y-151843619D01*
X82549699Y-151988762D01*
X82450518Y-152085524D01*
X82357384Y-152133905D01*
X83482242Y-151843619D02*
X83569327Y-151843619D01*
X83650365Y-151892000D01*
X83687860Y-151940381D01*
X83719308Y-152037143D01*
X83738661Y-152230667D01*
X83708423Y-152472571D01*
X83640689Y-152666095D01*
X83585051Y-152762857D01*
X83535460Y-152811238D01*
X83442327Y-152859619D01*
X83355242Y-152859619D01*
X83274203Y-152811238D01*
X83236708Y-152762857D01*
X83205260Y-152666095D01*
X83185908Y-152472571D01*
X83216146Y-152230667D01*
X83283879Y-152037143D01*
X83339517Y-151940381D01*
X83389108Y-151892000D01*
X83482242Y-151843619D01*
X84528479Y-152182286D02*
X84443813Y-152859619D01*
X84136593Y-152182286D02*
X84070070Y-152714476D01*
X84101517Y-152811238D01*
X84182556Y-152859619D01*
X84313184Y-152859619D01*
X84406317Y-152811238D01*
X84455908Y-152762857D01*
X85250564Y-152327429D02*
X84945764Y-152327429D01*
X84879241Y-152859619D02*
X85006241Y-151843619D01*
X85441670Y-151843619D01*
X80892953Y-146122571D02*
X81667048Y-146122571D01*
X81280000Y-146509619D02*
X81280000Y-145735524D01*
X149690667Y-145142857D02*
X149642286Y-145191238D01*
X149497143Y-145239619D01*
X149400381Y-145239619D01*
X149255239Y-145191238D01*
X149158477Y-145094476D01*
X149110096Y-144997714D01*
X149061715Y-144804190D01*
X149061715Y-144659048D01*
X149110096Y-144465524D01*
X149158477Y-144368762D01*
X149255239Y-144272000D01*
X149400381Y-144223619D01*
X149497143Y-144223619D01*
X149642286Y-144272000D01*
X149690667Y-144320381D01*
X150561524Y-144223619D02*
X150368001Y-144223619D01*
X150271239Y-144272000D01*
X150222858Y-144320381D01*
X150126096Y-144465524D01*
X150077715Y-144659048D01*
X150077715Y-145046095D01*
X150126096Y-145142857D01*
X150174477Y-145191238D01*
X150271239Y-145239619D01*
X150464762Y-145239619D01*
X150561524Y-145191238D01*
X150609905Y-145142857D01*
X150658286Y-145046095D01*
X150658286Y-144804190D01*
X150609905Y-144707429D01*
X150561524Y-144659048D01*
X150464762Y-144610667D01*
X150271239Y-144610667D01*
X150174477Y-144659048D01*
X150126096Y-144707429D01*
X150077715Y-144804190D01*
X148829185Y-152859619D02*
X148306670Y-152859619D01*
X148567928Y-152859619D02*
X148694928Y-151843619D01*
X148589699Y-151988762D01*
X148490518Y-152085524D01*
X148397384Y-152133905D01*
X149522242Y-151843619D02*
X149609327Y-151843619D01*
X149690365Y-151892000D01*
X149727860Y-151940381D01*
X149759308Y-152037143D01*
X149778661Y-152230667D01*
X149748423Y-152472571D01*
X149680689Y-152666095D01*
X149625051Y-152762857D01*
X149575460Y-152811238D01*
X149482327Y-152859619D01*
X149395242Y-152859619D01*
X149314203Y-152811238D01*
X149276708Y-152762857D01*
X149245260Y-152666095D01*
X149225908Y-152472571D01*
X149256146Y-152230667D01*
X149323879Y-152037143D01*
X149379517Y-151940381D01*
X149429108Y-151892000D01*
X149522242Y-151843619D01*
X150568479Y-152182286D02*
X150483813Y-152859619D01*
X150176593Y-152182286D02*
X150110070Y-152714476D01*
X150141517Y-152811238D01*
X150222556Y-152859619D01*
X150353184Y-152859619D01*
X150446317Y-152811238D01*
X150495908Y-152762857D01*
X151290564Y-152327429D02*
X150985764Y-152327429D01*
X150919241Y-152859619D02*
X151046241Y-151843619D01*
X151481670Y-151843619D01*
X146932953Y-146122571D02*
X147707048Y-146122571D01*
X147320000Y-146509619D02*
X147320000Y-145735524D01*
X75395667Y-186100357D02*
X75347286Y-186148738D01*
X75202143Y-186197119D01*
X75105381Y-186197119D01*
X74960239Y-186148738D01*
X74863477Y-186051976D01*
X74815096Y-185955214D01*
X74766715Y-185761690D01*
X74766715Y-185616548D01*
X74815096Y-185423024D01*
X74863477Y-185326262D01*
X74960239Y-185229500D01*
X75105381Y-185181119D01*
X75202143Y-185181119D01*
X75347286Y-185229500D01*
X75395667Y-185277881D01*
X75734334Y-185181119D02*
X76411667Y-185181119D01*
X75976239Y-186197119D01*
X74534185Y-187784619D02*
X74011670Y-187784619D01*
X74272928Y-187784619D02*
X74399928Y-186768619D01*
X74294699Y-186913762D01*
X74195518Y-187010524D01*
X74102384Y-187058905D01*
X75227242Y-186768619D02*
X75314327Y-186768619D01*
X75395365Y-186817000D01*
X75432860Y-186865381D01*
X75464308Y-186962143D01*
X75483661Y-187155667D01*
X75453423Y-187397571D01*
X75385689Y-187591095D01*
X75330051Y-187687857D01*
X75280460Y-187736238D01*
X75187327Y-187784619D01*
X75100242Y-187784619D01*
X75019203Y-187736238D01*
X74981708Y-187687857D01*
X74950260Y-187591095D01*
X74930908Y-187397571D01*
X74961146Y-187155667D01*
X75028879Y-186962143D01*
X75084517Y-186865381D01*
X75134108Y-186817000D01*
X75227242Y-186768619D01*
X76273479Y-187107286D02*
X76188813Y-187784619D01*
X75881593Y-187107286D02*
X75815070Y-187639476D01*
X75846517Y-187736238D01*
X75927556Y-187784619D01*
X76058184Y-187784619D01*
X76151317Y-187736238D01*
X76200908Y-187687857D01*
X76995564Y-187252429D02*
X76690764Y-187252429D01*
X76624241Y-187784619D02*
X76751241Y-186768619D01*
X77186670Y-186768619D01*
X77717953Y-184857571D02*
X78492048Y-184857571D01*
X78105000Y-185244619D02*
X78105000Y-184470524D01*
X143975667Y-186100357D02*
X143927286Y-186148738D01*
X143782143Y-186197119D01*
X143685381Y-186197119D01*
X143540239Y-186148738D01*
X143443477Y-186051976D01*
X143395096Y-185955214D01*
X143346715Y-185761690D01*
X143346715Y-185616548D01*
X143395096Y-185423024D01*
X143443477Y-185326262D01*
X143540239Y-185229500D01*
X143685381Y-185181119D01*
X143782143Y-185181119D01*
X143927286Y-185229500D01*
X143975667Y-185277881D01*
X144556239Y-185616548D02*
X144459477Y-185568167D01*
X144411096Y-185519786D01*
X144362715Y-185423024D01*
X144362715Y-185374643D01*
X144411096Y-185277881D01*
X144459477Y-185229500D01*
X144556239Y-185181119D01*
X144749762Y-185181119D01*
X144846524Y-185229500D01*
X144894905Y-185277881D01*
X144943286Y-185374643D01*
X144943286Y-185423024D01*
X144894905Y-185519786D01*
X144846524Y-185568167D01*
X144749762Y-185616548D01*
X144556239Y-185616548D01*
X144459477Y-185664929D01*
X144411096Y-185713310D01*
X144362715Y-185810071D01*
X144362715Y-186003595D01*
X144411096Y-186100357D01*
X144459477Y-186148738D01*
X144556239Y-186197119D01*
X144749762Y-186197119D01*
X144846524Y-186148738D01*
X144894905Y-186100357D01*
X144943286Y-186003595D01*
X144943286Y-185810071D01*
X144894905Y-185713310D01*
X144846524Y-185664929D01*
X144749762Y-185616548D01*
X143114185Y-187784619D02*
X142591670Y-187784619D01*
X142852928Y-187784619D02*
X142979928Y-186768619D01*
X142874699Y-186913762D01*
X142775518Y-187010524D01*
X142682384Y-187058905D01*
X143807242Y-186768619D02*
X143894327Y-186768619D01*
X143975365Y-186817000D01*
X144012860Y-186865381D01*
X144044308Y-186962143D01*
X144063661Y-187155667D01*
X144033423Y-187397571D01*
X143965689Y-187591095D01*
X143910051Y-187687857D01*
X143860460Y-187736238D01*
X143767327Y-187784619D01*
X143680242Y-187784619D01*
X143599203Y-187736238D01*
X143561708Y-187687857D01*
X143530260Y-187591095D01*
X143510908Y-187397571D01*
X143541146Y-187155667D01*
X143608879Y-186962143D01*
X143664517Y-186865381D01*
X143714108Y-186817000D01*
X143807242Y-186768619D01*
X144853479Y-187107286D02*
X144768813Y-187784619D01*
X144461593Y-187107286D02*
X144395070Y-187639476D01*
X144426517Y-187736238D01*
X144507556Y-187784619D01*
X144638184Y-187784619D01*
X144731317Y-187736238D01*
X144780908Y-187687857D01*
X145575564Y-187252429D02*
X145270764Y-187252429D01*
X145204241Y-187784619D02*
X145331241Y-186768619D01*
X145766670Y-186768619D01*
X146297953Y-184857571D02*
X147072048Y-184857571D01*
X146685000Y-185244619D02*
X146685000Y-184470524D01*
X98890667Y-84182857D02*
X98842286Y-84231238D01*
X98697143Y-84279619D01*
X98600381Y-84279619D01*
X98455239Y-84231238D01*
X98358477Y-84134476D01*
X98310096Y-84037714D01*
X98261715Y-83844190D01*
X98261715Y-83699048D01*
X98310096Y-83505524D01*
X98358477Y-83408762D01*
X98455239Y-83312000D01*
X98600381Y-83263619D01*
X98697143Y-83263619D01*
X98842286Y-83312000D01*
X98890667Y-83360381D01*
X99374477Y-84279619D02*
X99568001Y-84279619D01*
X99664762Y-84231238D01*
X99713143Y-84182857D01*
X99809905Y-84037714D01*
X99858286Y-83844190D01*
X99858286Y-83457143D01*
X99809905Y-83360381D01*
X99761524Y-83312000D01*
X99664762Y-83263619D01*
X99471239Y-83263619D01*
X99374477Y-83312000D01*
X99326096Y-83360381D01*
X99277715Y-83457143D01*
X99277715Y-83699048D01*
X99326096Y-83795810D01*
X99374477Y-83844190D01*
X99471239Y-83892571D01*
X99664762Y-83892571D01*
X99761524Y-83844190D01*
X99809905Y-83795810D01*
X99858286Y-83699048D01*
X98029185Y-91899619D02*
X97506670Y-91899619D01*
X97767928Y-91899619D02*
X97894928Y-90883619D01*
X97789699Y-91028762D01*
X97690518Y-91125524D01*
X97597384Y-91173905D01*
X98722242Y-90883619D02*
X98809327Y-90883619D01*
X98890365Y-90932000D01*
X98927860Y-90980381D01*
X98959308Y-91077143D01*
X98978661Y-91270667D01*
X98948423Y-91512571D01*
X98880689Y-91706095D01*
X98825051Y-91802857D01*
X98775460Y-91851238D01*
X98682327Y-91899619D01*
X98595242Y-91899619D01*
X98514203Y-91851238D01*
X98476708Y-91802857D01*
X98445260Y-91706095D01*
X98425908Y-91512571D01*
X98456146Y-91270667D01*
X98523879Y-91077143D01*
X98579517Y-90980381D01*
X98629108Y-90932000D01*
X98722242Y-90883619D01*
X99768479Y-91222286D02*
X99683813Y-91899619D01*
X99376593Y-91222286D02*
X99310070Y-91754476D01*
X99341517Y-91851238D01*
X99422556Y-91899619D01*
X99553184Y-91899619D01*
X99646317Y-91851238D01*
X99695908Y-91802857D01*
X100490564Y-91367429D02*
X100185764Y-91367429D01*
X100119241Y-91899619D02*
X100246241Y-90883619D01*
X100681670Y-90883619D01*
X96132953Y-85162571D02*
X96907048Y-85162571D01*
X96520000Y-85549619D02*
X96520000Y-84775524D01*
X98406857Y-124822857D02*
X98358476Y-124871238D01*
X98213333Y-124919619D01*
X98116571Y-124919619D01*
X97971429Y-124871238D01*
X97874667Y-124774476D01*
X97826286Y-124677714D01*
X97777905Y-124484190D01*
X97777905Y-124339048D01*
X97826286Y-124145524D01*
X97874667Y-124048762D01*
X97971429Y-123952000D01*
X98116571Y-123903619D01*
X98213333Y-123903619D01*
X98358476Y-123952000D01*
X98406857Y-124000381D01*
X99374476Y-124919619D02*
X98793905Y-124919619D01*
X99084191Y-124919619D02*
X99084191Y-123903619D01*
X98987429Y-124048762D01*
X98890667Y-124145524D01*
X98793905Y-124193905D01*
X100003429Y-123903619D02*
X100100190Y-123903619D01*
X100196952Y-123952000D01*
X100245333Y-124000381D01*
X100293714Y-124097143D01*
X100342095Y-124290667D01*
X100342095Y-124532571D01*
X100293714Y-124726095D01*
X100245333Y-124822857D01*
X100196952Y-124871238D01*
X100100190Y-124919619D01*
X100003429Y-124919619D01*
X99906667Y-124871238D01*
X99858286Y-124822857D01*
X99809905Y-124726095D01*
X99761524Y-124532571D01*
X99761524Y-124290667D01*
X99809905Y-124097143D01*
X99858286Y-124000381D01*
X99906667Y-123952000D01*
X100003429Y-123903619D01*
X98029185Y-132539619D02*
X97506670Y-132539619D01*
X97767928Y-132539619D02*
X97894928Y-131523619D01*
X97789699Y-131668762D01*
X97690518Y-131765524D01*
X97597384Y-131813905D01*
X98722242Y-131523619D02*
X98809327Y-131523619D01*
X98890365Y-131572000D01*
X98927860Y-131620381D01*
X98959308Y-131717143D01*
X98978661Y-131910667D01*
X98948423Y-132152571D01*
X98880689Y-132346095D01*
X98825051Y-132442857D01*
X98775460Y-132491238D01*
X98682327Y-132539619D01*
X98595242Y-132539619D01*
X98514203Y-132491238D01*
X98476708Y-132442857D01*
X98445260Y-132346095D01*
X98425908Y-132152571D01*
X98456146Y-131910667D01*
X98523879Y-131717143D01*
X98579517Y-131620381D01*
X98629108Y-131572000D01*
X98722242Y-131523619D01*
X99768479Y-131862286D02*
X99683813Y-132539619D01*
X99376593Y-131862286D02*
X99310070Y-132394476D01*
X99341517Y-132491238D01*
X99422556Y-132539619D01*
X99553184Y-132539619D01*
X99646317Y-132491238D01*
X99695908Y-132442857D01*
X100490564Y-132007429D02*
X100185764Y-132007429D01*
X100119241Y-132539619D02*
X100246241Y-131523619D01*
X100681670Y-131523619D01*
X96132953Y-125802571D02*
X96907048Y-125802571D01*
X96520000Y-126189619D02*
X96520000Y-125415524D01*
X98406857Y-165462857D02*
X98358476Y-165511238D01*
X98213333Y-165559619D01*
X98116571Y-165559619D01*
X97971429Y-165511238D01*
X97874667Y-165414476D01*
X97826286Y-165317714D01*
X97777905Y-165124190D01*
X97777905Y-164979048D01*
X97826286Y-164785524D01*
X97874667Y-164688762D01*
X97971429Y-164592000D01*
X98116571Y-164543619D01*
X98213333Y-164543619D01*
X98358476Y-164592000D01*
X98406857Y-164640381D01*
X99374476Y-165559619D02*
X98793905Y-165559619D01*
X99084191Y-165559619D02*
X99084191Y-164543619D01*
X98987429Y-164688762D01*
X98890667Y-164785524D01*
X98793905Y-164833905D01*
X100342095Y-165559619D02*
X99761524Y-165559619D01*
X100051810Y-165559619D02*
X100051810Y-164543619D01*
X99955048Y-164688762D01*
X99858286Y-164785524D01*
X99761524Y-164833905D01*
X98029185Y-173179619D02*
X97506670Y-173179619D01*
X97767928Y-173179619D02*
X97894928Y-172163619D01*
X97789699Y-172308762D01*
X97690518Y-172405524D01*
X97597384Y-172453905D01*
X98722242Y-172163619D02*
X98809327Y-172163619D01*
X98890365Y-172212000D01*
X98927860Y-172260381D01*
X98959308Y-172357143D01*
X98978661Y-172550667D01*
X98948423Y-172792571D01*
X98880689Y-172986095D01*
X98825051Y-173082857D01*
X98775460Y-173131238D01*
X98682327Y-173179619D01*
X98595242Y-173179619D01*
X98514203Y-173131238D01*
X98476708Y-173082857D01*
X98445260Y-172986095D01*
X98425908Y-172792571D01*
X98456146Y-172550667D01*
X98523879Y-172357143D01*
X98579517Y-172260381D01*
X98629108Y-172212000D01*
X98722242Y-172163619D01*
X99768479Y-172502286D02*
X99683813Y-173179619D01*
X99376593Y-172502286D02*
X99310070Y-173034476D01*
X99341517Y-173131238D01*
X99422556Y-173179619D01*
X99553184Y-173179619D01*
X99646317Y-173131238D01*
X99695908Y-173082857D01*
X100490564Y-172647429D02*
X100185764Y-172647429D01*
X100119241Y-173179619D02*
X100246241Y-172163619D01*
X100681670Y-172163619D01*
X96132953Y-166442571D02*
X96907048Y-166442571D01*
X96520000Y-166829619D02*
X96520000Y-166055524D01*
X90786857Y-104502857D02*
X90738476Y-104551238D01*
X90593333Y-104599619D01*
X90496571Y-104599619D01*
X90351429Y-104551238D01*
X90254667Y-104454476D01*
X90206286Y-104357714D01*
X90157905Y-104164190D01*
X90157905Y-104019048D01*
X90206286Y-103825524D01*
X90254667Y-103728762D01*
X90351429Y-103632000D01*
X90496571Y-103583619D01*
X90593333Y-103583619D01*
X90738476Y-103632000D01*
X90786857Y-103680381D01*
X91754476Y-104599619D02*
X91173905Y-104599619D01*
X91464191Y-104599619D02*
X91464191Y-103583619D01*
X91367429Y-103728762D01*
X91270667Y-103825524D01*
X91173905Y-103873905D01*
X92093143Y-103583619D02*
X92722095Y-103583619D01*
X92383429Y-103970667D01*
X92528571Y-103970667D01*
X92625333Y-104019048D01*
X92673714Y-104067429D01*
X92722095Y-104164190D01*
X92722095Y-104406095D01*
X92673714Y-104502857D01*
X92625333Y-104551238D01*
X92528571Y-104599619D01*
X92238286Y-104599619D01*
X92141524Y-104551238D01*
X92093143Y-104502857D01*
X90409185Y-112219619D02*
X89886670Y-112219619D01*
X90147928Y-112219619D02*
X90274928Y-111203619D01*
X90169699Y-111348762D01*
X90070518Y-111445524D01*
X89977384Y-111493905D01*
X91102242Y-111203619D02*
X91189327Y-111203619D01*
X91270365Y-111252000D01*
X91307860Y-111300381D01*
X91339308Y-111397143D01*
X91358661Y-111590667D01*
X91328423Y-111832571D01*
X91260689Y-112026095D01*
X91205051Y-112122857D01*
X91155460Y-112171238D01*
X91062327Y-112219619D01*
X90975242Y-112219619D01*
X90894203Y-112171238D01*
X90856708Y-112122857D01*
X90825260Y-112026095D01*
X90805908Y-111832571D01*
X90836146Y-111590667D01*
X90903879Y-111397143D01*
X90959517Y-111300381D01*
X91009108Y-111252000D01*
X91102242Y-111203619D01*
X92148479Y-111542286D02*
X92063813Y-112219619D01*
X91756593Y-111542286D02*
X91690070Y-112074476D01*
X91721517Y-112171238D01*
X91802556Y-112219619D01*
X91933184Y-112219619D01*
X92026317Y-112171238D01*
X92075908Y-112122857D01*
X92870564Y-111687429D02*
X92565764Y-111687429D01*
X92499241Y-112219619D02*
X92626241Y-111203619D01*
X93061670Y-111203619D01*
X88512953Y-105482571D02*
X89287048Y-105482571D01*
X88900000Y-105869619D02*
X88900000Y-105095524D01*
X90786857Y-145142857D02*
X90738476Y-145191238D01*
X90593333Y-145239619D01*
X90496571Y-145239619D01*
X90351429Y-145191238D01*
X90254667Y-145094476D01*
X90206286Y-144997714D01*
X90157905Y-144804190D01*
X90157905Y-144659048D01*
X90206286Y-144465524D01*
X90254667Y-144368762D01*
X90351429Y-144272000D01*
X90496571Y-144223619D01*
X90593333Y-144223619D01*
X90738476Y-144272000D01*
X90786857Y-144320381D01*
X91754476Y-145239619D02*
X91173905Y-145239619D01*
X91464191Y-145239619D02*
X91464191Y-144223619D01*
X91367429Y-144368762D01*
X91270667Y-144465524D01*
X91173905Y-144513905D01*
X92625333Y-144562286D02*
X92625333Y-145239619D01*
X92383429Y-144175238D02*
X92141524Y-144900952D01*
X92770476Y-144900952D01*
X90409185Y-152859619D02*
X89886670Y-152859619D01*
X90147928Y-152859619D02*
X90274928Y-151843619D01*
X90169699Y-151988762D01*
X90070518Y-152085524D01*
X89977384Y-152133905D01*
X91102242Y-151843619D02*
X91189327Y-151843619D01*
X91270365Y-151892000D01*
X91307860Y-151940381D01*
X91339308Y-152037143D01*
X91358661Y-152230667D01*
X91328423Y-152472571D01*
X91260689Y-152666095D01*
X91205051Y-152762857D01*
X91155460Y-152811238D01*
X91062327Y-152859619D01*
X90975242Y-152859619D01*
X90894203Y-152811238D01*
X90856708Y-152762857D01*
X90825260Y-152666095D01*
X90805908Y-152472571D01*
X90836146Y-152230667D01*
X90903879Y-152037143D01*
X90959517Y-151940381D01*
X91009108Y-151892000D01*
X91102242Y-151843619D01*
X92148479Y-152182286D02*
X92063813Y-152859619D01*
X91756593Y-152182286D02*
X91690070Y-152714476D01*
X91721517Y-152811238D01*
X91802556Y-152859619D01*
X91933184Y-152859619D01*
X92026317Y-152811238D01*
X92075908Y-152762857D01*
X92870564Y-152327429D02*
X92565764Y-152327429D01*
X92499241Y-152859619D02*
X92626241Y-151843619D01*
X93061670Y-151843619D01*
X88512953Y-146122571D02*
X89287048Y-146122571D01*
X88900000Y-146509619D02*
X88900000Y-145735524D01*
X83166857Y-84182857D02*
X83118476Y-84231238D01*
X82973333Y-84279619D01*
X82876571Y-84279619D01*
X82731429Y-84231238D01*
X82634667Y-84134476D01*
X82586286Y-84037714D01*
X82537905Y-83844190D01*
X82537905Y-83699048D01*
X82586286Y-83505524D01*
X82634667Y-83408762D01*
X82731429Y-83312000D01*
X82876571Y-83263619D01*
X82973333Y-83263619D01*
X83118476Y-83312000D01*
X83166857Y-83360381D01*
X84134476Y-84279619D02*
X83553905Y-84279619D01*
X83844191Y-84279619D02*
X83844191Y-83263619D01*
X83747429Y-83408762D01*
X83650667Y-83505524D01*
X83553905Y-83553905D01*
X85053714Y-83263619D02*
X84569905Y-83263619D01*
X84521524Y-83747429D01*
X84569905Y-83699048D01*
X84666667Y-83650667D01*
X84908571Y-83650667D01*
X85005333Y-83699048D01*
X85053714Y-83747429D01*
X85102095Y-83844190D01*
X85102095Y-84086095D01*
X85053714Y-84182857D01*
X85005333Y-84231238D01*
X84908571Y-84279619D01*
X84666667Y-84279619D01*
X84569905Y-84231238D01*
X84521524Y-84182857D01*
X82789185Y-91899619D02*
X82266670Y-91899619D01*
X82527928Y-91899619D02*
X82654928Y-90883619D01*
X82549699Y-91028762D01*
X82450518Y-91125524D01*
X82357384Y-91173905D01*
X83482242Y-90883619D02*
X83569327Y-90883619D01*
X83650365Y-90932000D01*
X83687860Y-90980381D01*
X83719308Y-91077143D01*
X83738661Y-91270667D01*
X83708423Y-91512571D01*
X83640689Y-91706095D01*
X83585051Y-91802857D01*
X83535460Y-91851238D01*
X83442327Y-91899619D01*
X83355242Y-91899619D01*
X83274203Y-91851238D01*
X83236708Y-91802857D01*
X83205260Y-91706095D01*
X83185908Y-91512571D01*
X83216146Y-91270667D01*
X83283879Y-91077143D01*
X83339517Y-90980381D01*
X83389108Y-90932000D01*
X83482242Y-90883619D01*
X84528479Y-91222286D02*
X84443813Y-91899619D01*
X84136593Y-91222286D02*
X84070070Y-91754476D01*
X84101517Y-91851238D01*
X84182556Y-91899619D01*
X84313184Y-91899619D01*
X84406317Y-91851238D01*
X84455908Y-91802857D01*
X85250564Y-91367429D02*
X84945764Y-91367429D01*
X84879241Y-91899619D02*
X85006241Y-90883619D01*
X85441670Y-90883619D01*
X80892953Y-85162571D02*
X81667048Y-85162571D01*
X81280000Y-85549619D02*
X81280000Y-84775524D01*
X83166857Y-124822857D02*
X83118476Y-124871238D01*
X82973333Y-124919619D01*
X82876571Y-124919619D01*
X82731429Y-124871238D01*
X82634667Y-124774476D01*
X82586286Y-124677714D01*
X82537905Y-124484190D01*
X82537905Y-124339048D01*
X82586286Y-124145524D01*
X82634667Y-124048762D01*
X82731429Y-123952000D01*
X82876571Y-123903619D01*
X82973333Y-123903619D01*
X83118476Y-123952000D01*
X83166857Y-124000381D01*
X84134476Y-124919619D02*
X83553905Y-124919619D01*
X83844191Y-124919619D02*
X83844191Y-123903619D01*
X83747429Y-124048762D01*
X83650667Y-124145524D01*
X83553905Y-124193905D01*
X85005333Y-123903619D02*
X84811810Y-123903619D01*
X84715048Y-123952000D01*
X84666667Y-124000381D01*
X84569905Y-124145524D01*
X84521524Y-124339048D01*
X84521524Y-124726095D01*
X84569905Y-124822857D01*
X84618286Y-124871238D01*
X84715048Y-124919619D01*
X84908571Y-124919619D01*
X85005333Y-124871238D01*
X85053714Y-124822857D01*
X85102095Y-124726095D01*
X85102095Y-124484190D01*
X85053714Y-124387429D01*
X85005333Y-124339048D01*
X84908571Y-124290667D01*
X84715048Y-124290667D01*
X84618286Y-124339048D01*
X84569905Y-124387429D01*
X84521524Y-124484190D01*
X82789185Y-132539619D02*
X82266670Y-132539619D01*
X82527928Y-132539619D02*
X82654928Y-131523619D01*
X82549699Y-131668762D01*
X82450518Y-131765524D01*
X82357384Y-131813905D01*
X83482242Y-131523619D02*
X83569327Y-131523619D01*
X83650365Y-131572000D01*
X83687860Y-131620381D01*
X83719308Y-131717143D01*
X83738661Y-131910667D01*
X83708423Y-132152571D01*
X83640689Y-132346095D01*
X83585051Y-132442857D01*
X83535460Y-132491238D01*
X83442327Y-132539619D01*
X83355242Y-132539619D01*
X83274203Y-132491238D01*
X83236708Y-132442857D01*
X83205260Y-132346095D01*
X83185908Y-132152571D01*
X83216146Y-131910667D01*
X83283879Y-131717143D01*
X83339517Y-131620381D01*
X83389108Y-131572000D01*
X83482242Y-131523619D01*
X84528479Y-131862286D02*
X84443813Y-132539619D01*
X84136593Y-131862286D02*
X84070070Y-132394476D01*
X84101517Y-132491238D01*
X84182556Y-132539619D01*
X84313184Y-132539619D01*
X84406317Y-132491238D01*
X84455908Y-132442857D01*
X85250564Y-132007429D02*
X84945764Y-132007429D01*
X84879241Y-132539619D02*
X85006241Y-131523619D01*
X85441670Y-131523619D01*
X80892953Y-125802571D02*
X81667048Y-125802571D01*
X81280000Y-126189619D02*
X81280000Y-125415524D01*
X83166857Y-165462857D02*
X83118476Y-165511238D01*
X82973333Y-165559619D01*
X82876571Y-165559619D01*
X82731429Y-165511238D01*
X82634667Y-165414476D01*
X82586286Y-165317714D01*
X82537905Y-165124190D01*
X82537905Y-164979048D01*
X82586286Y-164785524D01*
X82634667Y-164688762D01*
X82731429Y-164592000D01*
X82876571Y-164543619D01*
X82973333Y-164543619D01*
X83118476Y-164592000D01*
X83166857Y-164640381D01*
X84134476Y-165559619D02*
X83553905Y-165559619D01*
X83844191Y-165559619D02*
X83844191Y-164543619D01*
X83747429Y-164688762D01*
X83650667Y-164785524D01*
X83553905Y-164833905D01*
X84473143Y-164543619D02*
X85150476Y-164543619D01*
X84715048Y-165559619D01*
X82789185Y-173179619D02*
X82266670Y-173179619D01*
X82527928Y-173179619D02*
X82654928Y-172163619D01*
X82549699Y-172308762D01*
X82450518Y-172405524D01*
X82357384Y-172453905D01*
X83482242Y-172163619D02*
X83569327Y-172163619D01*
X83650365Y-172212000D01*
X83687860Y-172260381D01*
X83719308Y-172357143D01*
X83738661Y-172550667D01*
X83708423Y-172792571D01*
X83640689Y-172986095D01*
X83585051Y-173082857D01*
X83535460Y-173131238D01*
X83442327Y-173179619D01*
X83355242Y-173179619D01*
X83274203Y-173131238D01*
X83236708Y-173082857D01*
X83205260Y-172986095D01*
X83185908Y-172792571D01*
X83216146Y-172550667D01*
X83283879Y-172357143D01*
X83339517Y-172260381D01*
X83389108Y-172212000D01*
X83482242Y-172163619D01*
X84528479Y-172502286D02*
X84443813Y-173179619D01*
X84136593Y-172502286D02*
X84070070Y-173034476D01*
X84101517Y-173131238D01*
X84182556Y-173179619D01*
X84313184Y-173179619D01*
X84406317Y-173131238D01*
X84455908Y-173082857D01*
X85250564Y-172647429D02*
X84945764Y-172647429D01*
X84879241Y-173179619D02*
X85006241Y-172163619D01*
X85441670Y-172163619D01*
X80892953Y-166442571D02*
X81667048Y-166442571D01*
X81280000Y-166829619D02*
X81280000Y-166055524D01*
X106026857Y-65196357D02*
X105978476Y-65244738D01*
X105833333Y-65293119D01*
X105736571Y-65293119D01*
X105591429Y-65244738D01*
X105494667Y-65147976D01*
X105446286Y-65051214D01*
X105397905Y-64857690D01*
X105397905Y-64712548D01*
X105446286Y-64519024D01*
X105494667Y-64422262D01*
X105591429Y-64325500D01*
X105736571Y-64277119D01*
X105833333Y-64277119D01*
X105978476Y-64325500D01*
X106026857Y-64373881D01*
X106994476Y-65293119D02*
X106413905Y-65293119D01*
X106704191Y-65293119D02*
X106704191Y-64277119D01*
X106607429Y-64422262D01*
X106510667Y-64519024D01*
X106413905Y-64567405D01*
X107575048Y-64712548D02*
X107478286Y-64664167D01*
X107429905Y-64615786D01*
X107381524Y-64519024D01*
X107381524Y-64470643D01*
X107429905Y-64373881D01*
X107478286Y-64325500D01*
X107575048Y-64277119D01*
X107768571Y-64277119D01*
X107865333Y-64325500D01*
X107913714Y-64373881D01*
X107962095Y-64470643D01*
X107962095Y-64519024D01*
X107913714Y-64615786D01*
X107865333Y-64664167D01*
X107768571Y-64712548D01*
X107575048Y-64712548D01*
X107478286Y-64760929D01*
X107429905Y-64809310D01*
X107381524Y-64906071D01*
X107381524Y-65099595D01*
X107429905Y-65196357D01*
X107478286Y-65244738D01*
X107575048Y-65293119D01*
X107768571Y-65293119D01*
X107865333Y-65244738D01*
X107913714Y-65196357D01*
X107962095Y-65099595D01*
X107962095Y-64906071D01*
X107913714Y-64809310D01*
X107865333Y-64760929D01*
X107768571Y-64712548D01*
X105649185Y-72595619D02*
X105126670Y-72595619D01*
X105387928Y-72595619D02*
X105514928Y-71579619D01*
X105409699Y-71724762D01*
X105310518Y-71821524D01*
X105217384Y-71869905D01*
X106342242Y-71579619D02*
X106429327Y-71579619D01*
X106510365Y-71628000D01*
X106547860Y-71676381D01*
X106579308Y-71773143D01*
X106598661Y-71966667D01*
X106568423Y-72208571D01*
X106500689Y-72402095D01*
X106445051Y-72498857D01*
X106395460Y-72547238D01*
X106302327Y-72595619D01*
X106215242Y-72595619D01*
X106134203Y-72547238D01*
X106096708Y-72498857D01*
X106065260Y-72402095D01*
X106045908Y-72208571D01*
X106076146Y-71966667D01*
X106143879Y-71773143D01*
X106199517Y-71676381D01*
X106249108Y-71628000D01*
X106342242Y-71579619D01*
X107388479Y-71918286D02*
X107303813Y-72595619D01*
X106996593Y-71918286D02*
X106930070Y-72450476D01*
X106961517Y-72547238D01*
X107042556Y-72595619D01*
X107173184Y-72595619D01*
X107266317Y-72547238D01*
X107315908Y-72498857D01*
X108110564Y-72063429D02*
X107805764Y-72063429D01*
X107739241Y-72595619D02*
X107866241Y-71579619D01*
X108301670Y-71579619D01*
X103752953Y-66112571D02*
X104527048Y-66112571D01*
X104140000Y-66499619D02*
X104140000Y-65725524D01*
X90786857Y-65132857D02*
X90738476Y-65181238D01*
X90593333Y-65229619D01*
X90496571Y-65229619D01*
X90351429Y-65181238D01*
X90254667Y-65084476D01*
X90206286Y-64987714D01*
X90157905Y-64794190D01*
X90157905Y-64649048D01*
X90206286Y-64455524D01*
X90254667Y-64358762D01*
X90351429Y-64262000D01*
X90496571Y-64213619D01*
X90593333Y-64213619D01*
X90738476Y-64262000D01*
X90786857Y-64310381D01*
X91754476Y-65229619D02*
X91173905Y-65229619D01*
X91464191Y-65229619D02*
X91464191Y-64213619D01*
X91367429Y-64358762D01*
X91270667Y-64455524D01*
X91173905Y-64503905D01*
X92238286Y-65229619D02*
X92431810Y-65229619D01*
X92528571Y-65181238D01*
X92576952Y-65132857D01*
X92673714Y-64987714D01*
X92722095Y-64794190D01*
X92722095Y-64407143D01*
X92673714Y-64310381D01*
X92625333Y-64262000D01*
X92528571Y-64213619D01*
X92335048Y-64213619D01*
X92238286Y-64262000D01*
X92189905Y-64310381D01*
X92141524Y-64407143D01*
X92141524Y-64649048D01*
X92189905Y-64745810D01*
X92238286Y-64794190D01*
X92335048Y-64842571D01*
X92528571Y-64842571D01*
X92625333Y-64794190D01*
X92673714Y-64745810D01*
X92722095Y-64649048D01*
X90409185Y-72595619D02*
X89886670Y-72595619D01*
X90147928Y-72595619D02*
X90274928Y-71579619D01*
X90169699Y-71724762D01*
X90070518Y-71821524D01*
X89977384Y-71869905D01*
X91102242Y-71579619D02*
X91189327Y-71579619D01*
X91270365Y-71628000D01*
X91307860Y-71676381D01*
X91339308Y-71773143D01*
X91358661Y-71966667D01*
X91328423Y-72208571D01*
X91260689Y-72402095D01*
X91205051Y-72498857D01*
X91155460Y-72547238D01*
X91062327Y-72595619D01*
X90975242Y-72595619D01*
X90894203Y-72547238D01*
X90856708Y-72498857D01*
X90825260Y-72402095D01*
X90805908Y-72208571D01*
X90836146Y-71966667D01*
X90903879Y-71773143D01*
X90959517Y-71676381D01*
X91009108Y-71628000D01*
X91102242Y-71579619D01*
X92148479Y-71918286D02*
X92063813Y-72595619D01*
X91756593Y-71918286D02*
X91690070Y-72450476D01*
X91721517Y-72547238D01*
X91802556Y-72595619D01*
X91933184Y-72595619D01*
X92026317Y-72547238D01*
X92075908Y-72498857D01*
X92870564Y-72063429D02*
X92565764Y-72063429D01*
X92499241Y-72595619D02*
X92626241Y-71579619D01*
X93061670Y-71579619D01*
X88512953Y-66112571D02*
X89287048Y-66112571D01*
X88900000Y-66499619D02*
X88900000Y-65725524D01*
X98406857Y-65132857D02*
X98358476Y-65181238D01*
X98213333Y-65229619D01*
X98116571Y-65229619D01*
X97971429Y-65181238D01*
X97874667Y-65084476D01*
X97826286Y-64987714D01*
X97777905Y-64794190D01*
X97777905Y-64649048D01*
X97826286Y-64455524D01*
X97874667Y-64358762D01*
X97971429Y-64262000D01*
X98116571Y-64213619D01*
X98213333Y-64213619D01*
X98358476Y-64262000D01*
X98406857Y-64310381D01*
X98793905Y-64310381D02*
X98842286Y-64262000D01*
X98939048Y-64213619D01*
X99180952Y-64213619D01*
X99277714Y-64262000D01*
X99326095Y-64310381D01*
X99374476Y-64407143D01*
X99374476Y-64503905D01*
X99326095Y-64649048D01*
X98745524Y-65229619D01*
X99374476Y-65229619D01*
X100003429Y-64213619D02*
X100100190Y-64213619D01*
X100196952Y-64262000D01*
X100245333Y-64310381D01*
X100293714Y-64407143D01*
X100342095Y-64600667D01*
X100342095Y-64842571D01*
X100293714Y-65036095D01*
X100245333Y-65132857D01*
X100196952Y-65181238D01*
X100100190Y-65229619D01*
X100003429Y-65229619D01*
X99906667Y-65181238D01*
X99858286Y-65132857D01*
X99809905Y-65036095D01*
X99761524Y-64842571D01*
X99761524Y-64600667D01*
X99809905Y-64407143D01*
X99858286Y-64310381D01*
X99906667Y-64262000D01*
X100003429Y-64213619D01*
X98147113Y-72595619D02*
X97624598Y-72595619D01*
X97885856Y-72595619D02*
X98012856Y-71579619D01*
X97907627Y-71724762D01*
X97808446Y-71821524D01*
X97715312Y-71869905D01*
X99015550Y-71918286D02*
X98930884Y-72595619D01*
X98623664Y-71918286D02*
X98557141Y-72450476D01*
X98588588Y-72547238D01*
X98669627Y-72595619D01*
X98800255Y-72595619D01*
X98893388Y-72547238D01*
X98942979Y-72498857D01*
X99737635Y-72063429D02*
X99432835Y-72063429D01*
X99366312Y-72595619D02*
X99493312Y-71579619D01*
X99928741Y-71579619D01*
X95497953Y-66112571D02*
X96272048Y-66112571D01*
X95885000Y-66499619D02*
X95885000Y-65725524D01*
X155460096Y-59514619D02*
X155460096Y-58498619D01*
X155702001Y-58498619D01*
X155847143Y-58547000D01*
X155943905Y-58643762D01*
X155992286Y-58740524D01*
X156040667Y-58934048D01*
X156040667Y-59079190D01*
X155992286Y-59272714D01*
X155943905Y-59369476D01*
X155847143Y-59466238D01*
X155702001Y-59514619D01*
X155460096Y-59514619D01*
X157008286Y-59514619D02*
X156427715Y-59514619D01*
X156718001Y-59514619D02*
X156718001Y-58498619D01*
X156621239Y-58643762D01*
X156524477Y-58740524D01*
X156427715Y-58788905D01*
X154047069Y-53164619D02*
X154174069Y-52148619D01*
X154522412Y-52148619D01*
X154603450Y-52197000D01*
X154640945Y-52245381D01*
X154672393Y-52342143D01*
X154654250Y-52487286D01*
X154598612Y-52584048D01*
X154549021Y-52632429D01*
X154455888Y-52680810D01*
X154107545Y-52680810D01*
X155262641Y-52148619D02*
X155436812Y-52148619D01*
X155517850Y-52197000D01*
X155592841Y-52293762D01*
X155612192Y-52487286D01*
X155569859Y-52825952D01*
X155502127Y-53019476D01*
X155402945Y-53116238D01*
X155309812Y-53164619D01*
X155135641Y-53164619D01*
X155054602Y-53116238D01*
X154979612Y-53019476D01*
X154960259Y-52825952D01*
X155002592Y-52487286D01*
X155070326Y-52293762D01*
X155169507Y-52197000D01*
X155262641Y-52148619D01*
X155959327Y-52148619D02*
X156050041Y-53164619D01*
X156314926Y-52438905D01*
X156398384Y-53164619D01*
X156743098Y-52148619D01*
X157030964Y-52632429D02*
X157335764Y-52632429D01*
X157399870Y-53164619D02*
X156964441Y-53164619D01*
X157091441Y-52148619D01*
X157526870Y-52148619D01*
X158314270Y-53164619D02*
X158069946Y-52680810D01*
X157791755Y-53164619D02*
X157918755Y-52148619D01*
X158267098Y-52148619D01*
X158348136Y-52197000D01*
X158385631Y-52245381D01*
X158417079Y-52342143D01*
X158398936Y-52487286D01*
X158343298Y-52584048D01*
X158293707Y-52632429D01*
X158200574Y-52680810D01*
X157852231Y-52680810D01*
X161810096Y-59514619D02*
X161810096Y-58498619D01*
X162052001Y-58498619D01*
X162197143Y-58547000D01*
X162293905Y-58643762D01*
X162342286Y-58740524D01*
X162390667Y-58934048D01*
X162390667Y-59079190D01*
X162342286Y-59272714D01*
X162293905Y-59369476D01*
X162197143Y-59466238D01*
X162052001Y-59514619D01*
X161810096Y-59514619D01*
X162777715Y-58595381D02*
X162826096Y-58547000D01*
X162922858Y-58498619D01*
X163164762Y-58498619D01*
X163261524Y-58547000D01*
X163309905Y-58595381D01*
X163358286Y-58692143D01*
X163358286Y-58788905D01*
X163309905Y-58934048D01*
X162729334Y-59514619D01*
X163358286Y-59514619D01*
X159954383Y-52874333D02*
X160389812Y-52874333D01*
X159831013Y-53164619D02*
X160262813Y-52148619D01*
X160440613Y-53164619D01*
X161280022Y-53067857D02*
X161230431Y-53116238D01*
X161093755Y-53164619D01*
X161006669Y-53164619D01*
X160882088Y-53116238D01*
X160807098Y-53019476D01*
X160775650Y-52922714D01*
X160756297Y-52729190D01*
X160774440Y-52584048D01*
X160842174Y-52390524D01*
X160897812Y-52293762D01*
X160996993Y-52197000D01*
X161133669Y-52148619D01*
X161220755Y-52148619D01*
X161345336Y-52197000D01*
X161382831Y-52245381D01*
X161656184Y-52148619D02*
X162178698Y-52148619D01*
X161790441Y-53164619D02*
X161917441Y-52148619D01*
X162356498Y-53164619D02*
X162483498Y-52148619D01*
X162788299Y-52148619D02*
X162966099Y-53164619D01*
X163397899Y-52148619D01*
X163575698Y-53164619D02*
X163702698Y-52148619D01*
X164007499Y-52148619D02*
X164530013Y-52148619D01*
X164141756Y-53164619D02*
X164268756Y-52148619D01*
X164942461Y-52680810D02*
X164881985Y-53164619D01*
X164704185Y-52148619D02*
X164942461Y-52680810D01*
X165313785Y-52148619D01*
X142064619Y-62344904D02*
X141048619Y-62344904D01*
X141048619Y-62102999D01*
X141097000Y-61957857D01*
X141193762Y-61861095D01*
X141290524Y-61812714D01*
X141484048Y-61764333D01*
X141629190Y-61764333D01*
X141822714Y-61812714D01*
X141919476Y-61861095D01*
X142016238Y-61957857D01*
X142064619Y-62102999D01*
X142064619Y-62344904D01*
X141048619Y-61425666D02*
X141048619Y-60796714D01*
X141435667Y-61135380D01*
X141435667Y-60990238D01*
X141484048Y-60893476D01*
X141532429Y-60845095D01*
X141629190Y-60796714D01*
X141871095Y-60796714D01*
X141967857Y-60845095D01*
X142016238Y-60893476D01*
X142064619Y-60990238D01*
X142064619Y-61280523D01*
X142016238Y-61377285D01*
X141967857Y-61425666D01*
X142064619Y-59478030D02*
X142064619Y-60000545D01*
X142064619Y-59739287D02*
X141048619Y-59612287D01*
X141193762Y-59717516D01*
X141290524Y-59816697D01*
X141338905Y-59909831D01*
X142064619Y-59086145D02*
X141048619Y-58959145D01*
X142064619Y-58563630D01*
X141048619Y-58436630D01*
X141387286Y-57651650D02*
X142064619Y-57736316D01*
X141000238Y-57820983D02*
X141725952Y-58129412D01*
X141725952Y-57563354D01*
X142064619Y-56778373D02*
X142064619Y-57300888D01*
X142064619Y-57039630D02*
X141048619Y-56912630D01*
X141193762Y-57017859D01*
X141290524Y-57117040D01*
X141338905Y-57210174D01*
X141387286Y-55909936D02*
X142064619Y-55994602D01*
X141000238Y-56079269D02*
X141725952Y-56387698D01*
X141725952Y-55821640D01*
X141484048Y-55312431D02*
X141435667Y-55393469D01*
X141387286Y-55430965D01*
X141290524Y-55462412D01*
X141242143Y-55456365D01*
X141145381Y-55400727D01*
X141097000Y-55351136D01*
X141048619Y-55258002D01*
X141048619Y-55083831D01*
X141097000Y-55002793D01*
X141145381Y-54965298D01*
X141242143Y-54933850D01*
X141290524Y-54939897D01*
X141387286Y-54995536D01*
X141435667Y-55045126D01*
X141484048Y-55138260D01*
X141484048Y-55312431D01*
X141532429Y-55405565D01*
X141580810Y-55455155D01*
X141677571Y-55510793D01*
X141871095Y-55534984D01*
X141967857Y-55503536D01*
X142016238Y-55466041D01*
X142064619Y-55385002D01*
X142064619Y-55210831D01*
X142016238Y-55117698D01*
X141967857Y-55068107D01*
X141871095Y-55012469D01*
X141677571Y-54988278D01*
X141580810Y-55019726D01*
X141532429Y-55057222D01*
X141484048Y-55138260D01*
X143652119Y-62344904D02*
X142636119Y-62344904D01*
X142636119Y-62102999D01*
X142684500Y-61957857D01*
X142781262Y-61861095D01*
X142878024Y-61812714D01*
X143071548Y-61764333D01*
X143216690Y-61764333D01*
X143410214Y-61812714D01*
X143506976Y-61861095D01*
X143603738Y-61957857D01*
X143652119Y-62102999D01*
X143652119Y-62344904D01*
X142974786Y-60893476D02*
X143652119Y-60893476D01*
X142587738Y-61135380D02*
X143313452Y-61377285D01*
X143313452Y-60748333D01*
X143652119Y-59478030D02*
X143652119Y-60000545D01*
X143652119Y-59739287D02*
X142636119Y-59612287D01*
X142781262Y-59717516D01*
X142878024Y-59816697D01*
X142926405Y-59909831D01*
X143652119Y-59086145D02*
X142636119Y-58959145D01*
X143652119Y-58563630D01*
X142636119Y-58436630D01*
X142974786Y-57651650D02*
X143652119Y-57736316D01*
X142587738Y-57820983D02*
X143313452Y-58129412D01*
X143313452Y-57563354D01*
X143652119Y-56778373D02*
X143652119Y-57300888D01*
X143652119Y-57039630D02*
X142636119Y-56912630D01*
X142781262Y-57017859D01*
X142878024Y-57117040D01*
X142926405Y-57210174D01*
X142974786Y-55909936D02*
X143652119Y-55994602D01*
X142587738Y-56079269D02*
X143313452Y-56387698D01*
X143313452Y-55821640D01*
X143071548Y-55312431D02*
X143023167Y-55393469D01*
X142974786Y-55430965D01*
X142878024Y-55462412D01*
X142829643Y-55456365D01*
X142732881Y-55400727D01*
X142684500Y-55351136D01*
X142636119Y-55258002D01*
X142636119Y-55083831D01*
X142684500Y-55002793D01*
X142732881Y-54965298D01*
X142829643Y-54933850D01*
X142878024Y-54939897D01*
X142974786Y-54995536D01*
X143023167Y-55045126D01*
X143071548Y-55138260D01*
X143071548Y-55312431D01*
X143119929Y-55405565D01*
X143168310Y-55455155D01*
X143265071Y-55510793D01*
X143458595Y-55534984D01*
X143555357Y-55503536D01*
X143603738Y-55466041D01*
X143652119Y-55385002D01*
X143652119Y-55210831D01*
X143603738Y-55117698D01*
X143555357Y-55068107D01*
X143458595Y-55012469D01*
X143265071Y-54988278D01*
X143168310Y-55019726D01*
X143119929Y-55057222D01*
X143071548Y-55138260D01*
X160479619Y-85839904D02*
X159463619Y-85839904D01*
X159463619Y-85452857D01*
X159512000Y-85356095D01*
X159560381Y-85307714D01*
X159657143Y-85259333D01*
X159802286Y-85259333D01*
X159899048Y-85307714D01*
X159947429Y-85356095D01*
X159995810Y-85452857D01*
X159995810Y-85839904D01*
X159560381Y-84872285D02*
X159512000Y-84823904D01*
X159463619Y-84727142D01*
X159463619Y-84485238D01*
X159512000Y-84388476D01*
X159560381Y-84340095D01*
X159657143Y-84291714D01*
X159753905Y-84291714D01*
X159899048Y-84340095D01*
X160479619Y-84920666D01*
X160479619Y-84291714D01*
X165877119Y-87289217D02*
X164861119Y-87162217D01*
X164861119Y-86813874D01*
X164909500Y-86732836D01*
X164957881Y-86695341D01*
X165054643Y-86663893D01*
X165199786Y-86682036D01*
X165296548Y-86737674D01*
X165344929Y-86787265D01*
X165393310Y-86880398D01*
X165393310Y-87228741D01*
X164861119Y-86073645D02*
X164861119Y-85899474D01*
X164909500Y-85818436D01*
X165006262Y-85743445D01*
X165199786Y-85724094D01*
X165538452Y-85766427D01*
X165731976Y-85834159D01*
X165828738Y-85933341D01*
X165877119Y-86026474D01*
X165877119Y-86200645D01*
X165828738Y-86281684D01*
X165731976Y-86356674D01*
X165538452Y-86376027D01*
X165199786Y-86333694D01*
X165006262Y-86265960D01*
X164909500Y-86166779D01*
X164861119Y-86073645D01*
X164861119Y-85376959D02*
X165877119Y-85286245D01*
X165151405Y-85021360D01*
X165877119Y-84937902D01*
X164861119Y-84593188D01*
X165344929Y-84305322D02*
X165344929Y-84000522D01*
X165877119Y-83936416D02*
X165877119Y-84371845D01*
X164861119Y-84244845D01*
X164861119Y-83809416D01*
X165877119Y-83022016D02*
X165393310Y-83266340D01*
X165877119Y-83544531D02*
X164861119Y-83417531D01*
X164861119Y-83069188D01*
X164909500Y-82988150D01*
X164957881Y-82950655D01*
X165054643Y-82919207D01*
X165199786Y-82937350D01*
X165296548Y-82992988D01*
X165344929Y-83042579D01*
X165393310Y-83135712D01*
X165393310Y-83484055D01*
X165973881Y-82859941D02*
X165973881Y-82163255D01*
X165828738Y-81970941D02*
X165877119Y-81846359D01*
X165877119Y-81628645D01*
X165828738Y-81535512D01*
X165780357Y-81485921D01*
X165683595Y-81430283D01*
X165586833Y-81418188D01*
X165490071Y-81449635D01*
X165441690Y-81487131D01*
X165393310Y-81568169D01*
X165344929Y-81736293D01*
X165296548Y-81817331D01*
X165248167Y-81854826D01*
X165151405Y-81886274D01*
X165054643Y-81874179D01*
X164957881Y-81818541D01*
X164909500Y-81768950D01*
X164861119Y-81675816D01*
X164861119Y-81458102D01*
X164909500Y-81333521D01*
X164861119Y-81022673D02*
X165877119Y-80931959D01*
X165151405Y-80667074D01*
X165877119Y-80583616D01*
X164861119Y-80238902D01*
X66560096Y-63324619D02*
X66560096Y-62308619D01*
X66947143Y-62308619D01*
X67043905Y-62357000D01*
X67092286Y-62405381D01*
X67140667Y-62502143D01*
X67140667Y-62647286D01*
X67092286Y-62744048D01*
X67043905Y-62792429D01*
X66947143Y-62840810D01*
X66560096Y-62840810D01*
X68108286Y-63324619D02*
X67527715Y-63324619D01*
X67818001Y-63324619D02*
X67818001Y-62308619D01*
X67721239Y-62453762D01*
X67624477Y-62550524D01*
X67527715Y-62598905D01*
X70862069Y-63324619D02*
X70989069Y-62308619D01*
X71337412Y-62308619D01*
X71418450Y-62357000D01*
X71455945Y-62405381D01*
X71487393Y-62502143D01*
X71469250Y-62647286D01*
X71413612Y-62744048D01*
X71364021Y-62792429D01*
X71270888Y-62840810D01*
X70922545Y-62840810D01*
X72077641Y-62308619D02*
X72251812Y-62308619D01*
X72332850Y-62357000D01*
X72407841Y-62453762D01*
X72427192Y-62647286D01*
X72384859Y-62985952D01*
X72317127Y-63179476D01*
X72217945Y-63276238D01*
X72124812Y-63324619D01*
X71950641Y-63324619D01*
X71869602Y-63276238D01*
X71794612Y-63179476D01*
X71775259Y-62985952D01*
X71817592Y-62647286D01*
X71885326Y-62453762D01*
X71984507Y-62357000D01*
X72077641Y-62308619D01*
X72774327Y-62308619D02*
X72865041Y-63324619D01*
X73129926Y-62598905D01*
X73213384Y-63324619D01*
X73558098Y-62308619D01*
X73845964Y-62792429D02*
X74150764Y-62792429D01*
X74214870Y-63324619D02*
X73779441Y-63324619D01*
X73906441Y-62308619D01*
X74341870Y-62308619D01*
X75129270Y-63324619D02*
X74884946Y-62840810D01*
X74606755Y-63324619D02*
X74733755Y-62308619D01*
X75082098Y-62308619D01*
X75163136Y-62357000D01*
X75200631Y-62405381D01*
X75232079Y-62502143D01*
X75213936Y-62647286D01*
X75158298Y-62744048D01*
X75108707Y-62792429D01*
X75015574Y-62840810D01*
X74667231Y-62840810D01*
X147970119Y-61129333D02*
X147486310Y-61467999D01*
X147970119Y-61709904D02*
X146954119Y-61709904D01*
X146954119Y-61322857D01*
X147002500Y-61226095D01*
X147050881Y-61177714D01*
X147147643Y-61129333D01*
X147292786Y-61129333D01*
X147389548Y-61177714D01*
X147437929Y-61226095D01*
X147486310Y-61322857D01*
X147486310Y-61709904D01*
X147970119Y-60161714D02*
X147970119Y-60742285D01*
X147970119Y-60451999D02*
X146954119Y-60451999D01*
X147099262Y-60548761D01*
X147196024Y-60645523D01*
X147244405Y-60742285D01*
X149367119Y-61555387D02*
X149367119Y-62077902D01*
X149367119Y-61816644D02*
X148351119Y-61689644D01*
X148496262Y-61794873D01*
X148593024Y-61894054D01*
X148641405Y-61987188D01*
X148351119Y-60862330D02*
X148351119Y-60775245D01*
X148399500Y-60694207D01*
X148447881Y-60656712D01*
X148544643Y-60625264D01*
X148738167Y-60605911D01*
X148980071Y-60636149D01*
X149173595Y-60703883D01*
X149270357Y-60759521D01*
X149318738Y-60809112D01*
X149367119Y-60902245D01*
X149367119Y-60989330D01*
X149318738Y-61070369D01*
X149270357Y-61107864D01*
X149173595Y-61139312D01*
X148980071Y-61158664D01*
X148738167Y-61128426D01*
X148544643Y-61060693D01*
X148447881Y-61005055D01*
X148399500Y-60955464D01*
X148351119Y-60862330D01*
X149367119Y-60292645D02*
X148351119Y-60165645D01*
X148980071Y-60157178D02*
X149367119Y-59944302D01*
X148689786Y-59859636D02*
X149076833Y-60256360D01*
X145176119Y-61129333D02*
X144692310Y-61467999D01*
X145176119Y-61709904D02*
X144160119Y-61709904D01*
X144160119Y-61322857D01*
X144208500Y-61226095D01*
X144256881Y-61177714D01*
X144353643Y-61129333D01*
X144498786Y-61129333D01*
X144595548Y-61177714D01*
X144643929Y-61226095D01*
X144692310Y-61322857D01*
X144692310Y-61709904D01*
X144256881Y-60742285D02*
X144208500Y-60693904D01*
X144160119Y-60597142D01*
X144160119Y-60355238D01*
X144208500Y-60258476D01*
X144256881Y-60210095D01*
X144353643Y-60161714D01*
X144450405Y-60161714D01*
X144595548Y-60210095D01*
X145176119Y-60790666D01*
X145176119Y-60161714D01*
X146573119Y-61555387D02*
X146573119Y-62077902D01*
X146573119Y-61816644D02*
X145557119Y-61689644D01*
X145702262Y-61794873D01*
X145799024Y-61894054D01*
X145847405Y-61987188D01*
X145557119Y-60862330D02*
X145557119Y-60775245D01*
X145605500Y-60694207D01*
X145653881Y-60656712D01*
X145750643Y-60625264D01*
X145944167Y-60605911D01*
X146186071Y-60636149D01*
X146379595Y-60703883D01*
X146476357Y-60759521D01*
X146524738Y-60809112D01*
X146573119Y-60902245D01*
X146573119Y-60989330D01*
X146524738Y-61070369D01*
X146476357Y-61107864D01*
X146379595Y-61139312D01*
X146186071Y-61158664D01*
X145944167Y-61128426D01*
X145750643Y-61060693D01*
X145653881Y-61005055D01*
X145605500Y-60955464D01*
X145557119Y-60862330D01*
X146573119Y-60292645D02*
X145557119Y-60165645D01*
X146186071Y-60157178D02*
X146573119Y-59944302D01*
X145895786Y-59859636D02*
X146282833Y-60256360D01*
X134635119Y-71289333D02*
X134151310Y-71627999D01*
X134635119Y-71869904D02*
X133619119Y-71869904D01*
X133619119Y-71482857D01*
X133667500Y-71386095D01*
X133715881Y-71337714D01*
X133812643Y-71289333D01*
X133957786Y-71289333D01*
X134054548Y-71337714D01*
X134102929Y-71386095D01*
X134151310Y-71482857D01*
X134151310Y-71869904D01*
X133619119Y-70950666D02*
X133619119Y-70321714D01*
X134006167Y-70660380D01*
X134006167Y-70515238D01*
X134054548Y-70418476D01*
X134102929Y-70370095D01*
X134199690Y-70321714D01*
X134441595Y-70321714D01*
X134538357Y-70370095D01*
X134586738Y-70418476D01*
X134635119Y-70515238D01*
X134635119Y-70805523D01*
X134586738Y-70902285D01*
X134538357Y-70950666D01*
X136032119Y-71279959D02*
X136032119Y-71802474D01*
X136032119Y-71541216D02*
X135016119Y-71414216D01*
X135161262Y-71519445D01*
X135258024Y-71618626D01*
X135306405Y-71711760D01*
X136032119Y-70888074D02*
X135016119Y-70761074D01*
X135645071Y-70752607D02*
X136032119Y-70539731D01*
X135354786Y-70455065D02*
X135741833Y-70851789D01*
X150764119Y-61129333D02*
X150280310Y-61467999D01*
X150764119Y-61709904D02*
X149748119Y-61709904D01*
X149748119Y-61322857D01*
X149796500Y-61226095D01*
X149844881Y-61177714D01*
X149941643Y-61129333D01*
X150086786Y-61129333D01*
X150183548Y-61177714D01*
X150231929Y-61226095D01*
X150280310Y-61322857D01*
X150280310Y-61709904D01*
X150086786Y-60258476D02*
X150764119Y-60258476D01*
X149699738Y-60500380D02*
X150425452Y-60742285D01*
X150425452Y-60113333D01*
X151483786Y-61623121D02*
X152161119Y-61707787D01*
X151096738Y-61792454D02*
X151822452Y-62100883D01*
X151822452Y-61534825D01*
X151145119Y-61188901D02*
X151145119Y-60579301D01*
X152161119Y-61098187D01*
X151145119Y-60056787D02*
X151145119Y-59969702D01*
X151193500Y-59888664D01*
X151241881Y-59851169D01*
X151338643Y-59819721D01*
X151532167Y-59800368D01*
X151774071Y-59830606D01*
X151967595Y-59898340D01*
X152064357Y-59953978D01*
X152112738Y-60003569D01*
X152161119Y-60096702D01*
X152161119Y-60183787D01*
X152112738Y-60264826D01*
X152064357Y-60302321D01*
X151967595Y-60333769D01*
X151774071Y-60353121D01*
X151532167Y-60322883D01*
X151338643Y-60255150D01*
X151241881Y-60199512D01*
X151193500Y-60149921D01*
X151145119Y-60056787D01*
X134635119Y-53191833D02*
X134151310Y-53530499D01*
X134635119Y-53772404D02*
X133619119Y-53772404D01*
X133619119Y-53385357D01*
X133667500Y-53288595D01*
X133715881Y-53240214D01*
X133812643Y-53191833D01*
X133957786Y-53191833D01*
X134054548Y-53240214D01*
X134102929Y-53288595D01*
X134151310Y-53385357D01*
X134151310Y-53772404D01*
X133619119Y-52272595D02*
X133619119Y-52756404D01*
X134102929Y-52804785D01*
X134054548Y-52756404D01*
X134006167Y-52659642D01*
X134006167Y-52417738D01*
X134054548Y-52320976D01*
X134102929Y-52272595D01*
X134199690Y-52224214D01*
X134441595Y-52224214D01*
X134538357Y-52272595D01*
X134586738Y-52320976D01*
X134635119Y-52417738D01*
X134635119Y-52659642D01*
X134586738Y-52756404D01*
X134538357Y-52804785D01*
X135354786Y-53685621D02*
X136032119Y-53770287D01*
X134967738Y-53854954D02*
X135693452Y-54163383D01*
X135693452Y-53597325D01*
X135016119Y-53251401D02*
X135016119Y-52641801D01*
X136032119Y-53160687D01*
X135016119Y-52119287D02*
X135016119Y-52032202D01*
X135064500Y-51951164D01*
X135112881Y-51913669D01*
X135209643Y-51882221D01*
X135403167Y-51862868D01*
X135645071Y-51893106D01*
X135838595Y-51960840D01*
X135935357Y-52016478D01*
X135983738Y-52066069D01*
X136032119Y-52159202D01*
X136032119Y-52246287D01*
X135983738Y-52327326D01*
X135935357Y-52364821D01*
X135838595Y-52396269D01*
X135645071Y-52415621D01*
X135403167Y-52385383D01*
X135209643Y-52317650D01*
X135112881Y-52262012D01*
X135064500Y-52212421D01*
X135016119Y-52119287D01*
X142064619Y-53191833D02*
X141580810Y-53530499D01*
X142064619Y-53772404D02*
X141048619Y-53772404D01*
X141048619Y-53385357D01*
X141097000Y-53288595D01*
X141145381Y-53240214D01*
X141242143Y-53191833D01*
X141387286Y-53191833D01*
X141484048Y-53240214D01*
X141532429Y-53288595D01*
X141580810Y-53385357D01*
X141580810Y-53772404D01*
X141048619Y-52320976D02*
X141048619Y-52514499D01*
X141097000Y-52611261D01*
X141145381Y-52659642D01*
X141290524Y-52756404D01*
X141484048Y-52804785D01*
X141871095Y-52804785D01*
X141967857Y-52756404D01*
X142016238Y-52708023D01*
X142064619Y-52611261D01*
X142064619Y-52417738D01*
X142016238Y-52320976D01*
X141967857Y-52272595D01*
X141871095Y-52224214D01*
X141629190Y-52224214D01*
X141532429Y-52272595D01*
X141484048Y-52320976D01*
X141435667Y-52417738D01*
X141435667Y-52611261D01*
X141484048Y-52708023D01*
X141532429Y-52756404D01*
X141629190Y-52804785D01*
X142974786Y-53685621D02*
X143652119Y-53770287D01*
X142587738Y-53854954D02*
X143313452Y-54163383D01*
X143313452Y-53597325D01*
X142636119Y-53251401D02*
X142636119Y-52641801D01*
X143652119Y-53160687D01*
X142636119Y-52119287D02*
X142636119Y-52032202D01*
X142684500Y-51951164D01*
X142732881Y-51913669D01*
X142829643Y-51882221D01*
X143023167Y-51862868D01*
X143265071Y-51893106D01*
X143458595Y-51960840D01*
X143555357Y-52016478D01*
X143603738Y-52066069D01*
X143652119Y-52159202D01*
X143652119Y-52246287D01*
X143603738Y-52327326D01*
X143555357Y-52364821D01*
X143458595Y-52396269D01*
X143265071Y-52415621D01*
X143023167Y-52385383D01*
X142829643Y-52317650D01*
X142732881Y-52262012D01*
X142684500Y-52212421D01*
X142636119Y-52119287D01*
X154764619Y-69384333D02*
X154280810Y-69722999D01*
X154764619Y-69964904D02*
X153748619Y-69964904D01*
X153748619Y-69577857D01*
X153797000Y-69481095D01*
X153845381Y-69432714D01*
X153942143Y-69384333D01*
X154087286Y-69384333D01*
X154184048Y-69432714D01*
X154232429Y-69481095D01*
X154280810Y-69577857D01*
X154280810Y-69964904D01*
X153748619Y-69045666D02*
X153748619Y-68368333D01*
X154764619Y-68803761D01*
X154087286Y-66385621D02*
X154764619Y-66470287D01*
X153700238Y-66554954D02*
X154425952Y-66863383D01*
X154425952Y-66297325D01*
X153748619Y-65951401D02*
X153748619Y-65341801D01*
X154764619Y-65860687D01*
X153748619Y-64819287D02*
X153748619Y-64732202D01*
X153797000Y-64651164D01*
X153845381Y-64613669D01*
X153942143Y-64582221D01*
X154135667Y-64562868D01*
X154377571Y-64593106D01*
X154571095Y-64660840D01*
X154667857Y-64716478D01*
X154716238Y-64766069D01*
X154764619Y-64859202D01*
X154764619Y-64946287D01*
X154716238Y-65027326D01*
X154667857Y-65064821D01*
X154571095Y-65096269D01*
X154377571Y-65115621D01*
X154135667Y-65085383D01*
X153942143Y-65017650D01*
X153845381Y-64962012D01*
X153797000Y-64912421D01*
X153748619Y-64819287D01*
X132672667Y-194452119D02*
X132334001Y-193968310D01*
X132092096Y-194452119D02*
X132092096Y-193436119D01*
X132479143Y-193436119D01*
X132575905Y-193484500D01*
X132624286Y-193532881D01*
X132672667Y-193629643D01*
X132672667Y-193774786D01*
X132624286Y-193871548D01*
X132575905Y-193919929D01*
X132479143Y-193968310D01*
X132092096Y-193968310D01*
X133688667Y-194452119D02*
X133350001Y-193968310D01*
X133108096Y-194452119D02*
X133108096Y-193436119D01*
X133495143Y-193436119D01*
X133591905Y-193484500D01*
X133640286Y-193532881D01*
X133688667Y-193629643D01*
X133688667Y-193774786D01*
X133640286Y-193871548D01*
X133591905Y-193919929D01*
X133495143Y-193968310D01*
X133108096Y-193968310D01*
X134656286Y-194452119D02*
X134075715Y-194452119D01*
X134366001Y-194452119D02*
X134366001Y-193436119D01*
X134269239Y-193581262D01*
X134172477Y-193678024D01*
X134075715Y-193726405D01*
X153074613Y-194452119D02*
X152552098Y-194452119D01*
X152813356Y-194452119D02*
X152940356Y-193436119D01*
X152835127Y-193581262D01*
X152735946Y-193678024D01*
X152642812Y-193726405D01*
X153767670Y-193436119D02*
X153854755Y-193436119D01*
X153935793Y-193484500D01*
X153973288Y-193532881D01*
X154004736Y-193629643D01*
X154024089Y-193823167D01*
X153993851Y-194065071D01*
X153926117Y-194258595D01*
X153870479Y-194355357D01*
X153820888Y-194403738D01*
X153727755Y-194452119D01*
X153640670Y-194452119D01*
X153559631Y-194403738D01*
X153522136Y-194355357D01*
X153490688Y-194258595D01*
X153471336Y-194065071D01*
X153501574Y-193823167D01*
X153569307Y-193629643D01*
X153624945Y-193532881D01*
X153674536Y-193484500D01*
X153767670Y-193436119D01*
X154337355Y-194452119D02*
X154464355Y-193436119D01*
X154472822Y-194065071D02*
X154685698Y-194452119D01*
X154770364Y-193774786D02*
X154373640Y-194161833D01*
X112352667Y-189372119D02*
X112014001Y-188888310D01*
X111772096Y-189372119D02*
X111772096Y-188356119D01*
X112159143Y-188356119D01*
X112255905Y-188404500D01*
X112304286Y-188452881D01*
X112352667Y-188549643D01*
X112352667Y-188694786D01*
X112304286Y-188791548D01*
X112255905Y-188839929D01*
X112159143Y-188888310D01*
X111772096Y-188888310D01*
X113368667Y-189372119D02*
X113030001Y-188888310D01*
X112788096Y-189372119D02*
X112788096Y-188356119D01*
X113175143Y-188356119D01*
X113271905Y-188404500D01*
X113320286Y-188452881D01*
X113368667Y-188549643D01*
X113368667Y-188694786D01*
X113320286Y-188791548D01*
X113271905Y-188839929D01*
X113175143Y-188888310D01*
X112788096Y-188888310D01*
X113755715Y-188452881D02*
X113804096Y-188404500D01*
X113900858Y-188356119D01*
X114142762Y-188356119D01*
X114239524Y-188404500D01*
X114287905Y-188452881D01*
X114336286Y-188549643D01*
X114336286Y-188646405D01*
X114287905Y-188791548D01*
X113707334Y-189372119D01*
X114336286Y-189372119D01*
X132754613Y-189372119D02*
X132232098Y-189372119D01*
X132493356Y-189372119D02*
X132620356Y-188356119D01*
X132515127Y-188501262D01*
X132415946Y-188598024D01*
X132322812Y-188646405D01*
X133447670Y-188356119D02*
X133534755Y-188356119D01*
X133615793Y-188404500D01*
X133653288Y-188452881D01*
X133684736Y-188549643D01*
X133704089Y-188743167D01*
X133673851Y-188985071D01*
X133606117Y-189178595D01*
X133550479Y-189275357D01*
X133500888Y-189323738D01*
X133407755Y-189372119D01*
X133320670Y-189372119D01*
X133239631Y-189323738D01*
X133202136Y-189275357D01*
X133170688Y-189178595D01*
X133151336Y-188985071D01*
X133181574Y-188743167D01*
X133249307Y-188549643D01*
X133304945Y-188452881D01*
X133354536Y-188404500D01*
X133447670Y-188356119D01*
X134017355Y-189372119D02*
X134144355Y-188356119D01*
X134152822Y-188985071D02*
X134365698Y-189372119D01*
X134450364Y-188694786D02*
X134053640Y-189081833D01*
X74252667Y-194452119D02*
X73914001Y-193968310D01*
X73672096Y-194452119D02*
X73672096Y-193436119D01*
X74059143Y-193436119D01*
X74155905Y-193484500D01*
X74204286Y-193532881D01*
X74252667Y-193629643D01*
X74252667Y-193774786D01*
X74204286Y-193871548D01*
X74155905Y-193919929D01*
X74059143Y-193968310D01*
X73672096Y-193968310D01*
X75268667Y-194452119D02*
X74930001Y-193968310D01*
X74688096Y-194452119D02*
X74688096Y-193436119D01*
X75075143Y-193436119D01*
X75171905Y-193484500D01*
X75220286Y-193532881D01*
X75268667Y-193629643D01*
X75268667Y-193774786D01*
X75220286Y-193871548D01*
X75171905Y-193919929D01*
X75075143Y-193968310D01*
X74688096Y-193968310D01*
X75607334Y-193436119D02*
X76236286Y-193436119D01*
X75897620Y-193823167D01*
X76042762Y-193823167D01*
X76139524Y-193871548D01*
X76187905Y-193919929D01*
X76236286Y-194016690D01*
X76236286Y-194258595D01*
X76187905Y-194355357D01*
X76139524Y-194403738D01*
X76042762Y-194452119D01*
X75752477Y-194452119D01*
X75655715Y-194403738D01*
X75607334Y-194355357D01*
X94654613Y-194452119D02*
X94132098Y-194452119D01*
X94393356Y-194452119D02*
X94520356Y-193436119D01*
X94415127Y-193581262D01*
X94315946Y-193678024D01*
X94222812Y-193726405D01*
X95347670Y-193436119D02*
X95434755Y-193436119D01*
X95515793Y-193484500D01*
X95553288Y-193532881D01*
X95584736Y-193629643D01*
X95604089Y-193823167D01*
X95573851Y-194065071D01*
X95506117Y-194258595D01*
X95450479Y-194355357D01*
X95400888Y-194403738D01*
X95307755Y-194452119D01*
X95220670Y-194452119D01*
X95139631Y-194403738D01*
X95102136Y-194355357D01*
X95070688Y-194258595D01*
X95051336Y-194065071D01*
X95081574Y-193823167D01*
X95149307Y-193629643D01*
X95204945Y-193532881D01*
X95254536Y-193484500D01*
X95347670Y-193436119D01*
X95917355Y-194452119D02*
X96044355Y-193436119D01*
X96052822Y-194065071D02*
X96265698Y-194452119D01*
X96350364Y-193774786D02*
X95953640Y-194161833D01*
X153446238Y-57234666D02*
X153494619Y-57089523D01*
X153494619Y-56847619D01*
X153446238Y-56750857D01*
X153397857Y-56702476D01*
X153301095Y-56654095D01*
X153204333Y-56654095D01*
X153107571Y-56702476D01*
X153059190Y-56750857D01*
X153010810Y-56847619D01*
X152962429Y-57041142D01*
X152914048Y-57137904D01*
X152865667Y-57186285D01*
X152768905Y-57234666D01*
X152672143Y-57234666D01*
X152575381Y-57186285D01*
X152527000Y-57137904D01*
X152478619Y-57041142D01*
X152478619Y-56799238D01*
X152527000Y-56654095D01*
X152478619Y-56315428D02*
X153494619Y-56073523D01*
X152768905Y-55880000D01*
X153494619Y-55686476D01*
X152478619Y-55444571D01*
X153494619Y-54525333D02*
X153494619Y-55105904D01*
X153494619Y-54815618D02*
X152478619Y-54815618D01*
X152623762Y-54912380D01*
X152720524Y-55009142D01*
X152768905Y-55105904D01*
X146427069Y-52529619D02*
X146554069Y-51513619D01*
X146902412Y-51513619D01*
X146983450Y-51562000D01*
X147020945Y-51610381D01*
X147052393Y-51707143D01*
X147034250Y-51852286D01*
X146978612Y-51949048D01*
X146929021Y-51997429D01*
X146835888Y-52045810D01*
X146487545Y-52045810D01*
X147642641Y-51513619D02*
X147816812Y-51513619D01*
X147897850Y-51562000D01*
X147972841Y-51658762D01*
X147992192Y-51852286D01*
X147949859Y-52190952D01*
X147882127Y-52384476D01*
X147782945Y-52481238D01*
X147689812Y-52529619D01*
X147515641Y-52529619D01*
X147434602Y-52481238D01*
X147359612Y-52384476D01*
X147340259Y-52190952D01*
X147382592Y-51852286D01*
X147450326Y-51658762D01*
X147549507Y-51562000D01*
X147642641Y-51513619D01*
X148339327Y-51513619D02*
X148430041Y-52529619D01*
X148694926Y-51803905D01*
X148778384Y-52529619D01*
X149123098Y-51513619D01*
X149410964Y-51997429D02*
X149715764Y-51997429D01*
X149779870Y-52529619D02*
X149344441Y-52529619D01*
X149471441Y-51513619D01*
X149906870Y-51513619D01*
X150694270Y-52529619D02*
X150449946Y-52045810D01*
X150171755Y-52529619D02*
X150298755Y-51513619D01*
X150647098Y-51513619D01*
X150728136Y-51562000D01*
X150765631Y-51610381D01*
X150797079Y-51707143D01*
X150778936Y-51852286D01*
X150723298Y-51949048D01*
X150673707Y-51997429D01*
X150580574Y-52045810D01*
X150232231Y-52045810D01*
X70412429Y-200817238D02*
X70460810Y-200672095D01*
X70509190Y-200623714D01*
X70605952Y-200575333D01*
X70751095Y-200575333D01*
X70847857Y-200623714D01*
X70896238Y-200672095D01*
X70944619Y-200768857D01*
X70944619Y-201155904D01*
X69928619Y-201155904D01*
X69928619Y-200817238D01*
X69977000Y-200720476D01*
X70025381Y-200672095D01*
X70122143Y-200623714D01*
X70218905Y-200623714D01*
X70315667Y-200672095D01*
X70364048Y-200720476D01*
X70412429Y-200817238D01*
X70412429Y-201155904D01*
X69928619Y-200139904D02*
X70751095Y-200139904D01*
X70847857Y-200091523D01*
X70896238Y-200043142D01*
X70944619Y-199946380D01*
X70944619Y-199752857D01*
X70896238Y-199656095D01*
X70847857Y-199607714D01*
X70751095Y-199559333D01*
X69928619Y-199559333D01*
X70896238Y-199123904D02*
X70944619Y-198978761D01*
X70944619Y-198736857D01*
X70896238Y-198640095D01*
X70847857Y-198591714D01*
X70751095Y-198543333D01*
X70654333Y-198543333D01*
X70557571Y-198591714D01*
X70509190Y-198640095D01*
X70460810Y-198736857D01*
X70412429Y-198930380D01*
X70364048Y-199027142D01*
X70315667Y-199075523D01*
X70218905Y-199123904D01*
X70122143Y-199123904D01*
X70025381Y-199075523D01*
X69977000Y-199027142D01*
X69928619Y-198930380D01*
X69928619Y-198688476D01*
X69977000Y-198543333D01*
X69928619Y-198204666D02*
X69928619Y-197527333D01*
X70944619Y-197962761D01*
X160479619Y-90602404D02*
X159463619Y-90602404D01*
X159463619Y-90215357D01*
X159512000Y-90118595D01*
X159560381Y-90070214D01*
X159657143Y-90021833D01*
X159802286Y-90021833D01*
X159899048Y-90070214D01*
X159947429Y-90118595D01*
X159995810Y-90215357D01*
X159995810Y-90602404D01*
X159463619Y-89683166D02*
X159463619Y-89054214D01*
X159850667Y-89392880D01*
X159850667Y-89247738D01*
X159899048Y-89150976D01*
X159947429Y-89102595D01*
X160044190Y-89054214D01*
X160286095Y-89054214D01*
X160382857Y-89102595D01*
X160431238Y-89150976D01*
X160479619Y-89247738D01*
X160479619Y-89538023D01*
X160431238Y-89634785D01*
X160382857Y-89683166D01*
X165877119Y-95827245D02*
X164861119Y-95700245D01*
X164861119Y-95351902D01*
X164909500Y-95270864D01*
X164957881Y-95233369D01*
X165054643Y-95201921D01*
X165199786Y-95220064D01*
X165296548Y-95275702D01*
X165344929Y-95325293D01*
X165393310Y-95418426D01*
X165393310Y-95766769D01*
X164861119Y-94611673D02*
X164861119Y-94437502D01*
X164909500Y-94356464D01*
X165006262Y-94281473D01*
X165199786Y-94262122D01*
X165538452Y-94304455D01*
X165731976Y-94372187D01*
X165828738Y-94471369D01*
X165877119Y-94564502D01*
X165877119Y-94738673D01*
X165828738Y-94819712D01*
X165731976Y-94894702D01*
X165538452Y-94914055D01*
X165199786Y-94871722D01*
X165006262Y-94803988D01*
X164909500Y-94704807D01*
X164861119Y-94611673D01*
X164861119Y-93914987D02*
X165877119Y-93824273D01*
X165151405Y-93559388D01*
X165877119Y-93475930D01*
X164861119Y-93131216D01*
X165344929Y-92843350D02*
X165344929Y-92538550D01*
X165877119Y-92474444D02*
X165877119Y-92909873D01*
X164861119Y-92782873D01*
X164861119Y-92347444D01*
X165877119Y-91560044D02*
X165393310Y-91804368D01*
X165877119Y-92082559D02*
X164861119Y-91955559D01*
X164861119Y-91607216D01*
X164909500Y-91526178D01*
X164957881Y-91488683D01*
X165054643Y-91457235D01*
X165199786Y-91475378D01*
X165296548Y-91531016D01*
X165344929Y-91580607D01*
X165393310Y-91673740D01*
X165393310Y-92022083D01*
X165973881Y-91397969D02*
X165973881Y-90701283D01*
X165877119Y-90036044D02*
X165877119Y-90471473D01*
X164861119Y-90344473D01*
X165344929Y-89664721D02*
X165344929Y-89359921D01*
X165877119Y-89295815D02*
X165877119Y-89731244D01*
X164861119Y-89604244D01*
X164861119Y-89168815D01*
X165877119Y-88903930D02*
X164861119Y-88776930D01*
X164861119Y-88559215D01*
X164909500Y-88434635D01*
X165006262Y-88359644D01*
X165103024Y-88328196D01*
X165296548Y-88308844D01*
X165441690Y-88326987D01*
X165635214Y-88394720D01*
X165731976Y-88450358D01*
X165828738Y-88549540D01*
X165877119Y-88686215D01*
X165877119Y-88903930D01*
X102192667Y-194452119D02*
X101854001Y-193968310D01*
X101612096Y-194452119D02*
X101612096Y-193436119D01*
X101999143Y-193436119D01*
X102095905Y-193484500D01*
X102144286Y-193532881D01*
X102192667Y-193629643D01*
X102192667Y-193774786D01*
X102144286Y-193871548D01*
X102095905Y-193919929D01*
X101999143Y-193968310D01*
X101612096Y-193968310D01*
X103208667Y-194452119D02*
X102870001Y-193968310D01*
X102628096Y-194452119D02*
X102628096Y-193436119D01*
X103015143Y-193436119D01*
X103111905Y-193484500D01*
X103160286Y-193532881D01*
X103208667Y-193629643D01*
X103208667Y-193774786D01*
X103160286Y-193871548D01*
X103111905Y-193919929D01*
X103015143Y-193968310D01*
X102628096Y-193968310D01*
X104079524Y-193774786D02*
X104079524Y-194452119D01*
X103837620Y-193387738D02*
X103595715Y-194113452D01*
X104224667Y-194113452D01*
X112434613Y-194452119D02*
X111912098Y-194452119D01*
X112173356Y-194452119D02*
X112300356Y-193436119D01*
X112195127Y-193581262D01*
X112095946Y-193678024D01*
X112002812Y-193726405D01*
X113127670Y-193436119D02*
X113214755Y-193436119D01*
X113295793Y-193484500D01*
X113333288Y-193532881D01*
X113364736Y-193629643D01*
X113384089Y-193823167D01*
X113353851Y-194065071D01*
X113286117Y-194258595D01*
X113230479Y-194355357D01*
X113180888Y-194403738D01*
X113087755Y-194452119D01*
X113000670Y-194452119D01*
X112919631Y-194403738D01*
X112882136Y-194355357D01*
X112850688Y-194258595D01*
X112831336Y-194065071D01*
X112861574Y-193823167D01*
X112929307Y-193629643D01*
X112984945Y-193532881D01*
X113034536Y-193484500D01*
X113127670Y-193436119D01*
X113697355Y-194452119D02*
X113824355Y-193436119D01*
X113832822Y-194065071D02*
X114045698Y-194452119D01*
X114130364Y-193774786D02*
X113733640Y-194161833D01*
X94572667Y-189372119D02*
X94234001Y-188888310D01*
X93992096Y-189372119D02*
X93992096Y-188356119D01*
X94379143Y-188356119D01*
X94475905Y-188404500D01*
X94524286Y-188452881D01*
X94572667Y-188549643D01*
X94572667Y-188694786D01*
X94524286Y-188791548D01*
X94475905Y-188839929D01*
X94379143Y-188888310D01*
X93992096Y-188888310D01*
X95588667Y-189372119D02*
X95250001Y-188888310D01*
X95008096Y-189372119D02*
X95008096Y-188356119D01*
X95395143Y-188356119D01*
X95491905Y-188404500D01*
X95540286Y-188452881D01*
X95588667Y-188549643D01*
X95588667Y-188694786D01*
X95540286Y-188791548D01*
X95491905Y-188839929D01*
X95395143Y-188888310D01*
X95008096Y-188888310D01*
X96507905Y-188356119D02*
X96024096Y-188356119D01*
X95975715Y-188839929D01*
X96024096Y-188791548D01*
X96120858Y-188743167D01*
X96362762Y-188743167D01*
X96459524Y-188791548D01*
X96507905Y-188839929D01*
X96556286Y-188936690D01*
X96556286Y-189178595D01*
X96507905Y-189275357D01*
X96459524Y-189323738D01*
X96362762Y-189372119D01*
X96120858Y-189372119D01*
X96024096Y-189323738D01*
X95975715Y-189275357D01*
X104594478Y-188694786D02*
X104509812Y-189372119D01*
X104425145Y-188307738D02*
X104116716Y-189033452D01*
X104682774Y-189033452D01*
X105000878Y-189275357D02*
X105038373Y-189323738D01*
X104988783Y-189372119D01*
X104951287Y-189323738D01*
X105000878Y-189275357D01*
X104988783Y-189372119D01*
X105464127Y-188356119D02*
X106073727Y-188356119D01*
X105554841Y-189372119D01*
X106295069Y-189372119D02*
X106422069Y-188356119D01*
X106430536Y-188985071D02*
X106643412Y-189372119D01*
X106728078Y-188694786D02*
X106331354Y-189081833D01*
X113045119Y-61734095D02*
X113867595Y-61734095D01*
X113964357Y-61685714D01*
X114012738Y-61637333D01*
X114061119Y-61540571D01*
X114061119Y-61347048D01*
X114012738Y-61250286D01*
X113964357Y-61201905D01*
X113867595Y-61153524D01*
X113045119Y-61153524D01*
X113141881Y-60718095D02*
X113093500Y-60669714D01*
X113045119Y-60572952D01*
X113045119Y-60331048D01*
X113093500Y-60234286D01*
X113141881Y-60185905D01*
X113238643Y-60137524D01*
X113335405Y-60137524D01*
X113480548Y-60185905D01*
X114061119Y-60766476D01*
X114061119Y-60137524D01*
X113045119Y-58699701D02*
X113045119Y-58090101D01*
X114061119Y-58608987D01*
X113383786Y-57392207D02*
X114061119Y-57476873D01*
X112996738Y-57561540D02*
X113722452Y-57869969D01*
X113722452Y-57303911D01*
X114061119Y-56997902D02*
X113045119Y-56870902D01*
X113528929Y-56931379D02*
X113528929Y-56408864D01*
X114061119Y-56475387D02*
X113045119Y-56348387D01*
X113964357Y-55505349D02*
X114012738Y-55554940D01*
X114061119Y-55691616D01*
X114061119Y-55778702D01*
X114012738Y-55903283D01*
X113915976Y-55978273D01*
X113819214Y-56009721D01*
X113625690Y-56029074D01*
X113480548Y-56010931D01*
X113287024Y-55943197D01*
X113190262Y-55887559D01*
X113093500Y-55788378D01*
X113045119Y-55651702D01*
X113045119Y-55564616D01*
X113093500Y-55440035D01*
X113141881Y-55402540D01*
X113045119Y-55129187D02*
X113045119Y-54606673D01*
X114061119Y-54994930D02*
X113045119Y-54867930D01*
X114061119Y-53949901D02*
X114061119Y-54472416D01*
X114061119Y-54211158D02*
X113045119Y-54084158D01*
X113190262Y-54189387D01*
X113287024Y-54288568D01*
X113335405Y-54381702D01*
X113383786Y-53081464D02*
X114061119Y-53166130D01*
X112996738Y-53250797D02*
X113722452Y-53559226D01*
X113722452Y-52993168D01*
X110217857Y-71773143D02*
X110266238Y-71821524D01*
X110314619Y-71966667D01*
X110314619Y-72063429D01*
X110266238Y-72208571D01*
X110169476Y-72305333D01*
X110072714Y-72353714D01*
X109879190Y-72402095D01*
X109734048Y-72402095D01*
X109540524Y-72353714D01*
X109443762Y-72305333D01*
X109347000Y-72208571D01*
X109298619Y-72063429D01*
X109298619Y-71966667D01*
X109347000Y-71821524D01*
X109395381Y-71773143D01*
X109395381Y-71386095D02*
X109347000Y-71337714D01*
X109298619Y-71240952D01*
X109298619Y-70999048D01*
X109347000Y-70902286D01*
X109395381Y-70853905D01*
X109492143Y-70805524D01*
X109588905Y-70805524D01*
X109734048Y-70853905D01*
X110314619Y-71434476D01*
X110314619Y-70805524D01*
X109395381Y-70418476D02*
X109347000Y-70370095D01*
X109298619Y-70273333D01*
X109298619Y-70031429D01*
X109347000Y-69934667D01*
X109395381Y-69886286D01*
X109492143Y-69837905D01*
X109588905Y-69837905D01*
X109734048Y-69886286D01*
X110314619Y-70466857D01*
X110314619Y-69837905D01*
X109298619Y-66831330D02*
X109298619Y-66744245D01*
X109347000Y-66663207D01*
X109395381Y-66625712D01*
X109492143Y-66594264D01*
X109685667Y-66574911D01*
X109927571Y-66605149D01*
X110121095Y-66672883D01*
X110217857Y-66728521D01*
X110266238Y-66778112D01*
X110314619Y-66871245D01*
X110314619Y-66958330D01*
X110266238Y-67039369D01*
X110217857Y-67076864D01*
X110121095Y-67108312D01*
X109927571Y-67127664D01*
X109685667Y-67097426D01*
X109492143Y-67029693D01*
X109395381Y-66974055D01*
X109347000Y-66924464D01*
X109298619Y-66831330D01*
X110217857Y-66249550D02*
X110266238Y-66212055D01*
X110314619Y-66261645D01*
X110266238Y-66299141D01*
X110217857Y-66249550D01*
X110314619Y-66261645D01*
X110314619Y-65347244D02*
X110314619Y-65869759D01*
X110314619Y-65608501D02*
X109298619Y-65481501D01*
X109443762Y-65586730D01*
X109540524Y-65685911D01*
X109588905Y-65779045D01*
X109637286Y-64478807D02*
X110314619Y-64563473D01*
X109637286Y-64870693D02*
X110169476Y-64937216D01*
X110266238Y-64905769D01*
X110314619Y-64824730D01*
X110314619Y-64694102D01*
X110266238Y-64600969D01*
X110217857Y-64551378D01*
X109782429Y-63756722D02*
X109782429Y-64061522D01*
X110314619Y-64128045D02*
X109298619Y-64001045D01*
X109298619Y-63565616D01*
X83166857Y-65132857D02*
X83118476Y-65181238D01*
X82973333Y-65229619D01*
X82876571Y-65229619D01*
X82731429Y-65181238D01*
X82634667Y-65084476D01*
X82586286Y-64987714D01*
X82537905Y-64794190D01*
X82537905Y-64649048D01*
X82586286Y-64455524D01*
X82634667Y-64358762D01*
X82731429Y-64262000D01*
X82876571Y-64213619D01*
X82973333Y-64213619D01*
X83118476Y-64262000D01*
X83166857Y-64310381D01*
X84134476Y-65229619D02*
X83553905Y-65229619D01*
X83844191Y-65229619D02*
X83844191Y-64213619D01*
X83747429Y-64358762D01*
X83650667Y-64455524D01*
X83553905Y-64503905D01*
X84521524Y-64310381D02*
X84569905Y-64262000D01*
X84666667Y-64213619D01*
X84908571Y-64213619D01*
X85005333Y-64262000D01*
X85053714Y-64310381D01*
X85102095Y-64407143D01*
X85102095Y-64503905D01*
X85053714Y-64649048D01*
X84473143Y-65229619D01*
X85102095Y-65229619D01*
X82789185Y-72595619D02*
X82266670Y-72595619D01*
X82527928Y-72595619D02*
X82654928Y-71579619D01*
X82549699Y-71724762D01*
X82450518Y-71821524D01*
X82357384Y-71869905D01*
X83482242Y-71579619D02*
X83569327Y-71579619D01*
X83650365Y-71628000D01*
X83687860Y-71676381D01*
X83719308Y-71773143D01*
X83738661Y-71966667D01*
X83708423Y-72208571D01*
X83640689Y-72402095D01*
X83585051Y-72498857D01*
X83535460Y-72547238D01*
X83442327Y-72595619D01*
X83355242Y-72595619D01*
X83274203Y-72547238D01*
X83236708Y-72498857D01*
X83205260Y-72402095D01*
X83185908Y-72208571D01*
X83216146Y-71966667D01*
X83283879Y-71773143D01*
X83339517Y-71676381D01*
X83389108Y-71628000D01*
X83482242Y-71579619D01*
X84528479Y-71918286D02*
X84443813Y-72595619D01*
X84136593Y-71918286D02*
X84070070Y-72450476D01*
X84101517Y-72547238D01*
X84182556Y-72595619D01*
X84313184Y-72595619D01*
X84406317Y-72547238D01*
X84455908Y-72498857D01*
X85250564Y-72063429D02*
X84945764Y-72063429D01*
X84879241Y-72595619D02*
X85006241Y-71579619D01*
X85441670Y-71579619D01*
X80892953Y-66112571D02*
X81667048Y-66112571D01*
X81280000Y-66499619D02*
X81280000Y-65725524D01*
X110217857Y-60343143D02*
X110266238Y-60391524D01*
X110314619Y-60536667D01*
X110314619Y-60633429D01*
X110266238Y-60778571D01*
X110169476Y-60875333D01*
X110072714Y-60923714D01*
X109879190Y-60972095D01*
X109734048Y-60972095D01*
X109540524Y-60923714D01*
X109443762Y-60875333D01*
X109347000Y-60778571D01*
X109298619Y-60633429D01*
X109298619Y-60536667D01*
X109347000Y-60391524D01*
X109395381Y-60343143D01*
X109395381Y-59956095D02*
X109347000Y-59907714D01*
X109298619Y-59810952D01*
X109298619Y-59569048D01*
X109347000Y-59472286D01*
X109395381Y-59423905D01*
X109492143Y-59375524D01*
X109588905Y-59375524D01*
X109734048Y-59423905D01*
X110314619Y-60004476D01*
X110314619Y-59375524D01*
X110314619Y-58407905D02*
X110314619Y-58988476D01*
X110314619Y-58698190D02*
X109298619Y-58698190D01*
X109443762Y-58794952D01*
X109540524Y-58891714D01*
X109588905Y-58988476D01*
X109298619Y-56036330D02*
X109298619Y-55949245D01*
X109347000Y-55868207D01*
X109395381Y-55830712D01*
X109492143Y-55799264D01*
X109685667Y-55779911D01*
X109927571Y-55810149D01*
X110121095Y-55877883D01*
X110217857Y-55933521D01*
X110266238Y-55983112D01*
X110314619Y-56076245D01*
X110314619Y-56163330D01*
X110266238Y-56244369D01*
X110217857Y-56281864D01*
X110121095Y-56313312D01*
X109927571Y-56332664D01*
X109685667Y-56302426D01*
X109492143Y-56234693D01*
X109395381Y-56179055D01*
X109347000Y-56129464D01*
X109298619Y-56036330D01*
X110217857Y-55454550D02*
X110266238Y-55417055D01*
X110314619Y-55466645D01*
X110266238Y-55504141D01*
X110217857Y-55454550D01*
X110314619Y-55466645D01*
X110314619Y-54552244D02*
X110314619Y-55074759D01*
X110314619Y-54813501D02*
X109298619Y-54686501D01*
X109443762Y-54791730D01*
X109540524Y-54890911D01*
X109588905Y-54984045D01*
X109637286Y-53683807D02*
X110314619Y-53768473D01*
X109637286Y-54075693D02*
X110169476Y-54142216D01*
X110266238Y-54110769D01*
X110314619Y-54029730D01*
X110314619Y-53899102D01*
X110266238Y-53805969D01*
X110217857Y-53756378D01*
X109782429Y-52961722D02*
X109782429Y-53266522D01*
X110314619Y-53333045D02*
X109298619Y-53206045D01*
X109298619Y-52770616D01*
X54053619Y-92214095D02*
X54876095Y-92214095D01*
X54972857Y-92165714D01*
X55021238Y-92117333D01*
X55069619Y-92020571D01*
X55069619Y-91827048D01*
X55021238Y-91730286D01*
X54972857Y-91681905D01*
X54876095Y-91633524D01*
X54053619Y-91633524D01*
X54053619Y-91246476D02*
X54053619Y-90617524D01*
X54440667Y-90956190D01*
X54440667Y-90811048D01*
X54489048Y-90714286D01*
X54537429Y-90665905D01*
X54634190Y-90617524D01*
X54876095Y-90617524D01*
X54972857Y-90665905D01*
X55021238Y-90714286D01*
X55069619Y-90811048D01*
X55069619Y-91101333D01*
X55021238Y-91198095D01*
X54972857Y-91246476D01*
X55069619Y-84752845D02*
X55069619Y-85188274D01*
X54053619Y-85061274D01*
X55069619Y-84448045D02*
X54053619Y-84321045D01*
X54779333Y-84106960D01*
X54053619Y-83711445D01*
X55069619Y-83838445D01*
X54053619Y-83363101D02*
X54053619Y-82753501D01*
X55069619Y-83272387D01*
X55069619Y-82488616D02*
X55069619Y-82314444D01*
X55021238Y-82221312D01*
X54972857Y-82171721D01*
X54827714Y-82066492D01*
X54634190Y-81998759D01*
X54247143Y-81950378D01*
X54150381Y-81981826D01*
X54102000Y-82019321D01*
X54053619Y-82100359D01*
X54053619Y-82274530D01*
X54102000Y-82367664D01*
X54150381Y-82417255D01*
X54247143Y-82472893D01*
X54489048Y-82503131D01*
X54585810Y-82471683D01*
X54634190Y-82434188D01*
X54682571Y-82353149D01*
X54682571Y-82178978D01*
X54634190Y-82085845D01*
X54585810Y-82036254D01*
X54489048Y-81980616D01*
X54053619Y-81360130D02*
X54053619Y-81273045D01*
X54102000Y-81192007D01*
X54150381Y-81154512D01*
X54247143Y-81123064D01*
X54440667Y-81103711D01*
X54682571Y-81133949D01*
X54876095Y-81201683D01*
X54972857Y-81257321D01*
X55021238Y-81306912D01*
X55069619Y-81400045D01*
X55069619Y-81487130D01*
X55021238Y-81568169D01*
X54972857Y-81605664D01*
X54876095Y-81637112D01*
X54682571Y-81656464D01*
X54440667Y-81626226D01*
X54247143Y-81558493D01*
X54150381Y-81502855D01*
X54102000Y-81453264D01*
X54053619Y-81360130D01*
X54053619Y-80228016D02*
X54053619Y-80663445D01*
X54537429Y-80767465D01*
X54489048Y-80717874D01*
X54440667Y-80624740D01*
X54440667Y-80407026D01*
X54489048Y-80325988D01*
X54537429Y-80288493D01*
X54634190Y-80257045D01*
X54876095Y-80287283D01*
X54972857Y-80342921D01*
X55021238Y-80392512D01*
X55069619Y-80485645D01*
X55069619Y-80703359D01*
X55021238Y-80784398D01*
X54972857Y-80821893D01*
X54972857Y-79384978D02*
X55021238Y-79434569D01*
X55069619Y-79571245D01*
X55069619Y-79658331D01*
X55021238Y-79782912D01*
X54924476Y-79857902D01*
X54827714Y-79889350D01*
X54634190Y-79908703D01*
X54489048Y-79890560D01*
X54295524Y-79822826D01*
X54198762Y-79767188D01*
X54102000Y-79668007D01*
X54053619Y-79531331D01*
X54053619Y-79444245D01*
X54102000Y-79319664D01*
X54150381Y-79282169D01*
X54053619Y-79008816D02*
X54053619Y-78486302D01*
X55069619Y-78874559D02*
X54053619Y-78747559D01*
M02*
