M48
;DRILL file {KiCad 4.0.1-stable} date 12/12/2017 1:59:14 PM
;FORMAT={-:-/ absolute / inch / decimal}
FMAT,2
INCH,TZ
T1C0.025
T2C0.032
T3C0.039
T4C0.040
T5C0.045
T6C0.063
T7C0.120
T8C0.158
%
G90
G05
M72
T1
X3.896Y-2.479
X4.Y-2.55
X4.1Y-2.55
X4.1375Y-2.5125
X4.2125Y-2.5125
X4.275Y-2.5125
T2
X2.9Y-2.7
X2.9Y-7.55
X3.Y-7.55
X3.1Y-2.7
X3.1Y-7.35
X3.1Y-7.55
X3.2Y-2.7
X3.2Y-3.45
X3.2Y-4.25
X3.2Y-5.05
X3.2Y-5.85
X3.2Y-6.65
X3.2Y-7.55
X3.3Y-7.35
X3.3Y-7.55
X3.4Y-2.7
X3.4Y-3.45
X3.4Y-4.25
X3.4Y-5.05
X3.4Y-5.85
X3.4Y-6.65
X3.4Y-7.55
X3.5Y-2.7
X3.5Y-4.25
X3.5Y-5.85
X3.5Y-7.55
X3.6Y-7.55
X3.7Y-2.7
X3.7Y-4.25
X3.7Y-5.85
X3.7Y-7.35
X3.7Y-7.55
X3.8Y-2.7
X3.8Y-3.45
X3.8Y-5.05
X3.8Y-6.65
X3.8Y-7.35
X3.8Y-7.55
X3.9Y-7.35
X4.Y-2.7
X4.Y-3.45
X4.Y-5.05
X4.Y-6.65
X4.Y-7.35
X4.Y-7.55
X4.1Y-2.7
X4.1Y-7.35
X4.1Y-7.55
X4.2Y-7.35
X4.2Y-7.55
X4.3Y-2.7
X4.3Y-7.55
X4.4Y-2.15
X4.4Y-2.35
X4.4Y-2.55
X4.4Y-2.75
X4.4Y-7.35
X4.4Y-7.55
X4.5Y-7.35
X4.5Y-7.55
X4.6Y-2.1
X4.6Y-2.4
X4.6Y-2.5
X4.6Y-2.8
X4.6Y-7.35
X4.7Y-2.1
X4.7Y-2.4
X4.7Y-2.5
X4.7Y-2.8
X4.7Y-7.35
X4.8Y-2.1
X4.8Y-2.4
X4.8Y-2.5
X4.8Y-2.8
X4.8Y-7.35
X4.9Y-2.1
X4.9Y-2.4
X4.9Y-2.5
X4.9Y-2.8
X4.9Y-7.35
X5.Y-2.1
X5.Y-2.4
X5.Y-2.5
X5.Y-2.8
X5.Y-7.35
X5.1Y-2.1
X5.1Y-2.4
X5.1Y-2.5
X5.1Y-2.8
X5.1Y-7.35
X5.2Y-2.1
X5.2Y-2.4
X5.2Y-2.5
X5.2Y-2.8
X5.2Y-7.35
X5.2Y-7.55
X5.3Y-7.35
X5.3Y-7.55
X5.4Y-2.1
X5.4Y-2.4
X5.4Y-2.5
X5.4Y-2.8
X5.4Y-7.55
X5.5Y-2.1
X5.5Y-2.4
X5.5Y-2.5
X5.5Y-2.8
X5.5Y-7.55
X5.6Y-2.5
X5.6Y-2.8
X5.6Y-7.55
X5.7Y-2.5
X5.7Y-2.8
X5.7Y-7.55
X5.8Y-2.5
X5.8Y-2.8
X5.8Y-3.4375
X5.8Y-4.25
X5.8Y-5.85
X5.8Y-7.35
X5.8Y-7.55
X5.9Y-2.5
X5.9Y-2.8
X5.9Y-7.55
X6.Y-2.5
X6.Y-2.8
X6.Y-3.4375
X6.Y-4.25
X6.Y-5.85
X6.Y-7.35
X6.Y-7.55
X6.1Y-2.2
X6.1Y-7.55
X6.2Y-2.2
X6.35Y-2.2
X6.45Y-2.2
T3
X5.722Y-2.1114
X5.722Y-2.2886
X5.978Y-2.1114
X5.978Y-2.2886
T4
X3.Y-2.95
X3.Y-3.15
X3.Y-3.75
X3.Y-3.95
X3.Y-4.55
X3.Y-4.75
X3.Y-5.35
X3.Y-5.55
X3.Y-6.15
X3.Y-6.35
X3.Y-6.95
X3.Y-7.15
X3.Y-7.75
X3.Y-7.95
X3.1Y-2.95
X3.1Y-3.15
X3.1Y-3.75
X3.1Y-3.95
X3.1Y-4.55
X3.1Y-4.75
X3.1Y-5.35
X3.1Y-5.55
X3.1Y-6.15
X3.1Y-6.35
X3.1Y-6.95
X3.1Y-7.15
X3.1Y-7.75
X3.1Y-7.95
X3.2Y-2.95
X3.2Y-3.15
X3.2Y-3.75
X3.2Y-3.95
X3.2Y-4.55
X3.2Y-4.75
X3.2Y-5.35
X3.2Y-5.55
X3.2Y-6.15
X3.2Y-6.35
X3.2Y-6.95
X3.2Y-7.15
X3.2Y-7.75
X3.2Y-7.95
X3.3Y-2.95
X3.3Y-3.15
X3.3Y-3.75
X3.3Y-3.95
X3.3Y-4.55
X3.3Y-4.75
X3.3Y-5.35
X3.3Y-5.55
X3.3Y-6.15
X3.3Y-6.35
X3.3Y-6.95
X3.3Y-7.15
X3.3Y-7.75
X3.3Y-7.95
X3.4Y-2.95
X3.4Y-3.15
X3.4Y-3.75
X3.4Y-3.95
X3.4Y-4.55
X3.4Y-4.75
X3.4Y-5.35
X3.4Y-5.55
X3.4Y-6.15
X3.4Y-6.35
X3.4Y-6.95
X3.4Y-7.15
X3.4Y-7.75
X3.4Y-7.95
X3.5Y-2.95
X3.5Y-3.15
X3.5Y-3.75
X3.5Y-3.95
X3.5Y-4.55
X3.5Y-4.75
X3.5Y-5.35
X3.5Y-5.55
X3.5Y-6.15
X3.5Y-6.35
X3.5Y-6.95
X3.5Y-7.15
X3.5Y-7.75
X3.5Y-7.95
X3.6Y-2.95
X3.6Y-3.15
X3.6Y-3.75
X3.6Y-3.95
X3.6Y-4.55
X3.6Y-4.75
X3.6Y-5.35
X3.6Y-5.55
X3.6Y-6.15
X3.6Y-6.35
X3.6Y-6.95
X3.6Y-7.15
X3.6Y-7.75
X3.6Y-7.95
X3.7Y-2.95
X3.7Y-3.15
X3.7Y-3.75
X3.7Y-3.95
X3.7Y-4.55
X3.7Y-4.75
X3.7Y-5.35
X3.7Y-5.55
X3.7Y-6.15
X3.7Y-6.35
X3.7Y-6.95
X3.7Y-7.15
X3.7Y-7.75
X3.7Y-7.95
X3.8Y-2.95
X3.8Y-3.15
X3.8Y-3.75
X3.8Y-3.95
X3.8Y-4.55
X3.8Y-4.75
X3.8Y-5.35
X3.8Y-5.55
X3.8Y-6.15
X3.8Y-6.35
X3.8Y-6.95
X3.8Y-7.15
X3.8Y-7.75
X3.8Y-7.95
X3.9Y-2.95
X3.9Y-3.15
X3.9Y-3.75
X3.9Y-3.95
X3.9Y-4.55
X3.9Y-4.75
X3.9Y-5.35
X3.9Y-5.55
X3.9Y-6.15
X3.9Y-6.35
X3.9Y-6.95
X3.9Y-7.15
X3.9Y-7.75
X3.9Y-7.95
X4.Y-2.95
X4.Y-3.15
X4.Y-3.75
X4.Y-3.95
X4.Y-4.55
X4.Y-4.75
X4.Y-5.35
X4.Y-5.55
X4.Y-6.15
X4.Y-6.35
X4.Y-6.95
X4.Y-7.15
X4.Y-7.75
X4.Y-7.95
X4.1Y-2.95
X4.1Y-3.15
X4.1Y-3.75
X4.1Y-3.95
X4.1Y-4.55
X4.1Y-4.75
X4.1Y-5.35
X4.1Y-5.55
X4.1Y-6.15
X4.1Y-6.35
X4.1Y-6.95
X4.1Y-7.15
X4.1Y-7.75
X4.1Y-7.95
X4.2Y-2.95
X4.2Y-3.15
X4.2Y-3.75
X4.2Y-3.95
X4.2Y-4.55
X4.2Y-4.75
X4.2Y-5.35
X4.2Y-5.55
X4.2Y-6.15
X4.2Y-6.35
X4.2Y-6.95
X4.2Y-7.15
X4.2Y-7.75
X4.2Y-7.95
X4.3Y-2.95
X4.3Y-3.15
X4.3Y-3.75
X4.3Y-3.95
X4.3Y-4.55
X4.3Y-4.75
X4.3Y-5.35
X4.3Y-5.55
X4.3Y-6.15
X4.3Y-6.35
X4.3Y-6.95
X4.3Y-7.15
X4.3Y-7.75
X4.3Y-7.95
X4.4Y-2.95
X4.4Y-3.15
X4.4Y-3.75
X4.4Y-3.95
X4.4Y-4.55
X4.4Y-4.75
X4.4Y-5.35
X4.4Y-5.55
X4.4Y-6.15
X4.4Y-6.35
X4.4Y-6.95
X4.4Y-7.15
X4.4Y-7.75
X4.4Y-7.95
X4.5Y-2.95
X4.5Y-3.15
X4.5Y-3.75
X4.5Y-3.95
X4.5Y-4.55
X4.5Y-4.75
X4.5Y-5.35
X4.5Y-5.55
X4.5Y-6.15
X4.5Y-6.35
X4.5Y-6.95
X4.5Y-7.15
X4.5Y-7.75
X4.5Y-7.95
X4.6Y-2.95
X4.6Y-3.15
X4.6Y-3.75
X4.6Y-3.95
X4.6Y-4.55
X4.6Y-4.75
X4.6Y-5.35
X4.6Y-5.55
X4.6Y-6.15
X4.6Y-6.35
X4.6Y-6.95
X4.6Y-7.15
X4.6Y-7.75
X4.6Y-7.95
X4.7Y-2.95
X4.7Y-3.15
X4.7Y-3.75
X4.7Y-3.95
X4.7Y-4.55
X4.7Y-4.75
X4.7Y-5.35
X4.7Y-5.55
X4.7Y-6.15
X4.7Y-6.35
X4.7Y-6.95
X4.7Y-7.15
X4.7Y-7.75
X4.7Y-7.95
X4.8Y-2.95
X4.8Y-3.15
X4.8Y-3.75
X4.8Y-3.95
X4.8Y-4.55
X4.8Y-4.75
X4.8Y-5.35
X4.8Y-5.55
X4.8Y-6.15
X4.8Y-6.35
X4.8Y-6.95
X4.8Y-7.15
X4.8Y-7.75
X4.8Y-7.95
X4.9Y-2.95
X4.9Y-3.15
X4.9Y-3.75
X4.9Y-3.95
X4.9Y-4.55
X4.9Y-4.75
X4.9Y-5.35
X4.9Y-5.55
X4.9Y-6.15
X4.9Y-6.35
X4.9Y-6.95
X4.9Y-7.15
X4.9Y-7.75
X4.9Y-7.95
X5.Y-2.95
X5.Y-3.15
X5.Y-3.75
X5.Y-3.95
X5.Y-4.55
X5.Y-4.75
X5.Y-5.35
X5.Y-5.55
X5.Y-6.15
X5.Y-6.35
X5.Y-6.95
X5.Y-7.15
X5.Y-7.75
X5.Y-7.95
X5.1Y-2.95
X5.1Y-3.15
X5.1Y-3.75
X5.1Y-3.95
X5.1Y-4.55
X5.1Y-4.75
X5.1Y-5.35
X5.1Y-5.55
X5.1Y-6.15
X5.1Y-6.35
X5.1Y-6.95
X5.1Y-7.15
X5.1Y-7.75
X5.1Y-7.95
X5.2Y-2.95
X5.2Y-3.15
X5.2Y-3.75
X5.2Y-3.95
X5.2Y-4.55
X5.2Y-4.75
X5.2Y-5.35
X5.2Y-5.55
X5.2Y-6.15
X5.2Y-6.35
X5.2Y-6.95
X5.2Y-7.15
X5.2Y-7.75
X5.2Y-7.95
X5.3Y-2.95
X5.3Y-3.15
X5.3Y-3.75
X5.3Y-3.95
X5.3Y-4.55
X5.3Y-4.75
X5.3Y-5.35
X5.3Y-5.55
X5.3Y-6.15
X5.3Y-6.35
X5.3Y-6.95
X5.3Y-7.15
X5.3Y-7.75
X5.3Y-7.95
X5.4Y-2.95
X5.4Y-3.15
X5.4Y-3.75
X5.4Y-3.95
X5.4Y-4.55
X5.4Y-4.75
X5.4Y-5.35
X5.4Y-5.55
X5.4Y-6.15
X5.4Y-6.35
X5.4Y-6.95
X5.4Y-7.15
X5.4Y-7.75
X5.4Y-7.95
X5.5Y-2.95
X5.5Y-3.15
X5.5Y-3.75
X5.5Y-3.95
X5.5Y-4.55
X5.5Y-4.75
X5.5Y-5.35
X5.5Y-5.55
X5.5Y-6.15
X5.5Y-6.35
X5.5Y-6.95
X5.5Y-7.15
X5.5Y-7.75
X5.5Y-7.95
X5.6Y-2.95
X5.6Y-3.15
X5.6Y-3.75
X5.6Y-3.95
X5.6Y-4.55
X5.6Y-4.75
X5.6Y-5.35
X5.6Y-5.55
X5.6Y-6.15
X5.6Y-6.35
X5.6Y-6.95
X5.6Y-7.15
X5.6Y-7.75
X5.6Y-7.95
X5.7Y-2.95
X5.7Y-3.15
X5.7Y-3.75
X5.7Y-3.95
X5.7Y-4.55
X5.7Y-4.75
X5.7Y-5.35
X5.7Y-5.55
X5.7Y-6.15
X5.7Y-6.35
X5.7Y-6.95
X5.7Y-7.15
X5.7Y-7.75
X5.7Y-7.95
X5.8Y-2.95
X5.8Y-3.15
X5.8Y-3.75
X5.8Y-3.95
X5.8Y-4.55
X5.8Y-4.75
X5.8Y-5.35
X5.8Y-5.55
X5.8Y-6.15
X5.8Y-6.35
X5.8Y-6.95
X5.8Y-7.15
X5.8Y-7.75
X5.8Y-7.95
X5.9Y-2.95
X5.9Y-3.15
X5.9Y-3.75
X5.9Y-3.95
X5.9Y-4.55
X5.9Y-4.75
X5.9Y-5.35
X5.9Y-5.55
X5.9Y-6.15
X5.9Y-6.35
X5.9Y-6.95
X5.9Y-7.15
X5.9Y-7.75
X5.9Y-7.95
X6.Y-2.95
X6.Y-3.15
X6.Y-3.75
X6.Y-3.95
X6.Y-4.55
X6.Y-4.75
X6.Y-5.35
X6.Y-5.55
X6.Y-6.15
X6.Y-6.35
X6.Y-6.95
X6.Y-7.15
X6.Y-7.75
X6.Y-7.95
X6.4Y-3.3
X6.4Y-3.4
X6.4Y-3.5
X6.4Y-3.6
T5
X2.3Y-2.85
X2.4Y-2.85
X2.5Y-2.85
T6
X2.6559Y-2.1417
X2.6559Y-2.3583
X2.8213Y-2.1417
X2.8213Y-2.3583
X2.9866Y-2.1417
X2.9866Y-2.3583
X3.152Y-2.1417
X3.152Y-2.3583
X3.3173Y-2.1417
X3.3173Y-2.3583
X3.4827Y-2.1417
X3.4827Y-2.3583
X3.648Y-2.1417
X3.648Y-2.3583
X3.8134Y-2.1417
X3.8134Y-2.3583
X3.9787Y-2.1417
X3.9787Y-2.3583
X4.1441Y-2.1417
X4.1441Y-2.3583
T7
X2.4Y-3.5
T8
X2.4Y-2.55
X2.4Y-4.95
X2.4Y-6.75
X2.4Y-7.55
X6.4Y-2.55
X6.4Y-4.95
X6.4Y-6.75
X6.4Y-7.55
T0
M30
